<?xml version="1.0" encoding="UTF-8"?><svg id="Layer_1" xmlns="http://www.w3.org/2000/svg" width="548" height="373" xmlns:xlink="http://www.w3.org/1999/xlink" viewBox="0 0 548 373"><defs><style>.cls-1{opacity:0;}.cls-2{fill:url(#linear-gradient);}.cls-2,.cls-3,.cls-4,.cls-5{stroke-width:0px;}.cls-3{opacity:.1;}.cls-6{fill:#edebeb;}.cls-6,.cls-7,.cls-8{stroke:#000;stroke-miterlimit:10;}.cls-7{fill:#fff;}.cls-8{fill:#1f1f1f;}.cls-5{fill:#690bff;}</style><linearGradient id="linear-gradient" x1="274.3" y1="0" x2="274.3" y2="373.7" gradientUnits="userSpaceOnUse"><stop offset="0" stop-color="#4d79b4"/><stop offset="1" stop-color="#c4d6ee"/></linearGradient></defs><rect class="cls-2" x="-.4" width="549.4" height="373.7"/><rect class="cls-5" x="21.6" y="273.6" width="505.5" height="6"/><polygon class="cls-5" points="274.3 278.8 230.6 354.5 318 354.5 274.3 278.8"/><path class="cls-7" d="M94.5,200.5s-1.9,3.3-2.4,6.4c0,0-7.3,4.9-12.1,11.7,0,0-4.5,0-8.2,1.9,4.4-9.5,12.6-16.8,22.7-20Z"/><path class="cls-8" d="M117.2,204.9s-4.3,3-11.2,5.8c0,0-7.8-3.5-13.9-3.8.6-3.1,2.4-6.4,2.4-6.4,3.6-1.1,7.4-1.7,11.3-1.7s4.9.2,7.3.7c2.8,2.7,4.1,5.5,4.1,5.5Z"/><path class="cls-7" d="M136.3,214.4c-1.9-.4-4.9-.6-4.9-.6-6.2-6.9-14.2-8.9-14.2-8.9,0,0-1.4-2.8-4.1-5.5,9.5,1.9,17.8,7.4,23.2,15Z"/><path class="cls-8" d="M81.7,232.8s-4.6,7.2-7.9,10c-2.7-1.9-5.3-5.4-5.5-5.6,0-.3,0-.6,0-.9,0-5.7,1.2-11,3.5-15.8,3.6-1.9,8.2-1.9,8.2-1.9,0,0,1.4,6.9,1.7,14.2Z"/><path class="cls-7" d="M108,225.8s-7.8,5-11.8,11.3c-2.1-1.3-14.6-4.3-14.6-4.3-.3-7.3-1.7-14.2-1.7-14.2,4.8-6.7,12.1-11.7,12.1-11.7,6.2.3,13.9,3.8,13.9,3.8,2.1,6.9,2,15.1,2,15.1Z"/><path class="cls-8" d="M143,230.9c-1.2,1.2-2.7,5.4-2.7,5.4,0,0,0,0-.1-.1,0,0,0-.1-.1-.2-.2-.2-.4-.4-.6-.6-.5-.6-1.1-1.2-1.6-1.8-.1-.2-.3-.3-.4-.5,0,0-.1-.1-.2-.2-.2-.2-.4-.4-.5-.6-.4-.5-.9-1-1.3-1.5-.1-.1-.2-.3-.3-.4-.5-.6-1-1.2-1.4-1.7,0,0-.1-.1-.2-.2,0,0-.1-.2-.2-.2,0,0,0-.1-.1-.2,0,0,0,0,0,0,0,0,0,0-.1-.1,0,0,0,0-.1-.1,0,0,0,0,0-.1,0,0,0,0,0,0,0,0,0,0,0,0,0,0,0,0,0,0,0,0,0,0,0,0h0c0-8.3-1.3-13.6-1.3-13.6,0,0,3,.3,4.9.6,3.4,4.8,5.8,10.4,6.6,16.5Z"/><path class="cls-7" d="M80,257.9s-1.2,1.8-1.6,3.9c-6.1-6.5-9.9-15.2-10.1-24.7.2.3,2.8,3.7,5.5,5.6,0,0,2.1,8.7,6.2,15.2Z"/><path class="cls-7" d="M135.9,258.6c.4-2.5-.7-5.6-.7-5.6,4.9-7,5.1-16.7,5.1-16.7,0,0,1.4-4.2,2.7-5.4.3,1.8.4,3.5.4,5.4,0,8.4-2.8,16.1-7.4,22.4Z"/><path class="cls-8" d="M100.1,270.4s-3,1.4-5.6,1.6h0c-6.2-2-11.7-5.5-16.1-10.2h0c.4-2.1,1.6-3.9,1.6-3.9,0,0,5.5,3.5,12.6,3.9,0,0,3.8,5.3,7.5,8.6Z"/><path class="cls-8" d="M135.9,258.6h0c-3.5,4.7-8.1,8.6-13.4,11.2-2,0-4.3-.8-4.3-.8h-.2c0,0,0,0,.1-.1,0,0,0,0,0,0h0s0,0,0,0c.2-.2.5-.4.6-.6l7.4-9.6h0c.2-.1,7.6-3.7,9-5.6,0,0,1.1,3.1.7,5.6Z"/><path class="cls-7" d="M122.5,269.8c-5,2.5-10.7,3.9-16.7,3.9s-7.7-.6-11.3-1.7c2.6-.2,5.6-1.6,5.6-1.6,0,0,10.3,1.8,17.5-1.2.1,0,.3-.1.4-.2h.2s2.3.8,4.3.9Z"/><path class="cls-7" d="M102.1,250.9s-8,11-9.4,10.9c-7.2-.4-12.6-3.9-12.6-3.9-4.1-6.5-6.2-15.2-6.2-15.2,3.2-2.8,7.9-10,7.9-10,0,0,12.5,3,14.6,4.3,0,0,4.1,11.2,5.8,13.9Z"/><path class="cls-7" d="M132.7,227.4h0s0,0,0,0c0,0,0,0,0,0,0,0,0,0,0,0,0,0,0,0,0,0,0,0,0,0,0,0,0,0,0,0,0,0,0,0,0,0-.1.1s0,0-.2.1c0,0,0,0-.1.1,0,0-.2.1-.3.2s-.2.1-.3.2c0,0-.1,0-.2.1-.1,0-.2.2-.4.2-.1,0-.2.1-.3.2,0,0,0,0-.1,0,0,0-.1,0-.2.1-.2.1-.4.2-.6.3-.5.3-1.1.6-1.7.9-.3.2-.6.3-.9.5-1.7.9-3.3,1.7-4.1,2.1,0,0-.1,0-.2.1,0,0,0,0-.1,0,0,0,0,0,0,0,0,0-.1,0-.1,0-8.3-6.1-14.4-7.7-14.4-7.7,0,0,.1-8.2-2-15.1,6.9-2.8,11.2-5.8,11.2-5.8,0,0,8,2,14.2,8.9,0,0,1.3,5.3,1.3,13.6Z"/><path class="cls-7" d="M126.4,258.5v.2h-.1s-7.4,9.6-7.4,9.6c-.2.2-.4.4-.6.6,0,0,0,0,0,0h0s0,0,0,0c0,0,0,0-.1,0-.1,0-.3.2-.4.2-7.1,3-17.5,1.2-17.5,1.2-3.6-3.3-7.5-8.6-7.5-8.6,1.4,0,9.4-10.9,9.4-10.9,7.1.8,17.6-1.4,17.6-1.4,0,0,3.8,4.9,6.8,8.9Z"/><path class="cls-8" d="M119.6,249.5s-10.4,2.2-17.6,1.4c-1.7-2.6-5.8-13.9-5.8-13.9,3.9-6.3,11.8-11.3,11.8-11.3,0,0,6.1,1.6,14.4,7.7,0,0,.8,5.9-2.9,16.1Z"/><path class="cls-7" d="M140.3,236.3s-.2,9.8-5.1,16.7c-1.4,1.9-8.8,5.5-9,5.6v-.2c-2.9-4-6.6-8.9-6.6-8.9,3.6-10.2,2.9-16.1,2.9-16.1,0,0,0,0,.1,0,0,0,0,0,0,0,0,0,0,0,.1,0,0,0,.1,0,.2-.1.8-.4,2.4-1.2,4.1-2.1.3-.2.6-.3.9-.5.6-.3,1.1-.6,1.7-.9.2-.1.4-.2.6-.3,0,0,.1,0,.2-.1,0,0,0,0,.1,0,.1,0,.2-.1.3-.2.1,0,.2-.2.4-.2,0,0,.1,0,.2-.1.1,0,.2-.1.3-.2s.2-.1.3-.2c0,0,0,0,.1-.1,0,0,.1,0,.2-.1s0,0,.1-.1c0,0,0,0,0,0,0,0,0,0,0,0,0,0,0,0,0,0,0,0,0,0,0,0,0,0,0,0,0,0,0,0,0,0,0,0,0,0,0,0,0,0h0s0,0,0,0c0,0,0,0,0,0,0,0,0,0,0,0,0,0,0,0,0,.1,0,0,0,0,.1.1,0,0,0,0,.1.1,0,0,0,0,0,0,0,0,0,.1.1.2,0,0,.1.1.2.2,0,0,.1.1.2.2.4.5.9,1.1,1.4,1.7.1.1.2.3.3.4.4.5.8,1,1.3,1.5.2.2.4.4.5.6,0,0,.1.1.2.2.1.2.3.3.4.5.5.6,1.1,1.3,1.6,1.8.2.2.4.4.6.6,0,0,0,.1.1.2,0,0,0,.1.1.1Z"/><path class="cls-6" d="M68.4,237.1s0,0,0,0"/><line class="cls-6" x1="143" y1="230.9" x2="143" y2="230.9"/><g class="cls-1"><path class="cls-4" d="M124.8,203.9c-2.8-.1-5.5,0-8.1.1-7.2.5-13.1,1.9-18.1,4.1-8.5,3.7-14.1,9.5-17.7,16-3.2,5.6-4.8,11.7-5.6,17.2-.2,1.6-.4,3.2-.5,4.8-.3,4.8-.1,8.8.1,11.4,6.8,9.9,18.1,16.3,31,16.3,20.7,0,37.5-16.8,37.5-37.5s-7.5-25.9-18.6-32.4Z"/></g><path class="cls-3" d="M143,230.9c-.6-3.9-1.7-7.6-3.4-11.1-.5,4.8-1.4,9-2.4,12.9-2.8,10.5-7.4,17.9-12.7,23.2-8.4,8.2-18.7,11-27.3,11.6-5.2.4-9.8,0-12.9-.6,3.1,2.2,6.6,3.9,10.3,5.1h0c3.6,1.1,7.4,1.7,11.3,1.7,6,0,11.7-1.4,16.7-3.9,5.3-2.6,9.9-6.5,13.4-11.2,4.7-6.2,7.4-14,7.4-22.4s-.1-3.6-.4-5.4Z"/><path class="cls-7" d="M178.8,200.5s-1.9,3.3-2.4,6.4c0,0-7.3,4.9-12.1,11.7,0,0-4.5,0-8.2,1.9,4.4-9.5,12.6-16.8,22.7-20Z"/><path class="cls-8" d="M201.5,204.9s-4.3,3-11.2,5.8c0,0-7.8-3.5-13.9-3.8.6-3.1,2.4-6.4,2.4-6.4,3.6-1.1,7.4-1.7,11.3-1.7s4.9.2,7.3.7c2.8,2.7,4.1,5.5,4.1,5.5Z"/><path class="cls-7" d="M220.6,214.4c-1.9-.4-4.9-.6-4.9-.6-6.2-6.9-14.2-8.9-14.2-8.9,0,0-1.4-2.8-4.1-5.5,9.5,1.9,17.8,7.4,23.2,15Z"/><path class="cls-8" d="M165.9,232.8s-4.6,7.2-7.9,10c-2.7-1.9-5.3-5.4-5.5-5.6,0-.3,0-.6,0-.9,0-5.7,1.2-11,3.5-15.8,3.6-1.9,8.2-1.9,8.2-1.9,0,0,1.4,6.9,1.7,14.2Z"/><path class="cls-7" d="M192.3,225.8s-7.8,5-11.8,11.3c-2.1-1.3-14.6-4.3-14.6-4.3-.3-7.3-1.7-14.2-1.7-14.2,4.8-6.7,12.1-11.7,12.1-11.7,6.2.3,13.9,3.8,13.9,3.8,2.1,6.9,2,15.1,2,15.1Z"/><path class="cls-8" d="M227.2,230.9c-1.2,1.2-2.7,5.4-2.7,5.4,0,0,0,0-.1-.1,0,0,0-.1-.1-.2-.2-.2-.4-.4-.6-.6-.5-.6-1.1-1.2-1.6-1.8-.1-.2-.3-.3-.4-.5,0,0-.1-.1-.2-.2-.2-.2-.4-.4-.5-.6-.4-.5-.9-1-1.3-1.5-.1-.1-.2-.3-.3-.4-.5-.6-1-1.2-1.4-1.7,0,0-.1-.1-.2-.2,0,0-.1-.2-.2-.2,0,0,0-.1-.1-.2,0,0,0,0,0,0,0,0,0,0-.1-.1,0,0,0,0-.1-.1,0,0,0,0,0-.1,0,0,0,0,0,0,0,0,0,0,0,0,0,0,0,0,0,0,0,0,0,0,0,0h0c0-8.3-1.3-13.6-1.3-13.6,0,0,3,.3,4.9.6,3.4,4.8,5.8,10.4,6.6,16.5Z"/><path class="cls-7" d="M164.3,257.9s-1.2,1.8-1.6,3.9c-6.1-6.5-9.9-15.2-10.1-24.7.2.3,2.8,3.7,5.5,5.6,0,0,2.1,8.7,6.2,15.2Z"/><path class="cls-7" d="M220.2,258.6c.4-2.5-.7-5.6-.7-5.6,4.9-7,5.1-16.7,5.1-16.7,0,0,1.4-4.2,2.7-5.4.3,1.8.4,3.5.4,5.4,0,8.4-2.8,16.1-7.4,22.4Z"/><path class="cls-8" d="M184.4,270.4s-3,1.4-5.6,1.6h0c-6.2-2-11.7-5.5-16.1-10.2h0c.4-2.1,1.6-3.9,1.6-3.9,0,0,5.5,3.5,12.6,3.9,0,0,3.8,5.3,7.5,8.6Z"/><path class="cls-8" d="M220.2,258.6h0c-3.5,4.7-8.1,8.6-13.4,11.2-2,0-4.3-.8-4.3-.8h-.2c0,0,0,0,.1-.1,0,0,0,0,0,0h0s0,0,0,0c.2-.2.5-.4.6-.6l7.4-9.6h0c.2-.1,7.6-3.7,9-5.6,0,0,1.1,3.1.7,5.6Z"/><path class="cls-7" d="M206.8,269.8c-5,2.5-10.7,3.9-16.7,3.9s-7.7-.6-11.3-1.7c2.6-.2,5.6-1.6,5.6-1.6,0,0,10.3,1.8,17.5-1.2.1,0,.3-.1.4-.2h.2s2.3.8,4.3.9Z"/><path class="cls-7" d="M186.3,250.9s-8,11-9.4,10.9c-7.2-.4-12.6-3.9-12.6-3.9-4.1-6.5-6.2-15.2-6.2-15.2,3.2-2.8,7.9-10,7.9-10,0,0,12.5,3,14.6,4.3,0,0,4.1,11.2,5.8,13.9Z"/><path class="cls-7" d="M217,227.4h0s0,0,0,0c0,0,0,0,0,0,0,0,0,0,0,0,0,0,0,0,0,0,0,0,0,0,0,0,0,0,0,0,0,0,0,0,0,0-.1.1s0,0-.2.1c0,0,0,0-.1.1,0,0-.2.1-.3.2s-.2.1-.3.2c0,0-.1,0-.2.1-.1,0-.2.2-.4.2-.1,0-.2.1-.3.2,0,0,0,0-.1,0,0,0-.1,0-.2.1-.2.1-.4.2-.6.3-.5.3-1.1.6-1.7.9-.3.2-.6.3-.9.5-1.7.9-3.3,1.7-4.1,2.1,0,0-.1,0-.2.1,0,0,0,0-.1,0,0,0,0,0,0,0,0,0-.1,0-.1,0-8.3-6.1-14.4-7.7-14.4-7.7,0,0,.1-8.2-2-15.1,6.9-2.8,11.2-5.8,11.2-5.8,0,0,8,2,14.2,8.9,0,0,1.3,5.3,1.3,13.6Z"/><path class="cls-7" d="M210.6,258.5v.2h-.1s-7.4,9.6-7.4,9.6c-.2.2-.4.4-.6.6,0,0,0,0,0,0h0s0,0,0,0c0,0,0,0-.1,0-.1,0-.3.2-.4.2-7.1,3-17.5,1.2-17.5,1.2-3.6-3.3-7.5-8.6-7.5-8.6,1.4,0,9.4-10.9,9.4-10.9,7.1.8,17.6-1.4,17.6-1.4,0,0,3.8,4.9,6.8,8.9Z"/><path class="cls-8" d="M203.9,249.5s-10.4,2.2-17.6,1.4c-1.7-2.6-5.8-13.9-5.8-13.9,3.9-6.3,11.8-11.3,11.8-11.3,0,0,6.1,1.6,14.4,7.7,0,0,.8,5.9-2.9,16.1Z"/><path class="cls-7" d="M224.5,236.3s-.2,9.8-5.1,16.7c-1.4,1.9-8.8,5.5-9,5.6v-.2c-2.9-4-6.6-8.9-6.6-8.9,3.6-10.2,2.9-16.1,2.9-16.1,0,0,0,0,.1,0,0,0,0,0,0,0,0,0,0,0,.1,0,0,0,.1,0,.2-.1.8-.4,2.4-1.2,4.1-2.1.3-.2.6-.3.9-.5.6-.3,1.1-.6,1.7-.9.2-.1.4-.2.6-.3,0,0,.1,0,.2-.1,0,0,0,0,.1,0,.1,0,.2-.1.3-.2.1,0,.2-.2.4-.2,0,0,.1,0,.2-.1.1,0,.2-.1.3-.2s.2-.1.3-.2c0,0,0,0,.1-.1,0,0,.1,0,.2-.1s0,0,.1-.1c0,0,0,0,0,0,0,0,0,0,0,0,0,0,0,0,0,0,0,0,0,0,0,0,0,0,0,0,0,0,0,0,0,0,0,0,0,0,0,0,0,0h0s0,0,0,0c0,0,0,0,0,0,0,0,0,0,0,0,0,0,0,0,0,.1,0,0,0,0,.1.1,0,0,0,0,.1.1,0,0,0,0,0,0,0,0,0,.1.1.2,0,0,.1.1.2.2,0,0,.1.1.2.2.4.5.9,1.1,1.4,1.7.1.1.2.3.3.4.4.5.8,1,1.3,1.5.2.2.4.4.5.6,0,0,.1.1.2.2.1.2.3.3.4.5.5.6,1.1,1.3,1.6,1.8.2.2.4.4.6.6,0,0,0,.1.1.2,0,0,0,.1.1.1Z"/><path class="cls-6" d="M152.6,237.1s0,0,0,0"/><line class="cls-6" x1="227.2" y1="230.9" x2="227.2" y2="230.9"/><g class="cls-1"><path class="cls-4" d="M209,203.9c-2.8-.1-5.5,0-8.1.1-7.2.5-13.1,1.9-18.1,4.1-8.5,3.7-14.1,9.5-17.7,16-3.2,5.6-4.8,11.7-5.6,17.2-.2,1.6-.4,3.2-.5,4.8-.3,4.8-.1,8.8.1,11.4,6.8,9.9,18.1,16.3,31,16.3,20.7,0,37.5-16.8,37.5-37.5s-7.5-25.9-18.6-32.4Z"/></g><path class="cls-3" d="M227.2,230.9c-.6-3.9-1.7-7.6-3.4-11.1-.5,4.8-1.4,9-2.4,12.9-2.8,10.5-7.4,17.9-12.7,23.2-8.4,8.2-18.7,11-27.3,11.6-5.2.4-9.8,0-12.9-.6,3.1,2.2,6.6,3.9,10.3,5.1h0c3.6,1.1,7.4,1.7,11.3,1.7,6,0,11.7-1.4,16.7-3.9,5.3-2.6,9.9-6.5,13.4-11.2,4.7-6.2,7.4-14,7.4-22.4s-.1-3.6-.4-5.4Z"/><path class="cls-7" d="M431.5,200.5s-1.9,3.3-2.4,6.4c0,0-7.3,4.9-12.1,11.7,0,0-4.5,0-8.2,1.9,4.4-9.5,12.6-16.8,22.7-20Z"/><path class="cls-8" d="M454.2,204.9s-4.3,3-11.2,5.8c0,0-7.8-3.5-13.9-3.8.6-3.1,2.4-6.4,2.4-6.4,3.6-1.1,7.4-1.7,11.3-1.7s4.9.2,7.3.7c2.8,2.7,4.1,5.5,4.1,5.5Z"/><path class="cls-7" d="M473.3,214.4c-1.9-.4-4.9-.6-4.9-.6-6.2-6.9-14.2-8.9-14.2-8.9,0,0-1.4-2.8-4.1-5.5,9.5,1.9,17.8,7.4,23.2,15Z"/><path class="cls-8" d="M418.7,232.8s-4.6,7.2-7.9,10c-2.7-1.9-5.3-5.4-5.5-5.6,0-.3,0-.6,0-.9,0-5.7,1.2-11,3.5-15.8,3.6-1.9,8.2-1.9,8.2-1.9,0,0,1.4,6.9,1.7,14.2Z"/><path class="cls-7" d="M445,225.8s-7.8,5-11.8,11.3c-2.1-1.3-14.6-4.3-14.6-4.3-.3-7.3-1.7-14.2-1.7-14.2,4.8-6.7,12.1-11.7,12.1-11.7,6.2.3,13.9,3.8,13.9,3.8,2.1,6.9,2,15.1,2,15.1Z"/><path class="cls-8" d="M479.9,230.9c-1.2,1.2-2.7,5.4-2.7,5.4,0,0,0,0-.1-.1,0,0,0-.1-.1-.2-.2-.2-.4-.4-.6-.6-.5-.6-1.1-1.2-1.6-1.8-.1-.2-.3-.3-.4-.5,0,0-.1-.1-.2-.2-.2-.2-.4-.4-.5-.6-.4-.5-.9-1-1.3-1.5-.1-.1-.2-.3-.3-.4-.5-.6-1-1.2-1.4-1.7,0,0-.1-.1-.2-.2,0,0-.1-.2-.2-.2,0,0,0-.1-.1-.2,0,0,0,0,0,0,0,0,0,0-.1-.1,0,0,0,0-.1-.1,0,0,0,0,0-.1,0,0,0,0,0,0,0,0,0,0,0,0,0,0,0,0,0,0,0,0,0,0,0,0h0c0-8.3-1.3-13.6-1.3-13.6,0,0,3,.3,4.9.6,3.4,4.8,5.8,10.4,6.6,16.5Z"/><path class="cls-7" d="M417,257.9s-1.2,1.8-1.6,3.9c-6.1-6.5-9.9-15.2-10.1-24.7.2.3,2.8,3.7,5.5,5.6,0,0,2.1,8.7,6.2,15.2Z"/><path class="cls-7" d="M472.9,258.6c.4-2.5-.7-5.6-.7-5.6,4.9-7,5.1-16.7,5.1-16.7,0,0,1.4-4.2,2.7-5.4.3,1.8.4,3.5.4,5.4,0,8.4-2.8,16.1-7.4,22.4Z"/><path class="cls-8" d="M437.1,270.4s-3,1.4-5.6,1.6h0c-6.2-2-11.7-5.5-16.1-10.2h0c.4-2.1,1.6-3.9,1.6-3.9,0,0,5.5,3.5,12.6,3.9,0,0,3.8,5.3,7.5,8.6Z"/><path class="cls-8" d="M472.9,258.6h0c-3.5,4.7-8.1,8.6-13.4,11.2-2,0-4.3-.8-4.3-.8h-.2c0,0,0,0,.1-.1,0,0,0,0,0,0h0s0,0,0,0c.2-.2.5-.4.6-.6l7.4-9.6h0c.2-.1,7.6-3.7,9-5.6,0,0,1.1,3.1.7,5.6Z"/><path class="cls-7" d="M459.5,269.8c-5,2.5-10.7,3.9-16.7,3.9s-7.7-.6-11.3-1.7c2.6-.2,5.6-1.6,5.6-1.6,0,0,10.3,1.8,17.5-1.2.1,0,.3-.1.4-.2h.2s2.3.8,4.3.9Z"/><path class="cls-7" d="M439,250.9s-8,11-9.4,10.9c-7.2-.4-12.6-3.9-12.6-3.9-4.1-6.5-6.2-15.2-6.2-15.2,3.2-2.8,7.9-10,7.9-10,0,0,12.5,3,14.6,4.3,0,0,4.1,11.2,5.8,13.9Z"/><path class="cls-7" d="M469.7,227.4h0s0,0,0,0c0,0,0,0,0,0,0,0,0,0,0,0,0,0,0,0,0,0,0,0,0,0,0,0,0,0,0,0,0,0,0,0,0,0-.1.1s0,0-.2.1c0,0,0,0-.1.1,0,0-.2.1-.3.2s-.2.1-.3.2c0,0-.1,0-.2.1-.1,0-.2.2-.4.2-.1,0-.2.1-.3.2,0,0,0,0-.1,0,0,0-.1,0-.2.1-.2.1-.4.2-.6.3-.5.3-1.1.6-1.7.9-.3.2-.6.3-.9.5-1.7.9-3.3,1.7-4.1,2.1,0,0-.1,0-.2.1,0,0,0,0-.1,0,0,0,0,0,0,0,0,0-.1,0-.1,0-8.3-6.1-14.4-7.7-14.4-7.7,0,0,.1-8.2-2-15.1,6.9-2.8,11.2-5.8,11.2-5.8,0,0,8,2,14.2,8.9,0,0,1.3,5.3,1.3,13.6Z"/><path class="cls-7" d="M463.3,258.5v.2h-.1s-7.4,9.6-7.4,9.6c-.2.2-.4.4-.6.6,0,0,0,0,0,0h0s0,0,0,0c0,0,0,0-.1,0-.1,0-.3.2-.4.2-7.1,3-17.5,1.2-17.5,1.2-3.6-3.3-7.5-8.6-7.5-8.6,1.4,0,9.4-10.9,9.4-10.9,7.1.8,17.6-1.4,17.6-1.4,0,0,3.8,4.9,6.8,8.9Z"/><path class="cls-8" d="M456.6,249.5s-10.4,2.2-17.6,1.4c-1.7-2.6-5.8-13.9-5.8-13.9,3.9-6.3,11.8-11.3,11.8-11.3,0,0,6.1,1.6,14.4,7.7,0,0,.8,5.9-2.9,16.1Z"/><path class="cls-7" d="M477.3,236.3s-.2,9.8-5.1,16.7c-1.4,1.9-8.8,5.5-9,5.6v-.2c-2.9-4-6.6-8.9-6.6-8.9,3.6-10.2,2.9-16.1,2.9-16.1,0,0,0,0,.1,0,0,0,0,0,0,0,0,0,0,0,.1,0,0,0,.1,0,.2-.1.8-.4,2.4-1.2,4.1-2.1.3-.2.6-.3.9-.5.6-.3,1.1-.6,1.7-.9.2-.1.4-.2.6-.3,0,0,.1,0,.2-.1,0,0,0,0,.1,0,.1,0,.2-.1.3-.2.1,0,.2-.2.4-.2,0,0,.1,0,.2-.1.1,0,.2-.1.3-.2s.2-.1.3-.2c0,0,0,0,.1-.1,0,0,.1,0,.2-.1s0,0,.1-.1c0,0,0,0,0,0,0,0,0,0,0,0,0,0,0,0,0,0,0,0,0,0,0,0,0,0,0,0,0,0,0,0,0,0,0,0,0,0,0,0,0,0h0s0,0,0,0c0,0,0,0,0,0,0,0,0,0,0,0,0,0,0,0,0,.1,0,0,0,0,.1.1,0,0,0,0,.1.1,0,0,0,0,0,0,0,0,0,.1.1.2,0,0,.1.1.2.2,0,0,.1.1.2.2.4.5.9,1.1,1.4,1.7.1.1.2.3.3.4.4.5.8,1,1.3,1.5.2.2.4.4.5.6,0,0,.1.1.2.2.1.2.3.3.4.5.5.6,1.1,1.3,1.6,1.8.2.2.4.4.6.6,0,0,0,.1.1.2,0,0,0,.1.1.1Z"/><path class="cls-6" d="M405.3,237.1s0,0,0,0"/><line class="cls-6" x1="479.9" y1="230.9" x2="479.9" y2="230.9"/><g class="cls-1"><path class="cls-4" d="M461.8,203.9c-2.8-.1-5.5,0-8.1.1-7.2.5-13.1,1.9-18.1,4.1-8.5,3.7-14.1,9.5-17.7,16-3.2,5.6-4.8,11.7-5.6,17.2-.2,1.6-.4,3.2-.5,4.8-.3,4.8-.1,8.8.1,11.4,6.8,9.9,18.1,16.3,31,16.3,20.7,0,37.5-16.8,37.5-37.5s-7.5-25.9-18.6-32.4Z"/></g><path class="cls-3" d="M479.9,230.9c-.6-3.9-1.7-7.6-3.4-11.1-.5,4.8-1.4,9-2.4,12.9-2.8,10.5-7.4,17.9-12.7,23.2-8.4,8.2-18.7,11-27.3,11.6-5.2.4-9.8,0-12.9-.6,3.1,2.2,6.6,3.9,10.3,5.1h0c3.6,1.1,7.4,1.7,11.3,1.7,6,0,11.7-1.4,16.7-3.9,5.3-2.6,9.9-6.5,13.4-11.2,4.7-6.2,7.4-14,7.4-22.4s-.1-3.6-.4-5.4Z"/><path class="cls-7" d="M431.5,123s-1.9,3.3-2.4,6.4c0,0-7.3,4.9-12.1,11.7,0,0-4.5,0-8.2,1.9,4.4-9.5,12.6-16.8,22.7-20Z"/><path class="cls-8" d="M454.2,127.4s-4.3,3-11.2,5.8c0,0-7.8-3.5-13.9-3.8.6-3.1,2.4-6.4,2.4-6.4,3.6-1.1,7.4-1.7,11.3-1.7s4.9.2,7.3.7c2.8,2.7,4.1,5.5,4.1,5.5Z"/><path class="cls-7" d="M473.3,136.9c-1.9-.4-4.9-.6-4.9-.6-6.2-6.9-14.2-8.9-14.2-8.9,0,0-1.4-2.8-4.1-5.5,9.5,1.9,17.8,7.4,23.2,15Z"/><path class="cls-8" d="M418.7,155.2s-4.6,7.2-7.9,10c-2.7-1.9-5.3-5.4-5.5-5.6,0-.3,0-.6,0-.9,0-5.7,1.2-11,3.5-15.8,3.6-1.9,8.2-1.9,8.2-1.9,0,0,1.4,6.9,1.7,14.2Z"/><path class="cls-7" d="M445,148.2s-7.8,5-11.8,11.3c-2.1-1.3-14.6-4.3-14.6-4.3-.3-7.3-1.7-14.2-1.7-14.2,4.8-6.7,12.1-11.7,12.1-11.7,6.2.3,13.9,3.8,13.9,3.8,2.1,6.9,2,15.1,2,15.1Z"/><path class="cls-8" d="M479.9,153.3c-1.2,1.2-2.7,5.4-2.7,5.4,0,0,0,0-.1-.1,0,0,0-.1-.1-.2-.2-.2-.4-.4-.6-.6-.5-.6-1.1-1.2-1.6-1.8-.1-.2-.3-.3-.4-.5,0,0-.1-.1-.2-.2-.2-.2-.4-.4-.5-.6-.4-.5-.9-1-1.3-1.5-.1-.1-.2-.3-.3-.4-.5-.6-1-1.2-1.4-1.7,0,0-.1-.1-.2-.2,0,0-.1-.2-.2-.2,0,0,0-.1-.1-.2,0,0,0,0,0,0,0,0,0,0-.1-.1,0,0,0,0-.1-.1,0,0,0,0,0-.1,0,0,0,0,0,0,0,0,0,0,0,0,0,0,0,0,0,0,0,0,0,0,0,0h0c0-8.3-1.3-13.6-1.3-13.6,0,0,3,.3,4.9.6,3.4,4.8,5.8,10.4,6.6,16.5Z"/><path class="cls-7" d="M417,180.4s-1.2,1.8-1.6,3.9c-6.1-6.5-9.9-15.2-10.1-24.7.2.3,2.8,3.7,5.5,5.6,0,0,2.1,8.7,6.2,15.2Z"/><path class="cls-7" d="M472.9,181.1c.4-2.5-.7-5.6-.7-5.6,4.9-7,5.1-16.7,5.1-16.7,0,0,1.4-4.2,2.7-5.4.3,1.8.4,3.5.4,5.4,0,8.4-2.8,16.1-7.4,22.4Z"/><path class="cls-8" d="M437.1,192.9s-3,1.4-5.6,1.6h0c-6.2-2-11.7-5.5-16.1-10.2h0c.4-2.1,1.6-3.9,1.6-3.9,0,0,5.5,3.5,12.6,3.9,0,0,3.8,5.3,7.5,8.6Z"/><path class="cls-8" d="M472.9,181.1h0c-3.5,4.7-8.1,8.6-13.4,11.2-2,0-4.3-.8-4.3-.8h-.2c0,0,0,0,.1-.1,0,0,0,0,0,0h0s0,0,0,0c.2-.2.5-.4.6-.6l7.4-9.6h0c.2-.1,7.6-3.7,9-5.6,0,0,1.1,3.1.7,5.6Z"/><path class="cls-7" d="M459.5,192.3c-5,2.5-10.7,3.9-16.7,3.9s-7.7-.6-11.3-1.7c2.6-.2,5.6-1.6,5.6-1.6,0,0,10.3,1.8,17.5-1.2.1,0,.3-.1.4-.2h.2s2.3.8,4.3.9Z"/><path class="cls-7" d="M439,173.4s-8,11-9.4,10.9c-7.2-.4-12.6-3.9-12.6-3.9-4.1-6.5-6.2-15.2-6.2-15.2,3.2-2.8,7.9-10,7.9-10,0,0,12.5,3,14.6,4.3,0,0,4.1,11.2,5.8,13.9Z"/><path class="cls-7" d="M469.7,149.9h0s0,0,0,0c0,0,0,0,0,0,0,0,0,0,0,0,0,0,0,0,0,0,0,0,0,0,0,0,0,0,0,0,0,0,0,0,0,0-.1.1s0,0-.2.1c0,0,0,0-.1.1,0,0-.2.1-.3.2s-.2.1-.3.2c0,0-.1,0-.2.1-.1,0-.2.2-.4.2-.1,0-.2.1-.3.2,0,0,0,0-.1,0,0,0-.1,0-.2.1-.2.1-.4.2-.6.3-.5.3-1.1.6-1.7.9-.3.2-.6.3-.9.5-1.7.9-3.3,1.7-4.1,2.1,0,0-.1,0-.2.1,0,0,0,0-.1,0,0,0,0,0,0,0,0,0-.1,0-.1,0-8.3-6.1-14.4-7.7-14.4-7.7,0,0,.1-8.2-2-15.1,6.9-2.8,11.2-5.8,11.2-5.8,0,0,8,2,14.2,8.9,0,0,1.3,5.3,1.3,13.6Z"/><path class="cls-7" d="M463.3,180.9v.2h-.1s-7.4,9.6-7.4,9.6c-.2.2-.4.4-.6.6,0,0,0,0,0,0h0s0,0,0,0c0,0,0,0-.1,0-.1,0-.3.2-.4.2-7.1,3-17.5,1.2-17.5,1.2-3.6-3.3-7.5-8.6-7.5-8.6,1.4,0,9.4-10.9,9.4-10.9,7.1.8,17.6-1.4,17.6-1.4,0,0,3.8,4.9,6.8,8.9Z"/><path class="cls-8" d="M456.6,172s-10.4,2.2-17.6,1.4c-1.7-2.6-5.8-13.9-5.8-13.9,3.9-6.3,11.8-11.3,11.8-11.3,0,0,6.1,1.6,14.4,7.7,0,0,.8,5.9-2.9,16.1Z"/><path class="cls-7" d="M477.3,158.7s-.2,9.8-5.1,16.7c-1.4,1.9-8.8,5.5-9,5.6v-.2c-2.9-4-6.6-8.9-6.6-8.9,3.6-10.2,2.9-16.1,2.9-16.1,0,0,0,0,.1,0,0,0,0,0,0,0,0,0,0,0,.1,0,0,0,.1,0,.2-.1.8-.4,2.4-1.2,4.1-2.1.3-.2.6-.3.9-.5.6-.3,1.1-.6,1.7-.9.2-.1.4-.2.6-.3,0,0,.1,0,.2-.1,0,0,0,0,.1,0,.1,0,.2-.1.3-.2.1,0,.2-.2.4-.2,0,0,.1,0,.2-.1.1,0,.2-.1.3-.2s.2-.1.3-.2c0,0,0,0,.1-.1,0,0,.1,0,.2-.1s0,0,.1-.1c0,0,0,0,0,0,0,0,0,0,0,0,0,0,0,0,0,0,0,0,0,0,0,0,0,0,0,0,0,0,0,0,0,0,0,0,0,0,0,0,0,0h0s0,0,0,0c0,0,0,0,0,0,0,0,0,0,0,0,0,0,0,0,0,.1,0,0,0,0,.1.1,0,0,0,0,.1.1,0,0,0,0,0,0,0,0,0,.1.1.2,0,0,.1.1.2.2,0,0,.1.1.2.2.4.5.9,1.1,1.4,1.7.1.1.2.3.3.4.4.5.8,1,1.3,1.5.2.2.4.4.5.6,0,0,.1.1.2.2.1.2.3.3.4.5.5.6,1.1,1.3,1.6,1.8.2.2.4.4.6.6,0,0,0,.1.1.2,0,0,0,.1.1.1Z"/><path class="cls-6" d="M405.3,159.6s0,0,0,0"/><line class="cls-6" x1="479.9" y1="153.3" x2="479.9" y2="153.3"/><g class="cls-1"><path class="cls-4" d="M461.8,126.3c-2.8-.1-5.5,0-8.1.1-7.2.5-13.1,1.9-18.1,4.1-8.5,3.7-14.1,9.5-17.7,16-3.2,5.6-4.8,11.7-5.6,17.2-.2,1.6-.4,3.2-.5,4.8-.3,4.8-.1,8.8.1,11.4,6.8,9.9,18.1,16.3,31,16.3,20.7,0,37.5-16.8,37.5-37.5s-7.5-25.9-18.6-32.4Z"/></g><path class="cls-3" d="M479.9,153.3c-.6-3.9-1.7-7.6-3.4-11.1-.5,4.8-1.4,9-2.4,12.9-2.8,10.5-7.4,17.9-12.7,23.2-8.4,8.2-18.7,11-27.3,11.6-5.2.4-9.8,0-12.9-.6,3.1,2.2,6.6,3.9,10.3,5.1h0c3.6,1.1,7.4,1.7,11.3,1.7,6,0,11.7-1.4,16.7-3.9,5.3-2.6,9.9-6.5,13.4-11.2,4.7-6.2,7.4-14,7.4-22.4s-.1-3.6-.4-5.4Z"/><path class="cls-7" d="M178.8,123s-1.9,3.3-2.4,6.4c0,0-7.3,4.9-12.1,11.7,0,0-4.5,0-8.2,1.9,4.4-9.5,12.6-16.8,22.7-20Z"/><path class="cls-8" d="M201.5,127.4s-4.3,3-11.2,5.8c0,0-7.8-3.5-13.9-3.8.6-3.1,2.4-6.4,2.4-6.4,3.6-1.1,7.4-1.7,11.3-1.7s4.9.2,7.3.7c2.8,2.7,4.1,5.5,4.1,5.5Z"/><path class="cls-7" d="M220.6,136.9c-1.9-.4-4.9-.6-4.9-.6-6.2-6.9-14.2-8.9-14.2-8.9,0,0-1.4-2.8-4.1-5.5,9.5,1.9,17.8,7.4,23.2,15Z"/><path class="cls-8" d="M165.9,155.2s-4.6,7.2-7.9,10c-2.7-1.9-5.3-5.4-5.5-5.6,0-.3,0-.6,0-.9,0-5.7,1.2-11,3.5-15.8,3.6-1.9,8.2-1.9,8.2-1.9,0,0,1.4,6.9,1.7,14.2Z"/><path class="cls-7" d="M192.3,148.2s-7.8,5-11.8,11.3c-2.1-1.3-14.6-4.3-14.6-4.3-.3-7.3-1.7-14.2-1.7-14.2,4.8-6.7,12.1-11.7,12.1-11.7,6.2.3,13.9,3.8,13.9,3.8,2.1,6.9,2,15.1,2,15.1Z"/><path class="cls-8" d="M227.2,153.3c-1.2,1.2-2.7,5.4-2.7,5.4,0,0,0,0-.1-.1,0,0,0-.1-.1-.2-.2-.2-.4-.4-.6-.6-.5-.6-1.1-1.2-1.6-1.8-.1-.2-.3-.3-.4-.5,0,0-.1-.1-.2-.2-.2-.2-.4-.4-.5-.6-.4-.5-.9-1-1.3-1.5-.1-.1-.2-.3-.3-.4-.5-.6-1-1.2-1.4-1.7,0,0-.1-.1-.2-.2,0,0-.1-.2-.2-.2,0,0,0-.1-.1-.2,0,0,0,0,0,0,0,0,0,0-.1-.1,0,0,0,0-.1-.1,0,0,0,0,0-.1,0,0,0,0,0,0,0,0,0,0,0,0,0,0,0,0,0,0,0,0,0,0,0,0h0c0-8.3-1.3-13.6-1.3-13.6,0,0,3,.3,4.9.6,3.4,4.8,5.8,10.4,6.6,16.5Z"/><path class="cls-7" d="M164.3,180.4s-1.2,1.8-1.6,3.9c-6.1-6.5-9.9-15.2-10.1-24.7.2.3,2.8,3.7,5.5,5.6,0,0,2.1,8.7,6.2,15.2Z"/><path class="cls-7" d="M220.2,181.1c.4-2.5-.7-5.6-.7-5.6,4.9-7,5.1-16.7,5.1-16.7,0,0,1.4-4.2,2.7-5.4.3,1.8.4,3.5.4,5.4,0,8.4-2.8,16.1-7.4,22.4Z"/><path class="cls-8" d="M184.4,192.9s-3,1.4-5.6,1.6h0c-6.2-2-11.7-5.5-16.1-10.2h0c.4-2.1,1.6-3.9,1.6-3.9,0,0,5.5,3.5,12.6,3.9,0,0,3.8,5.3,7.5,8.6Z"/><path class="cls-8" d="M220.2,181.1h0c-3.5,4.7-8.1,8.6-13.4,11.2-2,0-4.3-.8-4.3-.8h-.2c0,0,0,0,.1-.1,0,0,0,0,0,0h0s0,0,0,0c.2-.2.5-.4.6-.6l7.4-9.6h0c.2-.1,7.6-3.7,9-5.6,0,0,1.1,3.1.7,5.6Z"/><path class="cls-7" d="M206.8,192.3c-5,2.5-10.7,3.9-16.7,3.9s-7.7-.6-11.3-1.7c2.6-.2,5.6-1.6,5.6-1.6,0,0,10.3,1.8,17.5-1.2.1,0,.3-.1.4-.2h.2s2.3.8,4.3.9Z"/><path class="cls-7" d="M186.3,173.4s-8,11-9.4,10.9c-7.2-.4-12.6-3.9-12.6-3.9-4.1-6.5-6.2-15.2-6.2-15.2,3.2-2.8,7.9-10,7.9-10,0,0,12.5,3,14.6,4.3,0,0,4.1,11.2,5.8,13.9Z"/><path class="cls-7" d="M217,149.9h0s0,0,0,0c0,0,0,0,0,0,0,0,0,0,0,0,0,0,0,0,0,0,0,0,0,0,0,0,0,0,0,0,0,0,0,0,0,0-.1.1s0,0-.2.1c0,0,0,0-.1.1,0,0-.2.1-.3.2s-.2.1-.3.2c0,0-.1,0-.2.1-.1,0-.2.2-.4.2-.1,0-.2.1-.3.2,0,0,0,0-.1,0,0,0-.1,0-.2.1-.2.1-.4.2-.6.3-.5.3-1.1.6-1.7.9-.3.2-.6.3-.9.5-1.7.9-3.3,1.7-4.1,2.1,0,0-.1,0-.2.1,0,0,0,0-.1,0,0,0,0,0,0,0,0,0-.1,0-.1,0-8.3-6.1-14.4-7.7-14.4-7.7,0,0,.1-8.2-2-15.1,6.9-2.8,11.2-5.8,11.2-5.8,0,0,8,2,14.2,8.9,0,0,1.3,5.3,1.3,13.6Z"/><path class="cls-7" d="M210.6,180.9v.2h-.1s-7.4,9.6-7.4,9.6c-.2.2-.4.4-.6.6,0,0,0,0,0,0h0s0,0,0,0c0,0,0,0-.1,0-.1,0-.3.2-.4.2-7.1,3-17.5,1.2-17.5,1.2-3.6-3.3-7.5-8.6-7.5-8.6,1.4,0,9.4-10.9,9.4-10.9,7.1.8,17.6-1.4,17.6-1.4,0,0,3.8,4.9,6.8,8.9Z"/><path class="cls-8" d="M203.9,172s-10.4,2.2-17.6,1.4c-1.7-2.6-5.8-13.9-5.8-13.9,3.9-6.3,11.8-11.3,11.8-11.3,0,0,6.1,1.6,14.4,7.7,0,0,.8,5.9-2.9,16.1Z"/><path class="cls-7" d="M224.5,158.7s-.2,9.8-5.1,16.7c-1.4,1.9-8.8,5.5-9,5.6v-.2c-2.9-4-6.6-8.9-6.6-8.9,3.6-10.2,2.9-16.1,2.9-16.1,0,0,0,0,.1,0,0,0,0,0,0,0,0,0,0,0,.1,0,0,0,.1,0,.2-.1.8-.4,2.4-1.2,4.1-2.1.3-.2.6-.3.9-.5.6-.3,1.1-.6,1.7-.9.2-.1.4-.2.6-.3,0,0,.1,0,.2-.1,0,0,0,0,.1,0,.1,0,.2-.1.3-.2.1,0,.2-.2.4-.2,0,0,.1,0,.2-.1.1,0,.2-.1.3-.2s.2-.1.3-.2c0,0,0,0,.1-.1,0,0,.1,0,.2-.1s0,0,.1-.1c0,0,0,0,0,0,0,0,0,0,0,0,0,0,0,0,0,0,0,0,0,0,0,0,0,0,0,0,0,0,0,0,0,0,0,0,0,0,0,0,0,0h0s0,0,0,0c0,0,0,0,0,0,0,0,0,0,0,0,0,0,0,0,0,.1,0,0,0,0,.1.1,0,0,0,0,.1.1,0,0,0,0,0,0,0,0,0,.1.1.2,0,0,.1.1.2.2,0,0,.1.1.2.2.4.5.9,1.1,1.4,1.7.1.1.2.3.3.4.4.5.8,1,1.3,1.5.2.2.4.4.5.6,0,0,.1.1.2.2.1.2.3.3.4.5.5.6,1.1,1.3,1.6,1.8.2.2.4.4.6.6,0,0,0,.1.1.2,0,0,0,.1.1.1Z"/><path class="cls-6" d="M152.6,159.6s0,0,0,0"/><line class="cls-6" x1="227.2" y1="153.3" x2="227.2" y2="153.3"/><g class="cls-1"><path class="cls-4" d="M209,126.3c-2.8-.1-5.5,0-8.1.1-7.2.5-13.1,1.9-18.1,4.1-8.5,3.7-14.1,9.5-17.7,16-3.2,5.6-4.8,11.7-5.6,17.2-.2,1.6-.4,3.2-.5,4.8-.3,4.8-.1,8.8.1,11.4,6.8,9.9,18.1,16.3,31,16.3,20.7,0,37.5-16.8,37.5-37.5s-7.5-25.9-18.6-32.4Z"/></g><path class="cls-3" d="M227.2,153.3c-.6-3.9-1.7-7.6-3.4-11.1-.5,4.8-1.4,9-2.4,12.9-2.8,10.5-7.4,17.9-12.7,23.2-8.4,8.2-18.7,11-27.3,11.6-5.2.4-9.8,0-12.9-.6,3.1,2.2,6.6,3.9,10.3,5.1h0c3.6,1.1,7.4,1.7,11.3,1.7,6,0,11.7-1.4,16.7-3.9,5.3-2.6,9.9-6.5,13.4-11.2,4.7-6.2,7.4-14,7.4-22.4s-.1-3.6-.4-5.4Z"/></svg>