<?xml version="1.0" encoding="UTF-8"?><svg id="Layer_1" xmlns="http://www.w3.org/2000/svg" width="42.5" height="13.4" viewBox="0 0 42.5 13.4"><defs><style>.cls-1{fill:#492305;}.cls-1,.cls-2{stroke:#000;stroke-width:.5px;}.cls-1,.cls-2,.cls-3{stroke-linecap:round;stroke-linejoin:round;}.cls-2{fill:#6b3d18;}.cls-3{fill:none;stroke-width:.5px;}.cls-3,.cls-4{stroke:#fff;}.cls-4{fill:#e5bb07;stroke-miterlimit:10;stroke-width:.4px;}.cls-5{opacity:.2;}.cls-6{fill-rule:evenodd;}.cls-6,.cls-7,.cls-8{stroke-width:0px;}.cls-6,.cls-8{fill:#1d58a0;}</style></defs><path class="cls-1" d="M42.1,13c-.3.4-2.9,0-4-.7,0,0,0,0,0,0h0V1.4h-.2c1-.5,3.7-1.4,4.1-1,.4.4-.9,1.7-1.1,2,.5.4,1,.8,1.3,1.4-.5.4-1.1,1.1-1.6,1.5.5.4,1.8,1.6,1.8,1.6,0,0-.9,1-1.6,1.5.4.4,1.2,1.2,1.6,1.6-.5.4-1,.9-1.5,1.3.7.4,1.3,1.4,1.3,1.8Z"/><path class="cls-2" d="M38,12.3h0s-33.3,0-33.3,0c0,0,0,0,0,0h0V1.4h33.3v10.9h0c0,0,0,0,0,0Z"/><path class="cls-1" d="M4.6,1.4v10.9h0c0,.1,0,.1,0,.1-1,.6-3.9.9-4.1.6.1-.4.9-1.3,1.3-1.8-.5-.4-.9-.8-1.3-1.3.4-.4,1-1.3,1.4-1.8-.7-.5-1.3-1.6-1.3-1.7,0,0,.7-.8,1.2-1.2-.4-.4-1.1-1.2-1.5-1.6.3-.5.7-1,1.2-1.4C1.2,2,0,.7.4.3c.4-.4,2.9.5,3.9,1h.3Z"/><line class="cls-3" x1="38" y1="1.4" x2="38" y2="12.4"/><line class="cls-3" x1="4.6" y1="1.4" x2="4.6" y2="12.4"/><rect class="cls-4" x="9.6" y="2.5" width="23.3" height="8.8" rx="4.2" ry="4.2"/><g class="cls-5"><path class="cls-7" d="M37.1,12.4H5.4c-1.1.6-4.3,1-4.6.6v-.6c.2,0,.2-.5,1.2-1.3,1.5-1.2,2.9-3.9,2.7-7.3.2,0,.2,1.3.5,1.3,0,.8-.2,3.1,0,3.8.2.7.5,1.1,1.2,1.5.8.4,1.9.4,2.8.4,8.4,0,16.8,0,25.2.1.7,0,1.4,0,1.9-.3.6-.4.7-.9.7-1.5,0-.4.5-2.3.7-3.5.1,1.4.6,3.9,1.6,4.8.9.8,1.7,1.1,2.7,2.3h0c-.4.5-2.4.7-5.1-.3Z"/></g><path class="cls-6" d="M15.3,5.9c0,.3-.2.5-.6.5h-.8v-1.1h.8c.4,0,.6.3.6.5ZM16.7,5.9c0-.9-.7-1.7-1.9-1.7h-2.2v5.4h1.4v-1.9h.8c1.2,0,1.9-.8,1.9-1.7Z"/><polygon class="cls-8" points="25.9 9.6 22.1 9.6 22.1 4.2 25.9 4.2 30 4.2 30 5.4 28.6 5.4 28.6 9.6 27.2 9.6 27.2 5.4 25.9 5.4 23.5 5.4 23.5 6.3 25.5 6.3 25.5 7.5 23.5 7.5 23.5 8.4 25.9 8.4 25.9 9.6"/><path class="cls-8" d="M20.4,5.7c-.7-.4-1.6,0-1.6,0v-1.5h-1.5v5.4h1.5s0-2.1,0-2.1h0s0,0,0,0c0-.3.3-.6.6-.6s.6.3.6.6,0,0,0,0h0v2.1h1.4s0,.2,0-2,0-1.5-.9-1.9Z"/></svg>