<?xml version="1.0" encoding="UTF-8"?><svg id="Layer_1" xmlns="http://www.w3.org/2000/svg" width="410" height="120" viewBox="0 0 410 120"><defs><style>.cls-1{fill:#646464;stroke-width:0px;}</style></defs><path class="cls-1" d="M220.5,116.8c.1,0,.2,0,.3,0-.1,0-.2,0-.3,0Z"/><path class="cls-1" d="M28.4,2.6s0,0,.2,0c0,0,0,0-.2,0Z"/><path class="cls-1" d="M233,116.8c.1,0,.3,0,.5,0h-.5Z"/><path class="cls-1" d="M322.1,117.4s.1,0,.2,0c0,0,0,0-.2,0Z"/><path class="cls-1" d="M262.2,117c.6,0,1.1,0,1.5,0-.3,0-.7,0-1.5,0Z"/><path class="cls-1" d="M324.4,117.2c-.9,0-1.5,0-1.9,0,.6,0,1.2,0,1.9,0Z"/><path class="cls-1" d="M94.1,2.5c-.2,0-.3,0-.5,0,0,0,.2,0,.5,0Z"/><path class="cls-1" d="M322.6,117.2c-1.1,0-2.1-.2-3.5,0-.7,0,1-.2-.6-.2-1.5.1.8.4,3.5.4,0,0,0,0,.1,0-.1,0,0-.1.5-.2Z"/><path class="cls-1" d="M43.1,2.5c0,0-.1,0-.2,0,0,0,.2,0,.3,0,0,0,0,0,0,0Z"/><path class="cls-1" d="M.5,5.6c0,.1,0,.3,0,.5,0-.2,0-.3,0-.5Z"/><path class="cls-1" d="M.2,29.8c0,0,0-.1,0-.2,0-.4,0-.9,0-1.3,0,.6,0,.9,0,1.5Z"/><path class="cls-1" d="M324.2,117.4c.2,0,1.1.1,1.2,0,.4,0,.3-.1,1.2-.1-.7,0-1.5,0-2.4,0Z"/><path class="cls-1" d="M313.7,117.2c-2.3,0-6.2.1-6.4.2l6.4-.2Z"/><path class="cls-1" d="M290.4,116.9c.4,0,1.1,0,.9-.1-2,0-2.4,0-.9.1Z"/><path class="cls-1" d="M286.7,117.1c-.1,0-.2,0-.3,0,0,0,.1,0,.3,0Z"/><path class="cls-1" d="M286.7,117.1c.6,0,1.3,0,2.4,0,.4-.2-1.6,0-2.4,0Z"/><path class="cls-1" d="M248.9,116.8c.8.1,2.7,0,3.6,0,.7-.2-2.7,0-3.6,0Z"/><path class="cls-1" d="M234,117c.6,0,.9,0,1.4,0h-.5c-.9-.1-1.9,0-.9,0Z"/><polygon class="cls-1" points="2.2 40 2.3 40.2 2.3 38.4 2.2 40"/><path class="cls-1" d="M103.6,2.5c2.2,0,0,.1,1.6.1-.3,0,.3-.2-1.6-.1Z"/><path class="cls-1" d="M409.8,90.2c0,0,0,.1,0,.2,0,.4,0,.9,0,1.3,0-.6,0-.9,0-1.5Z"/><path class="cls-1" d="M409.5,114.4c0-.1,0-.3,0-.5,0,.2,0,.3,0,.5Z"/><path class="cls-1" d="M177,3.2c-.1,0-.3,0-.5,0h.5Z"/><path class="cls-1" d="M189.5,3.2c-.1,0-.2,0-.3,0,.1,0,.2,0,.3,0Z"/><path class="cls-1" d="M366.9,117.5c0,0,.1,0,.2,0,0,0-.2,0-.3,0,0,0,0,0,0,0Z"/><path class="cls-1" d="M147.8,3c-.6,0-1.1,0-1.5,0,.3,0,.7,0,1.5,0Z"/><path class="cls-1" d="M315.9,117.5c.2,0,.3,0,.5,0,0,0-.2,0-.5,0Z"/><path class="cls-1" d="M381.6,117.4s0,0-.2,0c0,0,0,0,.2,0Z"/><path class="cls-1" d="M409.9,70c0-.5,0-1-.1-1.5,0-4.9.1-9.8.2-14.9,0-7.8-.1-18.1,0-25.3,0-3.8,0-7.6,0-11.4v-5.7s0-2.8,0-2.8v-1.4c0-.6,0-1.2-.2-1.8-.6-2.4-2.6-4.3-5-4.8-.3,0-.6-.1-.9-.1h-.5s-.4,0-.4,0h-1.4s-2.8,0-2.8,0c-3.8,0-7.5,0-11.3,0-15.1,0-30.2-.2-45.4,0,1.6,0,0,.2-1.7.2h-.4c0,0-2.4,0-2.4,0-2.3,0-1.3-.2.6-.2-12.1,0-23,0-34.8,0-.8.2-6.2,0-6.6.3-.6,0,0,0,.3-.1-8.2.1-8.8.1-16.3-.2-31.9-.2-62.7,0-94.2-.1-31.8.1-63.1.2-95.7.3-5,.4-11.8.2-17.8.5h.4c-5,0-6.3-.1-12.7-.3,0,.1-2.5,0-1.5.3-2.2.2-4-.3-7.2-.2-.1,0,0,.1-.6,0-8.3.3,1.6-.1-8.9-.3-7.3,0-14.7.1-22,.2-3.7,0-7.3,0-10.9,0-.9,0-1.8,0-2.7,0h-.7c0,0,0,0,0,0-.5,0-1.1,0-1.6.2-.1,0-.2,0-.3,0,0,0-.1,0-.2,0-.1,0-.3,0-.4.2C2.2,1.9.9,3.7.5,5.6c0-.2.1-.4.2-.4,0,0,0,0,0,0,0,.4-.2.7-.2,1.1v.6c0,.3,0,.6,0,.9,0,.6,0,1.2,0,1.9,0,.3,0,.6,0,.9,0,1,0,2.1,0,3.1,0-.3,0-1.4-.1-2-.1,6.4,0,11.8,0,17.9.2,5.8-.2,12.5,0,16.5,0,0,0,0,0,0-.1-.8-.1,2.6-.2,3.9,0,.5,0,1,.1,1.5,0,4.9-.1,9.8-.2,14.9,0,7.8.1,18.1,0,25.3,0,3.8,0,7.6,0,11.4v5.7s0,2.8,0,2.8v1.4c0,.6,0,1.2.2,1.8.6,2.4,2.6,4.3,5,4.8.3,0,.6.1.9.1h.5s.4,0,.4,0h1.4s2.8,0,2.8,0c3.8,0,7.5,0,11.3,0,15.1,0,30.2.2,45.4,0-1.6,0,0-.2,1.7-.2h.4c0,0,2.4,0,2.4,0,2.3,0,1.3.2-.6.2,12.1,0,23,0,34.8,0,.8-.2,6.2,0,6.6-.3.6,0,0,0-.3.1,8.2-.1,8.8-.1,16.3.2,31.9.2,62.7,0,94.2.1,31.8-.1,63.1-.2,95.7-.3,5-.4,11.8-.2,17.8-.5h-.4c5,0,6.3.1,12.7.3,0-.1,2.5,0,1.5-.3,2.2-.2,4,.3,7.2.2.1,0,0-.1.6,0,8.3-.3-1.6.1,8.9.3,7.3,0,14.7-.1,22-.2,3.7,0,7.3,0,10.9,0,.9,0,1.8,0,2.7,0h.7c0,0,0,0,0,0,.5,0,1.1,0,1.6-.2.1,0,.2,0,.3,0,0,0,.1,0,.2,0,.1,0,.3,0,.4-.2,1.8-.8,3.2-2.5,3.6-4.5,0,.2-.1.4-.2.4,0,0,0,0,0,0,0-.4.2-.7.2-1.1v-.6c0-.3,0-.6,0-.9,0-.6,0-1.2,0-1.9,0-.3,0-.6,0-.9,0-1,0-2.1,0-3.1,0,.3,0,1.4.1,2,.1-6.4,0-11.8,0-17.9-.2-5.8.2-12.5,0-16.5,0,0,0,0,0-.1.1.8.1-2.6.2-3.9ZM49.7,2.4c-.4,0-.9,0-1.5,0,.5,0,1.1,0,1.5,0ZM360.3,117.6c.4,0,.9,0,1.5,0-.5,0-1.1,0-1.5,0ZM397.4,117.3c-2.1.3-5.9-.1-6.2.2,0,0-.4,0-.6-.1-1.4,0-2.5.3-4.2.3l.6-.2c.4-.3-4.2,0-5.3-.2,1,.1-2.1,0-2.3.1h-2c-3.3.1-.4.2-4.4.2-2.3,0-.8-.3,0-.2-1.9-.1-3.8,0-5.8,0,.7,0,.9,0,.3,0,0,0-.2,0-.4,0-.8,0-1.5,0-2.3,0,0,0,0,0,0,0,.8,0,1.6,0,2.2,0-.5,0-1.3,0-2.1,0,0,0-.3,0-.7,0-.6,0-1.2,0-1.6,0l.6-.2c-1.4,0-5.3.2-5.2.3-5.5-.1-14.6,0-18.3,0,.7,0,.8,0,0,0-.7,0-1.4,0-2.1,0,0,0,0,0-.1,0-.6,0-1.3,0-1.9,0,0,0,0,0-.1,0-1.8,0-1.7-.1-4.6-.1,0,0-.3,0,0,.1-2.4-.1-5.2,0-8,0,0,0-.3-.1-.5-.2-.5.1-6.4,0-3.7.2-1.3,0-2.7,0-4.1,0,.5,0,1-.1,1.5-.2-2.2,0-4.4,0-6.5.1-2.2,0-4.4,0-6.5,0,1.7,0,2.2-.2.7-.3-2.4.2-6.6.3-11,.2,0,.2,1.5.2,1,.4-.3,0-.7,0-1.2,0-.5,0-.9,0-1.3,0-.1,0-.2,0-.3,0-.6-.2-.4-.5-4.4-.5,1.1-.3,6.7,0,4.9-.3,1.7-.2,8.8-.3,10.4-.1,3.5-.3-2.7,0-2.1-.3-3.2,0-4.6.2-9.5.2,0,.1,1.6.2-.6.3-4.3.3-5.4-.2-6.5-.2.6,0,1.5,0,2.1,0-2.9,0-3.9,0-6.9,0-.8-.4,4.9,0,6-.3l-2.2-.3c-4.7,0-1.3.3-6.1.2h.6c0-.1-3,0-3,0,0,.1.6.3,3.2.3-1.7.3-2.4,0-6.5.1-1.3.2,1.7,0,1.8.2.4.2-2.4.2-4.5.2-3.4,0-1.7-.2-3.1-.3.6,0,3.2,0,3,0,4.2-.2-1.8-.4,1.1-.5-3.2-.1-3.1.1-4.7.2.9,0-.5.2.2.3-5.5.5-3.5-.4-8.9-.3,1.1.3-7.1.5-3.2.8-1.3,0-2.9.1-4.2.1,1.4-.2-2.4-.2.1-.4h-1.9s2.9-.3,2.9-.3c-2.1-.2-5.7-.3-6.9-.4-2.8.1.9.2-2.4.3,1.1-.1-.9-.2-2.3-.2,2.9,0,0,.3-1.8.4-2.9,0-5.1-.2-4.7-.3l2.3-.2c-1.4,0-.6-.1-2.6,0-.6.1-1.9.3-2.6.5-1.8,0-3.1-.1-3.7,0h2.9c-3.8,0-.8-.5-4.7-.4l-1,.2c-.6,0-1,0-.7-.1-.8,0-2.6,0-3.5.1h-.3c-1.6,0-3.7.2-5.6,0,1.6.3,2,0,4.8.1,1.7.2-2.7.2-3.4.2.2-.3-4.2,0-6.1,0-1.1,0-2.1-.2-2.8-.2l-.8.2c-.7-.4-3.9,0-6.1,0,1.1-.1,1-.3-.6-.3,2.1.3-3.4.4-2.8.6-4-.1.9-.4-.3-.6-2,.2-4.4-.1-5.7.1,2.9,0-.5.2-1,.3-3.6,0,.6-.1-2-.2-1.5,0-3.5.3-1.2.4-2.1,0-4.5.2-6.9,0-1-.2,4.4,0,3.1-.2-5,0-2.5.5-7.2.5,1.9,0,.3.4-1.7.5-.3,0-.6,0-.9,0-4.3,0,2.6-.1.7-.3h-2.1c-2.9-.3,6.1-.5,3.4-.8h-2.2c.5,0,1.2-.1.3-.2-.6.2-5.2,0-5.6.1-.5.2,1.8,0,1.5,0-2.4,0-3.4.4-7.1.2,2-.1-.8-.3,0-.4-1.8,0-.6.2-3.1.1h.3c-9.5-.1-21.4-.1-29.6.3-1.5-.2-4.6-.2-9.3-.3,2.1,0,0,.2-1.1.2l-2.3-.2c-2.8-.1-6.4,0-9,.2-.5,0-.6-.1-.7-.2-2.5-.1-2.6.1-3.5.2l-1.6-.2-.4.2c-2.5,0-5.8,0-5.4-.2-1,0-1.9,0-.7.2-2.5-.1-9.2-.1-13.7,0,2.1,0,1.9.1,2.1.3-.6.3-1,0-2.8.1,0,0-2.1-.2,0-.3-5.9-.3-14.2,0-21.7-.1-1.5,0-1,0-1.8.2-4.7-.3-10.5,0-15.6-.1,1.1.1-.5.4-3.3.4-3.1.2-1.2-.3-4-.4-1.4.1-4,.1-5.1.1h0c-1.7,0-4.4.1-6.4,0h.3c-1.7,0-3.6-.2-5.3-.2-.8.2-5,0-6,.3-.2,0,.1,0-.4,0v.2c-.1,0-1.9,0-1.9,0-.5,0-1,0-1.5-.2.3,0,.5,0,.7,0,.2,0,.4,0,.9,0-.5,0-.7,0-1,0-.2,0-.4,0-.5-.1-.3,0-.3,0-.4,0,0,0,0,.2-.8-.2-1-.6-1.2-1.1-1.4-1.4-.2-.3-.2-.6-.4-1.1.4.8.7,1.5,1.1,1.8.5.4.3.1,0-.2-.3-.4-.6-.9-.6-1,0-.2-.2-.3-.4-.6-.1-.3-.3-.7-.3-1.6,0-1.7,0-5.5.2-5.1,0-1.4,0-3.1-.2-4.1,0,1.3,0,3.8-.2,4.1,0-1.2,0-3.6,0-4v1c0-1,0-4.5-.1-2.7l.2-2.5c-.1-.9-.1-3.5-.2-5.6.2,0,.4,1.6.4-2.3l-.2-3.3c0-1.8,0-2.2.1-1.9.1-6-.5-6.2-.4-10.9.2,2,.2.3.3-1.8,0,0-.1-.3-.1-1.2-.1.6.2,1.3,0,2.9-.1.5,0-1.9-.1-2.9.5-4.2.1-14,.3-20.9-.3.5,0-3.1-.2-4.5.3.4,0-3.9.1-5.7l-.3,1c.2-4.2-.4-6.8,0-9.4,0-2.4.2.8.2,1.8.3-3.2-.2-8.6,0-11.2-.1-.3-.3.7-.4-2.1.1-2.3.3-6.8.3-6.3,0-1.9-.1-2.4,0-4.4,0,.2,0,1.1.1,1.7,0-1.6,0-3.1,0-4.5,0-.4,0-.7,0-1.1,0-.3,0-.6,0-.9,0-.6.3-1.1.6-1.7.3-.3.6-.7,1.2-1.1.6-.4,1.4-.7,2.2-.7,2,0,4.4,0,6.2,0,2.1-.3,5.9.1,6.2-.2,0,0,.4,0,.6.1,1.4,0,2.5-.3,4.2-.3l-.6.2c-.4.3,4.2,0,5.3.2-1-.1,2.1,0,2.3-.1h2c3.3-.1.4-.2,4.4-.2,2.3,0,.8.3,0,.2,1.9.1,3.8,0,5.8,0-.7,0-.9,0-.3,0,0,0,.2,0,.4,0,.8,0,1.5,0,2.3,0,0,0,0,0,0,0-.8,0-1.6,0-2.2,0,.5,0,1.3,0,2.1,0,0,0,.3,0,.7,0,.6,0,1.2,0,1.6,0l-.6.2c1.4,0,5.3-.2,5.2-.3,5.5.1,14.6,0,18.3,0-.7,0-.8,0,0,0,.7,0,1.4,0,2.1,0,0,0,0,0,.1,0,.6,0,1.3,0,1.9,0,0,0,0,0,.1,0,1.8,0,1.7.1,4.6.1,0,0,.3,0,0-.1,2.4.1,5.2,0,8,0,0,0,.3.1.5.2.5-.1,6.4,0,3.7-.2,1.3,0,2.7,0,4.1,0-.5,0-1,.1-1.5.2,2.2,0,4.4,0,6.5-.1,2.2,0,4.4,0,6.5,0-1.7,0-2.2.2-.7.3,2.4-.2,6.6-.3,11-.2,0-.2-1.5-.2-1-.4.3,0,.7,0,1.2,0,.5,0,.9,0,1.3,0,.1,0,.2,0,.3,0,.6.2.4.5,4.4.5-1.1.3-6.7,0-4.9.3-1.7.2-8.8.3-10.4.1-3.5.3,2.7,0,2.1.3,3.2,0,4.6-.2,9.5-.2,0-.1-1.6-.2.6-.3,4.3-.3,5.4.2,6.5.2-.6,0-1.5,0-2.1,0,2.9,0,3.9,0,6.9,0,.8.4-4.9,0-6,.3l2.2.3c4.7,0,1.3-.3,6.1-.2h-.6c0,.1,3,0,3,0,0-.1-.6-.3-3.2-.3,1.7-.3,2.4,0,6.5-.1,1.3-.2-1.7,0-1.8-.2-.4-.2,2.4-.2,4.5-.2,3.4,0,1.7.2,3.1.3-.6,0-3.2,0-3,0-4.2.2,1.8.4-1.1.5,3.2.1,3.1-.1,4.7-.2-.9,0,.5-.2-.2-.3,5.5-.5,3.5.4,8.9.3-1.1-.3,7.1-.5,3.2-.8,1.3,0,2.9-.1,4.2-.1-1.4.2,2.4.2-.1.4h1.9s-2.9.3-2.9.3c2.1.2,5.7.3,6.9.4,2.8-.1-.9-.2,2.4-.3-1.1.1.9.2,2.3.2-2.9,0,0-.3,1.8-.4,2.9,0,5.1.2,4.7.3l-2.3.2c1.4,0,.6.1,2.6,0,.6-.1,1.9-.3,2.6-.5,1.8,0,3.1.1,3.7,0h-2.9c3.8,0,.8.5,4.7.4l1-.2c.6,0,1,0,.7.1.8,0,2.6,0,3.5-.1h.3c1.6,0,3.7-.2,5.6,0-1.6-.3-2,0-4.8-.1-1.7-.2,2.7-.2,3.4-.2-.2.3,4.2,0,6.1,0,1.1,0,2.1.2,2.8.2l.8-.2c.7.4,3.9,0,6.1,0-1.1.1-1,.3.6.3-2.1-.3,3.4-.4,2.8-.6,4,.1-.9.4.3.6,2-.2,4.4.1,5.7-.1-2.9,0,.5-.2,1-.3,3.6,0-.6.1,2,.2,1.5,0,3.5-.3,1.2-.4,2.1,0,4.5-.2,6.9,0,1,.2-4.4,0-3.1.2,5,0,2.5-.5,7.2-.5-1.9,0-.3-.4,1.7-.5.3,0,.6,0,.9,0,4.3,0-2.6.1-.7.3h2.1c2.9.3-6.1.5-3.4.8h2.2c-.5,0-1.2.1-.3.2.6-.2,5.2,0,5.6-.1.5-.2-1.8,0-1.5,0,2.4,0,3.4-.4,7.1-.2-2,.1.8.3,0,.4,1.8,0,.6-.2,3.1-.1h-.3c9.5.1,21.4.1,29.6-.3,1.5.2,4.6.2,9.3.3-2.1,0,0-.2,1.1-.2l2.3.2c2.8.1,6.4,0,9-.2.5,0,.6.1.7.2,2.5.1,2.6-.1,3.5-.2l1.6.2.4-.2c2.5,0,5.8,0,5.4.2,1,0,1.9,0,.7-.2,2.5.1,9.2.1,13.7,0-2.1,0-1.9-.1-2.1-.3.6-.3,1,0,2.8-.1,0,0,2.1.2,0,.3,5.9.3,14.2,0,21.7.1,1.5,0,1,0,1.8-.2,4.7.3,10.5,0,15.6.1-1.1-.1.5-.4,3.3-.4,3.1-.2,1.2.3,4,.4,1.4-.1,4-.1,5.1-.1h0c1.7,0,4.4-.1,6.4,0h-.3c1.7,0,3.6.2,5.3.2.8-.2,5,0,6-.3.2,0-.1,0,.4,0v-.2c.1,0,1.9,0,1.9,0,.5,0,1,0,1.5.2-.3,0-.5,0-.7,0-.2,0-.4,0-.9,0,.5,0,.7,0,1,0,.2,0,.4,0,.5.1.3,0,.3,0,.4,0,0,0,0-.2.8.2,1,.6,1.2,1.1,1.4,1.4.2.3.2.6.4,1.1-.4-.8-.7-1.5-1.1-1.8-.5-.4-.3-.1,0,.2.3.4.6.9.6,1,0,.2.2.3.4.6.1.3.3.7.3,1.6,0,1.7,0,5.5-.2,5.1,0,1.4,0,3.1.2,4.1,0-1.3,0-3.8.2-4.1,0,1.2,0,3.6,0,4v-1c0,1,0,4.5.1,2.7l-.2,2.5c.1.9.1,3.5.2,5.6-.2,0-.4-1.6-.4,2.3l.2,3.3c0,1.8,0,2.2-.1,1.9-.1,6,.5,6.2.4,10.9-.2-2-.2-.3-.3,1.8,0,0,.1.3.1,1.2.1-.6-.2-1.3,0-2.9.1-.5,0,1.9.1,2.9-.5,4.2-.1,14-.3,20.9.3-.5,0,3.1.2,4.5-.3-.4,0,3.9-.1,5.7l.3-1c-.2,4.2.4,6.8,0,9.4,0,2.4-.2-.8-.2-1.8-.3,3.2.2,8.6,0,11.2.1.3.3-.7.4,2.1-.1,2.3-.3,6.8-.3,6.3,0,1.9.1,2.4,0,4.4,0-.2,0-1.1-.1-1.7,0,1.6,0,3.1,0,4.5,0,.4,0,.7,0,1.1,0,.3,0,.6,0,.9,0,.6-.3,1.1-.6,1.7-.3.3-.6.7-1.2,1.1-.6.4-1.4.7-2.2.7-2,0-4.4,0-6.2,0Z"/><path class="cls-1" d="M85.6,2.8c.9,0,1.5,0,1.9,0-.6,0-1.2,0-1.9,0Z"/><path class="cls-1" d="M87.9,2.6s-.1,0-.2,0c0,0,0,0,.2,0Z"/><path class="cls-1" d="M87.4,2.8c1.1,0,2.1.2,3.5,0,.7,0-1,.2.6.2,1.5-.1-.8-.4-3.5-.4,0,0,0,0-.1,0,.1,0,0,.1-.5.2Z"/><path class="cls-1" d="M84.6,2.6c-.4,0-.3.1-1.2.1.7,0,1.5,0,2.4,0-.2,0-1.1-.1-1.2,0Z"/><path class="cls-1" d="M102.7,2.6l-6.4.2c2.3,0,6.2-.1,6.4-.2Z"/><path class="cls-1" d="M118.7,3.2c2,0,2.4,0,.9-.1-.4,0-1.1,0-.9.1Z"/><path class="cls-1" d="M123.3,2.9c.1,0,.2,0,.3,0,0,0-.1,0-.3,0Z"/><path class="cls-1" d="M123.3,2.9c-.6,0-1.3,0-2.4,0-.4.2,1.6,0,2.4,0Z"/><path class="cls-1" d="M157.5,3.2c-.7.2,2.7,0,3.6,0-.8-.1-2.7,0-3.6,0Z"/><path class="cls-1" d="M174.6,3h.5c.9.1,1.9,0,.9,0-.6,0-.9,0-1.4,0Z"/><polygon class="cls-1" points="407.8 80 407.7 79.8 407.7 81.6 407.8 80"/><path class="cls-1" d="M304.8,117.3c.3,0-.3.2,1.6.1-2.2,0,0-.1-1.6-.1Z"/></svg>