<?xml version="1.0" encoding="UTF-8"?><svg id="Layer_1" xmlns="http://www.w3.org/2000/svg" width="147" height="100" viewBox="0 0 147 100"><defs><style>.cls-1{fill:#492305;}.cls-1,.cls-2{stroke:#000;}.cls-1,.cls-2,.cls-3{stroke-linecap:round;stroke-linejoin:round;stroke-width:.7px;}.cls-2{fill:#6b3d18;}.cls-4{opacity:.2;}.cls-3{fill:none;stroke:#fff;}.cls-5,.cls-6{stroke-width:0px;}.cls-6{fill:#deedfc;}</style></defs><rect class="cls-6" x="0" y="0" width="147" height="100"/><path class="cls-1" d="M70.5,93.8c-.4.5-3.8-.1-5.4-1,0,0,0,0,0,0h0v-15.9h-.3c1.4-.7,4.9-2,5.4-1.4.5.6-1.2,2.4-1.5,2.9.7.5,1.3,1.2,1.7,2-.6.6-1.5,1.6-2.2,2.2.7.6,2.4,2.3,2.4,2.3,0,0-1.2,1.5-2.1,2.2.6.6,1.6,1.7,2.2,2.3-.6.6-1.3,1.3-1.9,1.9.9.6,1.8,2,1.7,2.6Z"/><path class="cls-2" d="M65,92.8h0c0,0-44.3,0-44.3,0,0,0,0,0,0,0v-.2s0-15.9,0-15.9h44.3v15.9h0c0,0,0,.1,0,.1Z"/><path class="cls-1" d="M20.7,76.8v16s0,0,0,0c-1.3.9-5.1,1.4-5.5.8.2-.6,1.2-1.8,1.7-2.6-.6-.6-1.2-1.2-1.8-1.9.6-.6,1.3-2,1.9-2.6-.9-.7-1.7-2.3-1.7-2.4,0,0,1-1.1,1.6-1.7-.6-.6-1.5-1.8-2.1-2.3.3-.8.9-1.5,1.5-2-.3-.5-1.8-2.4-1.4-2.9.5-.6,3.9.7,5.2,1.4h.4Z"/><line class="cls-3" x1="65.2" y1="76.7" x2="65.2" y2="93.2"/><line class="cls-3" x1="20.8" y1="76.7" x2="20.8" y2="93.2"/><g class="cls-4"><path class="cls-5" d="M65.3,92.8H21.7c-1.4.9-5.7,1.4-6.1.8v-.9c.2,0,.2-.7,1.6-1.9,1.9-1.7,3.8-5.7,3.6-10.7.3,0,.3,2,.6,2,0,1.1-.2,4.5.1,5.6.3,1.1.6,1.7,1.6,2.2,1.1.6,2.5.6,3.8.6,11.2,0,22.3.1,33.5.2.9,0,1.8,0,2.5-.5.8-.5.9-1.3,1-2.2,0-.6.6-3.3.9-5.1.2,2.1.8,5.7,2.2,7,1.2,1.1,2.3,1.6,3.6,3.3v.2c-.4.6-1.7.8-5.3-.6Z"/></g><path class="cls-1" d="M70.5,72.8c-.4.5-3.8-.1-5.4-1,0,0,0,0,0,0h0v-15.9h-.3c1.4-.7,4.9-2,5.4-1.4.5.6-1.2,2.4-1.5,2.9.7.5,1.3,1.2,1.7,2-.6.6-1.5,1.6-2.2,2.2.7.6,2.4,2.3,2.4,2.3,0,0-1.2,1.5-2.1,2.2.6.6,1.6,1.7,2.2,2.3-.6.6-1.3,1.3-1.9,1.9.9.6,1.8,2,1.7,2.6Z"/><path class="cls-2" d="M65,71.9h0c0,0-44.3,0-44.3,0,0,0,0,0,0,0v-.2s0-15.9,0-15.9h44.3v15.9h0c0,0,0,.1,0,.1Z"/><path class="cls-1" d="M20.7,55.9v16s0,0,0,0c-1.3.9-5.1,1.4-5.5.8.2-.6,1.2-1.8,1.7-2.6-.6-.6-1.2-1.2-1.8-1.9.6-.6,1.3-2,1.9-2.6-.9-.7-1.7-2.3-1.7-2.4,0,0,1-1.1,1.6-1.7-.6-.6-1.5-1.8-2.1-2.3.3-.8.9-1.5,1.5-2-.3-.5-1.8-2.4-1.4-2.9.5-.6,3.9.7,5.2,1.4h.4Z"/><line class="cls-3" x1="65.2" y1="55.8" x2="65.2" y2="72.3"/><line class="cls-3" x1="20.8" y1="55.8" x2="20.8" y2="72.3"/><g class="cls-4"><path class="cls-5" d="M65.3,71.9H21.7c-1.4.9-5.7,1.4-6.1.8v-.9c.2,0,.2-.7,1.6-1.9,1.9-1.7,3.8-5.7,3.6-10.7.3,0,.3,2,.6,2,0,1.1-.2,4.5.1,5.6.3,1.1.6,1.7,1.6,2.2,1.1.6,2.5.6,3.8.6,11.2,0,22.3.1,33.5.2.9,0,1.8,0,2.5-.5.8-.5.9-1.3,1-2.2,0-.6.6-3.3.9-5.1.2,2.1.8,5.7,2.2,7,1.2,1.1,2.3,1.6,3.6,3.3v.2c-.4.6-1.7.8-5.3-.6Z"/></g><path class="cls-1" d="M70.5,51.9c-.4.5-3.8-.1-5.4-1,0,0,0,0,0,0h0v-15.9h-.3c1.4-.7,4.9-2,5.4-1.4.5.6-1.2,2.4-1.5,2.9.7.5,1.3,1.2,1.7,2-.6.6-1.5,1.6-2.2,2.2.7.6,2.4,2.3,2.4,2.3,0,0-1.2,1.5-2.1,2.2.6.6,1.6,1.7,2.2,2.3-.6.6-1.3,1.3-1.9,1.9.9.6,1.8,2,1.7,2.6Z"/><path class="cls-2" d="M65,51h0c0,0-44.3,0-44.3,0,0,0,0,0,0,0v-.2s0-15.9,0-15.9h44.3v15.9h0c0,0,0,.1,0,.1Z"/><path class="cls-1" d="M20.7,35v16s0,0,0,0c-1.3.9-5.1,1.4-5.5.8.2-.6,1.2-1.8,1.7-2.6-.6-.6-1.2-1.2-1.8-1.9.6-.6,1.3-2,1.9-2.6-.9-.7-1.7-2.3-1.7-2.4,0,0,1-1.1,1.6-1.7-.6-.6-1.5-1.8-2.1-2.3.3-.8.9-1.5,1.5-2-.3-.5-1.8-2.4-1.4-2.9.5-.6,3.9.7,5.2,1.4h.4Z"/><line class="cls-3" x1="65.2" y1="34.9" x2="65.2" y2="51.4"/><line class="cls-3" x1="20.8" y1="34.9" x2="20.8" y2="51.4"/><g class="cls-4"><path class="cls-5" d="M65.3,51H21.7c-1.4.9-5.7,1.4-6.1.8v-.9c.2,0,.2-.7,1.6-1.9,1.9-1.7,3.8-5.7,3.6-10.7.3,0,.3,2,.6,2,0,1.1-.2,4.5.1,5.6.3,1.1.6,1.7,1.6,2.2,1.1.6,2.5.6,3.8.6,11.2,0,22.3.1,33.5.2.9,0,1.8,0,2.5-.5.8-.5.9-1.3,1-2.2,0-.6.6-3.3.9-5.1.2,2.1.8,5.7,2.2,7,1.2,1.1,2.3,1.6,3.6,3.3v.2c-.4.6-1.7.8-5.3-.6Z"/></g><path class="cls-1" d="M70.5,31c-.4.5-3.8-.1-5.4-1,0,0,0,0,0,0h0v-15.9h-.3c1.4-.7,4.9-2,5.4-1.4.5.6-1.2,2.4-1.5,2.9.7.5,1.3,1.2,1.7,2-.6.6-1.5,1.6-2.2,2.2.7.6,2.4,2.3,2.4,2.3,0,0-1.2,1.5-2.1,2.2.6.6,1.6,1.7,2.2,2.3-.6.6-1.3,1.3-1.9,1.9.9.6,1.8,2,1.7,2.6Z"/><path class="cls-2" d="M65,30.1h0c0,0-44.3,0-44.3,0,0,0,0,0,0,0v-.2s0-15.9,0-15.9h44.3v15.9h0c0,0,0,.1,0,.1Z"/><path class="cls-1" d="M20.7,14.1v16s0,0,0,0c-1.3.9-5.1,1.4-5.5.8.2-.6,1.2-1.8,1.7-2.6-.6-.6-1.2-1.2-1.8-1.9.6-.6,1.3-2,1.9-2.6-.9-.7-1.7-2.3-1.7-2.4,0,0,1-1.1,1.6-1.7-.6-.6-1.5-1.8-2.1-2.3.3-.8.9-1.5,1.5-2-.3-.5-1.8-2.4-1.4-2.9.5-.6,3.9.7,5.2,1.4h.4Z"/><line class="cls-3" x1="65.2" y1="14" x2="65.2" y2="30.5"/><line class="cls-3" x1="20.8" y1="14" x2="20.8" y2="30.5"/><g class="cls-4"><path class="cls-5" d="M65.3,30.1H21.7c-1.4.9-5.7,1.4-6.1.8v-.9c.2,0,.2-.7,1.6-1.9,1.9-1.7,3.8-5.7,3.6-10.7.3,0,.3,2,.6,2,0,1.1-.2,4.5.1,5.6.3,1.1.6,1.7,1.6,2.2,1.1.6,2.5.6,3.8.6,11.2,0,22.3.1,33.5.2.9,0,1.8,0,2.5-.5.8-.5.9-1.3,1-2.2,0-.6.6-3.3.9-5.1.2,2.1.8,5.7,2.2,7,1.2,1.1,2.3,1.6,3.6,3.3v.2c-.4.6-1.7.8-5.3-.6Z"/></g><path class="cls-1" d="M136.8,93.8c-.4.5-3.8-.1-5.4-1,0,0,0,0,0,0h0v-15.9h-.3c1.4-.7,4.9-2,5.4-1.4.5.6-1.2,2.4-1.5,2.9.7.5,1.3,1.2,1.7,2-.6.6-1.5,1.6-2.2,2.2.7.6,2.4,2.3,2.4,2.3,0,0-1.2,1.5-2.1,2.2.6.6,1.6,1.7,2.2,2.3-.6.6-1.3,1.3-1.9,1.9.9.6,1.8,2,1.7,2.6Z"/><path class="cls-2" d="M131.4,92.8h0c0,0-44.3,0-44.3,0,0,0,0,0,0,0v-.2s0-15.9,0-15.9h44.3v15.9h0c0,0,0,.1,0,.1Z"/><path class="cls-1" d="M87.1,76.8v16s0,0,0,0c-1.3.9-5.1,1.4-5.5.8.2-.6,1.2-1.8,1.7-2.6-.6-.6-1.2-1.2-1.8-1.9.6-.6,1.3-2,1.9-2.6-.9-.7-1.7-2.3-1.7-2.4,0,0,1-1.1,1.6-1.7-.6-.6-1.5-1.8-2.1-2.3.3-.8.9-1.5,1.5-2-.3-.5-1.8-2.4-1.4-2.9.5-.6,3.9.7,5.2,1.4h.4Z"/><line class="cls-3" x1="131.6" y1="76.7" x2="131.6" y2="93.2"/><line class="cls-3" x1="87.2" y1="76.7" x2="87.2" y2="93.2"/><g class="cls-4"><path class="cls-5" d="M131.6,92.8h-43.6c-1.4.9-5.7,1.4-6.1.8v-.9c.2,0,.2-.7,1.6-1.9,1.9-1.7,3.8-5.7,3.6-10.7.3,0,.3,2,.6,2,0,1.1-.2,4.5.1,5.6.3,1.1.6,1.7,1.6,2.2,1.1.6,2.5.6,3.8.6,11.2,0,22.3.1,33.5.2.9,0,1.8,0,2.5-.5.8-.5.9-1.3,1-2.2,0-.6.6-3.3.9-5.1.2,2.1.8,5.7,2.2,7,1.2,1.1,2.3,1.6,3.6,3.3v.2c-.4.6-1.7.8-5.3-.6Z"/></g><path class="cls-1" d="M136.8,72.8c-.4.5-3.8-.1-5.4-1,0,0,0,0,0,0h0v-15.9h-.3c1.4-.7,4.9-2,5.4-1.4.5.6-1.2,2.4-1.5,2.9.7.5,1.3,1.2,1.7,2-.6.6-1.5,1.6-2.2,2.2.7.6,2.4,2.3,2.4,2.3,0,0-1.2,1.5-2.1,2.2.6.6,1.6,1.7,2.2,2.3-.6.6-1.3,1.3-1.9,1.9.9.6,1.8,2,1.7,2.6Z"/><path class="cls-2" d="M131.4,71.9h0c0,0-44.3,0-44.3,0,0,0,0,0,0,0v-.2s0-15.9,0-15.9h44.3v15.9h0c0,0,0,.1,0,.1Z"/><path class="cls-1" d="M87.1,55.9v16s0,0,0,0c-1.3.9-5.1,1.4-5.5.8.2-.6,1.2-1.8,1.7-2.6-.6-.6-1.2-1.2-1.8-1.9.6-.6,1.3-2,1.9-2.6-.9-.7-1.7-2.3-1.7-2.4,0,0,1-1.1,1.6-1.7-.6-.6-1.5-1.8-2.1-2.3.3-.8.9-1.5,1.5-2-.3-.5-1.8-2.4-1.4-2.9.5-.6,3.9.7,5.2,1.4h.4Z"/><line class="cls-3" x1="131.6" y1="55.8" x2="131.6" y2="72.3"/><line class="cls-3" x1="87.2" y1="55.8" x2="87.2" y2="72.3"/><g class="cls-4"><path class="cls-5" d="M131.6,71.9h-43.6c-1.4.9-5.7,1.4-6.1.8v-.9c.2,0,.2-.7,1.6-1.9,1.9-1.7,3.8-5.7,3.6-10.7.3,0,.3,2,.6,2,0,1.1-.2,4.5.1,5.6.3,1.1.6,1.7,1.6,2.2,1.1.6,2.5.6,3.8.6,11.2,0,22.3.1,33.5.2.9,0,1.8,0,2.5-.5.8-.5.9-1.3,1-2.2,0-.6.6-3.3.9-5.1.2,2.1.8,5.7,2.2,7,1.2,1.1,2.3,1.6,3.6,3.3v.2c-.4.6-1.7.8-5.3-.6Z"/></g></svg>