<?xml version="1.0" encoding="UTF-8"?><svg id="Layer_1" xmlns="http://www.w3.org/2000/svg" width="548" height="373" viewBox="0 0 548 373"><defs><style>.cls-1{fill:#492305;}.cls-1,.cls-2,.cls-3{stroke-linecap:round;stroke-linejoin:round;stroke-width:2px;}.cls-1,.cls-2,.cls-4{stroke:#000;}.cls-2{fill:#6b3d18;}.cls-3{fill:none;stroke:#fff;}.cls-5{fill:#fff;stroke:#231f20;}.cls-5,.cls-4{stroke-miterlimit:10;}.cls-4{fill:#a88167;}.cls-6{opacity:.2;}.cls-7,.cls-8{stroke-width:0px;}.cls-8{fill:#deedfc;}</style></defs><rect class="cls-8" x="-7.8" y="-5.4" width="563.5" height="383.2"/><rect class="cls-5" x="-9.5" y="224.6" width="566.3" height="158.3"/><path class="cls-1" d="M477.7,304.6c-1.3,1.8-13-.5-18.2-3.4,0,0-.1,0-.2-.1v-.3c.1,0,.1-53.8.1-53.8h-.9c4.7-2.5,16.6-6.9,18.4-4.9,1.6,1.9-3.9,8.3-5,10,2.4,1.8,4.4,4.1,5.7,6.8-2.1,1.9-5.2,5.5-7.3,7.3,2.3,1.9,8.3,7.9,8.3,7.9,0,.3-4.2,5.2-7.3,7.6,2,2.1,5.3,5.7,7.4,7.7-2.2,2.2-4.4,4.3-6.6,6.4,2.9,2,6,6.8,5.7,8.8Z"/><path class="cls-2" d="M459.2,301.4v.2h-150.6c0,0,.2,0,.2-.1v-.5s0-53.8,0-53.8h150.4v54.1s0,0,0,.1Z"/><path class="cls-1" d="M308.7,247.1v54.4s0,0-.2.1c-4.6,2.9-17.4,4.6-18.6,2.8.6-1.9,4.2-6.2,5.9-8.7-2.1-2.1-4.1-4.2-6.1-6.3,1.9-2.1,4.6-6.7,6.5-8.7-2.9-2.4-5.7-7.9-5.7-8.2,0,0,3.2-3.8,5.4-5.7-2-1.9-5-6.1-7-7.9,1.2-2.7,3-5,5.2-6.8-1-1.7-6.2-8.1-4.6-10,1.6-2,13.2,2.2,17.8,4.8l1.4.4Z"/><line class="cls-3" x1="459.8" y1="246.7" x2="459.8" y2="302.8"/><line class="cls-3" x1="309.2" y1="246.7" x2="309.2" y2="302.8"/><g class="cls-6"><path class="cls-7" d="M460,301.5h-148c-4.8,3-19.5,4.7-20.8,2.8l.2-3.1c.5,0,.6-2.4,5.3-6.6,6.5-5.9,13.1-19.5,12.4-36.3,1,0,1.1,6.6,2.1,6.7,0,3.8-.7,15.2.4,18.9,1.1,3.6,2,5.6,5.6,7.6,3.7,2,8.4,2.1,12.8,2.1,37.9.2,75.8.5,113.7.7,3,0,6.2,0,8.6-1.6,2.7-1.8,3.2-4.5,3.4-7.5.1-2.1,2.2-11.3,3-17.2.6,7.1,2.7,19.4,7.3,23.7,4.1,3.9,7.8,5.4,12.2,11.3l.4.6c-1.8,2-6.3,2.8-18.5-2Z"/></g><path class="cls-1" d="M485.6,325.5c-1.3,1.8-13-.5-18.2-3.4,0,0-.1,0-.2-.1v-.3c.1,0,.1-53.8.1-53.8h-.9c4.7-2.5,16.6-6.9,18.4-4.9,1.6,1.9-3.9,8.3-5,10,2.4,1.8,4.4,4.1,5.7,6.8-2.1,1.9-5.2,5.5-7.3,7.3,2.3,1.9,8.3,7.9,8.3,7.9,0,.3-4.2,5.2-7.3,7.6,2,2.1,5.3,5.7,7.4,7.7-2.2,2.2-4.4,4.3-6.6,6.4,2.9,2,6,6.8,5.7,8.8Z"/><path class="cls-2" d="M467.1,322.3v.2h-150.6c0,0,.2,0,.2-.1v-.5s0-53.8,0-53.8h150.4v54.1s0,0,0,.1Z"/><path class="cls-1" d="M316.6,268v54.4s0,0-.2.1c-4.6,2.9-17.4,4.6-18.6,2.8.6-1.9,4.2-6.2,5.9-8.7-2.1-2.1-4.1-4.2-6.1-6.3,1.9-2.1,4.6-6.7,6.5-8.7-2.9-2.4-5.7-7.9-5.7-8.2,0,0,3.2-3.8,5.4-5.7-2-1.9-5-6.1-7-7.9,1.2-2.7,3-5,5.2-6.8-1-1.7-6.2-8.1-4.6-10,1.6-2,13.2,2.2,17.8,4.8l1.4.4Z"/><line class="cls-3" x1="467.7" y1="267.6" x2="467.7" y2="323.7"/><line class="cls-3" x1="317.1" y1="267.6" x2="317.1" y2="323.7"/><g class="cls-6"><path class="cls-7" d="M467.9,322.4h-148c-4.8,3-19.5,4.7-20.8,2.8l.2-3.1c.5,0,.6-2.4,5.3-6.6,6.5-5.9,13.1-19.5,12.4-36.3,1,0,1.1,6.6,2.1,6.7,0,3.8-.7,15.2.4,18.9,1.1,3.6,2,5.6,5.6,7.6,3.7,2,8.4,2.1,12.8,2.1,37.9.2,75.8.5,113.7.7,3,0,6.2,0,8.6-1.6,2.7-1.8,3.2-4.5,3.4-7.5.1-2.1,2.2-11.3,3-17.2.6,7.1,2.7,19.4,7.3,23.7,4.1,3.9,7.8,5.4,12.2,11.3l.4.6c-1.8,2-6.3,2.8-18.5-2Z"/></g><path class="cls-1" d="M493.5,346.4c-1.3,1.8-13-.5-18.2-3.4,0,0-.1,0-.2-.1v-.3c.1,0,.1-53.8.1-53.8h-.9c4.7-2.5,16.6-6.9,18.4-4.9,1.6,1.9-3.9,8.3-5,10,2.4,1.8,4.4,4.1,5.7,6.8-2.1,1.9-5.2,5.5-7.3,7.3,2.3,1.9,8.3,7.9,8.3,7.9,0,.3-4.2,5.2-7.3,7.6,2,2.1,5.3,5.7,7.4,7.7-2.2,2.2-4.4,4.3-6.6,6.4,2.9,2,6,6.8,5.7,8.8Z"/><path class="cls-2" d="M475,343.2v.2h-150.6c0,0,.2,0,.2-.1v-.5s0-53.8,0-53.8h150.4v54.1s0,0,0,.1Z"/><path class="cls-1" d="M324.5,288.9v54.4s0,0-.2.1c-4.6,2.9-17.4,4.6-18.6,2.8.6-1.9,4.2-6.2,5.9-8.7-2.1-2.1-4.1-4.2-6.1-6.3,1.9-2.1,4.6-6.7,6.5-8.7-2.9-2.4-5.7-7.9-5.7-8.2,0,0,3.2-3.8,5.4-5.7-2-1.9-5-6.1-7-7.9,1.2-2.7,3-5,5.2-6.8-1-1.7-6.2-8.1-4.6-10,1.6-2,13.2,2.2,17.8,4.8l1.4.4Z"/><line class="cls-3" x1="475.6" y1="288.5" x2="475.6" y2="344.6"/><line class="cls-3" x1="325" y1="288.5" x2="325" y2="344.6"/><g class="cls-6"><path class="cls-7" d="M475.8,343.3h-148c-4.8,3-19.5,4.7-20.8,2.8l.2-3.1c.5,0,.6-2.4,5.3-6.6,6.5-5.9,13.1-19.5,12.4-36.3,1,0,1.1,6.6,2.1,6.7,0,3.8-.7,15.2.4,18.9,1.1,3.6,2,5.6,5.6,7.6,3.7,2,8.4,2.1,12.8,2.1,37.9.2,75.8.5,113.7.7,3,0,6.2,0,8.6-1.6,2.7-1.8,3.2-4.5,3.4-7.5.1-2.1,2.2-11.3,3-17.2.6,7.1,2.7,19.4,7.3,23.7,4.1,3.9,7.8,5.4,12.2,11.3l.4.6c-1.8,2-6.3,2.8-18.5-2Z"/></g><path class="cls-1" d="M459.4,117.7c-1.5,2.1-15.3-.5-21.4-3.9,0,0-.2-.1-.3-.2l.2-.3v-63.1h-1c5.5-3,19.5-8.1,21.6-5.7,1.9,2.2-4.6,9.7-5.9,11.7,2.8,2.1,5.2,4.8,6.6,7.9-2.5,2.2-6.1,6.4-8.6,8.6,2.7,2.2,9.7,9.3,9.7,9.3,0,.4-4.9,6.1-8.5,8.9,2.4,2.4,6.2,6.7,8.7,9-2.6,2.5-5.2,5-7.7,7.5,3.5,2.3,7.1,7.9,6.7,10.4Z"/><path class="cls-2" d="M437.7,113.9v.3h-176.6c.1,0,.2-.1.3-.2v-.6c0,0,0-63.1,0-63.1h176.3v63.1l-.2.3c.1,0,.2.1.3.2Z"/><path class="cls-1" d="M261.3,50.3v63.7c0,0-.1.1-.2.2-5.4,3.5-20.4,5.4-21.9,3.2.7-2.2,4.9-7.3,7-10.2-2.4-2.5-4.8-4.9-7.1-7.4,2.2-2.4,5.4-7.8,7.6-10.2-3.5-2.8-6.7-9.3-6.7-9.6,0,0,3.8-4.4,6.3-6.7-2.3-2.2-5.9-7.2-8.2-9.3,1.4-3.2,3.5-5.9,6.1-7.9-1.2-2-7.2-9.5-5.4-11.7,1.9-2.3,15.5,2.6,20.9,5.6l1.6.4Z"/><line class="cls-3" x1="438.4" y1="49.8" x2="438.4" y2="115.6"/><line class="cls-3" x1="261.8" y1="49.8" x2="261.8" y2="115.6"/><g class="cls-6"><path class="cls-7" d="M438.6,114h-173.5c-5.7,3.5-22.8,5.6-24.4,3.3l.2-3.6c.6,0,.7-2.8,6.2-7.7,7.7-6.9,15.3-22.8,14.5-42.5,1.2,0,1.2,7.8,2.4,7.8,0,4.4-.9,17.9.4,22.1,1.3,4.3,2.4,6.6,6.6,8.9,4.4,2.4,9.8,2.5,15,2.5,44.4.3,88.9.5,133.3.8,3.5,0,7.3,0,10.1-1.9,3.2-2.1,3.7-5.3,4-8.8.2-2.4,2.6-13.3,3.6-20.2.7,8.3,3.1,22.7,8.6,27.8,4.8,4.5,9.2,6.3,14.3,13.2l.5.7c-2.1,2.3-7.3,3.3-21.7-2.3Z"/></g><path class="cls-4" d="M386.2,21.7c-28-41.2-71.2-47.8-85-49.6-.8,0-1.6-.2-2.5-.2-45.2-10.3-186.7,2.9-231.6,6.1-11.2.8-24.9,3.6-28.1,14.4-2.5,8.3,2.9,16.7,8.1,23.6,13.2,18,28.1,37.1,49.5,43.3,10.2,2.9,21.1,2.6,31.7,1.5,26.7-2.7,86.8-25.5,115.7-36.2.2.2.3.5.5.8,6.8,11.3,18.2,18,28.2,27.6,1.7,11.5,2.7,14.7,3.3,29.3.1,4.2-.6,11.8.9,15.6s3.3,5.9,7.1,6.2c3.9.3,7.6-2.5,9.7-6.2,2-3.7,3.8-9.3,4.6-13.5,1.8-8.9,3.1-16.9,2.9-32.5,0,0,0,0,0-.1h0s0,0,0,.1c6.4,14.5,7.7,16.3,7.6,23.9,0,6.5-1.8,25.9,2.2,31.5,4,5.6,8.8,5.1,13.8,1.6,6.2-4.4,9.7-20.8,10.5-27.3,2-17.5,1.1-25.2-2.6-35.5h0c2.9,2.9,7.3,16.9,7.3,23.6s-1.4,10.5-2.1,21.1c-.3,5.6-.5,14.1,3.5,18.2,4.4,4.4,10.9,2.2,16.3-3.3s6.9-15.5,8.4-22.2c2.1-9.7,2-13.1,2.5-20.7.5-6.1-.3-12-1.8-17.8h0c3.6,6.9,5.2,39.4,4.7,45.4-.4,6,.5,18.4,7.6,20,8.7,2,13.3-11.7,15.6-18.9,3.2-10.3,1.4-16,1.4-29.4s-2.5-28.3-10.2-40.3h0c.2.3.3.5.4.7"/><path class="cls-1" d="M218.8,241.8c-1.3,1.8-13-.5-18.2-3.4,0,0-.1,0-.2-.1v-.3c.1,0,.1-53.8.1-53.8h-.9c4.7-2.5,16.6-6.9,18.4-4.9,1.6,1.9-3.9,8.3-5,10,2.4,1.8,4.4,4.1,5.7,6.8-2.1,1.9-5.2,5.5-7.3,7.3,2.3,1.9,8.3,7.9,8.3,7.9,0,.3-4.2,5.2-7.3,7.6,2,2.1,5.3,5.7,7.4,7.7-2.2,2.2-4.4,4.3-6.6,6.4,2.9,2,6,6.8,5.7,8.8Z"/><path class="cls-2" d="M200.3,238.6v.2H49.7c0,0,.2,0,.2-.1v-.5s0-53.8,0-53.8h150.4v54.1s0,0,0,.1Z"/><path class="cls-1" d="M49.9,184.4v54.4s0,0-.2.1c-4.6,2.9-17.4,4.6-18.6,2.8.6-1.9,4.2-6.2,5.9-8.7-2.1-2.1-4.1-4.2-6.1-6.3,1.9-2.1,4.6-6.7,6.5-8.7-2.9-2.4-5.7-7.9-5.7-8.2,0,0,3.2-3.8,5.4-5.7-2-1.9-5-6.1-7-7.9,1.2-2.7,3-5,5.2-6.8-1-1.7-6.2-8.1-4.6-10,1.6-2,13.2,2.2,17.8,4.8l1.4.4Z"/><line class="cls-3" x1="200.9" y1="184" x2="200.9" y2="240.1"/><line class="cls-3" x1="50.3" y1="184" x2="50.3" y2="240.1"/><g class="cls-6"><path class="cls-7" d="M201.2,238.7H53.2c-4.8,3-19.5,4.7-20.8,2.8l.2-3.1c.5,0,.6-2.4,5.3-6.6,6.5-5.9,13.1-19.5,12.4-36.3,1,0,1.1,6.6,2.1,6.7,0,3.8-.7,15.2.4,18.9,1.1,3.6,2,5.6,5.6,7.6,3.7,2,8.4,2.1,12.8,2.1,37.9.2,75.8.5,113.7.7,3,0,6.2,0,8.6-1.6,2.7-1.8,3.2-4.5,3.4-7.5.1-2.1,2.2-11.3,3-17.2.6,7.1,2.7,19.4,7.3,23.7,4.1,3.9,7.8,5.4,12.2,11.3l.4.6c-1.8,2-6.3,2.8-18.5-2Z"/></g><path class="cls-1" d="M226.7,262.8c-1.3,1.8-13-.5-18.2-3.4,0,0-.1,0-.2-.1v-.3c.1,0,.1-53.8.1-53.8h-.9c4.7-2.5,16.6-6.9,18.4-4.9,1.6,1.9-3.9,8.3-5,10,2.4,1.8,4.4,4.1,5.7,6.8-2.1,1.9-5.2,5.5-7.3,7.3,2.3,1.9,8.3,7.9,8.3,7.9,0,.3-4.2,5.2-7.3,7.6,2,2.1,5.3,5.7,7.4,7.7-2.2,2.2-4.4,4.3-6.6,6.4,2.9,2,6,6.8,5.7,8.8Z"/><path class="cls-2" d="M208.2,259.5v.2H57.6c0,0,.2,0,.2-.1v-.5s0-53.8,0-53.8h150.4v54.1s0,0,0,.1Z"/><path class="cls-1" d="M57.8,205.3v54.4s0,0-.2.1c-4.6,2.9-17.4,4.6-18.6,2.8.6-1.9,4.2-6.2,5.9-8.7-2.1-2.1-4.1-4.2-6.1-6.3,1.9-2.1,4.6-6.7,6.5-8.7-2.9-2.4-5.7-7.9-5.7-8.2,0,0,3.2-3.8,5.4-5.7-2-1.9-5-6.1-7-7.9,1.2-2.7,3-5,5.2-6.8-1-1.7-6.2-8.1-4.6-10,1.6-2,13.2,2.2,17.8,4.8l1.4.4Z"/><line class="cls-3" x1="208.8" y1="204.9" x2="208.8" y2="261"/><line class="cls-3" x1="58.2" y1="204.9" x2="58.2" y2="261"/><g class="cls-6"><path class="cls-7" d="M209,259.6H61.1c-4.8,3-19.5,4.7-20.8,2.8l.2-3.1c.5,0,.6-2.4,5.3-6.6,6.5-5.9,13.1-19.5,12.4-36.3,1,0,1.1,6.6,2.1,6.7,0,3.8-.7,15.2.4,18.9,1.1,3.6,2,5.6,5.6,7.6,3.7,2,8.4,2.1,12.8,2.1,37.9.2,75.8.5,113.7.7,3,0,6.2,0,8.6-1.6,2.7-1.8,3.2-4.5,3.4-7.5.1-2.1,2.2-11.3,3-17.2.6,7.1,2.7,19.4,7.3,23.7,4.1,3.9,7.8,5.4,12.2,11.3l.4.6c-1.8,2-6.3,2.8-18.5-2Z"/></g><path class="cls-1" d="M234.6,283.7c-1.3,1.8-13-.5-18.2-3.4,0,0-.1,0-.2-.1v-.3c.1,0,.1-53.8.1-53.8h-.9c4.7-2.5,16.6-6.9,18.4-4.9,1.6,1.9-3.9,8.3-5,10,2.4,1.8,4.4,4.1,5.7,6.8-2.1,1.9-5.2,5.5-7.3,7.3,2.3,1.9,8.3,7.9,8.3,7.9,0,.3-4.2,5.2-7.3,7.6,2,2.1,5.3,5.7,7.4,7.7-2.2,2.2-4.4,4.3-6.6,6.4,2.9,2,6,6.8,5.7,8.8Z"/><path class="cls-2" d="M216.1,280.5v.2H65.5c0,0,.2,0,.2-.1v-.5s0-53.8,0-53.8h150.4v54.1s0,0,0,.1Z"/><path class="cls-1" d="M65.7,226.2v54.4s0,0-.2.1c-4.6,2.9-17.4,4.6-18.6,2.8.6-1.9,4.2-6.2,5.9-8.7-2.1-2.1-4.1-4.2-6.1-6.3,1.9-2.1,4.6-6.7,6.5-8.7-2.9-2.4-5.7-7.9-5.7-8.2,0,0,3.2-3.8,5.4-5.7-2-1.9-5-6.1-7-7.9,1.2-2.7,3-5,5.2-6.8-1-1.7-6.2-8.1-4.6-10,1.6-2,13.2,2.2,17.8,4.8l1.4.4Z"/><line class="cls-3" x1="216.7" y1="225.8" x2="216.7" y2="281.9"/><line class="cls-3" x1="66.1" y1="225.8" x2="66.1" y2="281.9"/><g class="cls-6"><path class="cls-7" d="M216.9,280.6H68.9c-4.8,3-19.5,4.7-20.8,2.8l.2-3.1c.5,0,.6-2.4,5.3-6.6,6.5-5.9,13.1-19.5,12.4-36.3,1,0,1.1,6.6,2.1,6.7,0,3.8-.7,15.2.4,18.9,1.1,3.6,2,5.6,5.6,7.6,3.7,2,8.4,2.1,12.8,2.1,37.9.2,75.8.5,113.7.7,3,0,6.2,0,8.6-1.6,2.7-1.8,3.2-4.5,3.4-7.5.1-2.1,2.2-11.3,3-17.2.6,7.1,2.7,19.4,7.3,23.7,4.1,3.9,7.8,5.4,12.2,11.3l.4.6c-1.8,2-6.3,2.8-18.5-2Z"/></g><path class="cls-1" d="M242.2,304.6c-1.3,1.8-13-.5-18.2-3.4,0,0-.1,0-.2-.1v-.3c.1,0,.1-53.8.1-53.8h-.9c4.7-2.5,16.6-6.9,18.4-4.9,1.6,1.9-3.9,8.3-5,10,2.4,1.8,4.4,4.1,5.7,6.8-2.1,1.9-5.2,5.5-7.3,7.3,2.3,1.9,8.3,7.9,8.3,7.9,0,.3-4.2,5.2-7.3,7.6,2,2.1,5.3,5.7,7.4,7.7-2.2,2.2-4.4,4.3-6.6,6.4,2.9,2,6,6.8,5.7,8.8Z"/><path class="cls-2" d="M223.7,301.4v.2H73.1c0,0,.2,0,.2-.1v-.5s0-53.8,0-53.8h150.4v54.1s0,0,0,.1Z"/><path class="cls-1" d="M73.3,247.1v54.4s0,0-.2.1c-4.6,2.9-17.4,4.6-18.6,2.8.6-1.9,4.2-6.2,5.9-8.7-2.1-2.1-4.1-4.2-6.1-6.3,1.9-2.1,4.6-6.7,6.5-8.7-2.9-2.4-5.7-7.9-5.7-8.2,0,0,3.2-3.8,5.4-5.7-2-1.9-5-6.1-7-7.9,1.2-2.7,3-5,5.2-6.8-1-1.7-6.2-8.1-4.6-10,1.6-2,13.2,2.2,17.8,4.8l1.4.4Z"/><line class="cls-3" x1="224.3" y1="246.7" x2="224.3" y2="302.8"/><line class="cls-3" x1="73.7" y1="246.7" x2="73.7" y2="302.8"/><g class="cls-6"><path class="cls-7" d="M224.6,301.5H76.6c-4.8,3-19.5,4.7-20.8,2.8l.2-3.1c.5,0,.6-2.4,5.3-6.6,6.5-5.9,13.1-19.5,12.4-36.3,1,0,1.1,6.6,2.1,6.7,0,3.8-.7,15.2.4,18.9,1.1,3.6,2,5.6,5.6,7.6,3.7,2,8.4,2.1,12.8,2.1,37.9.2,75.8.5,113.7.7,3,0,6.2,0,8.6-1.6,2.7-1.8,3.2-4.5,3.4-7.5.1-2.1,2.2-11.3,3-17.2.6,7.1,2.7,19.4,7.3,23.7,4.1,3.9,7.8,5.4,12.2,11.3l.4.6c-1.8,2-6.3,2.8-18.5-2Z"/></g><path class="cls-1" d="M250.1,325.5c-1.3,1.8-13-.5-18.2-3.4,0,0-.1,0-.2-.1v-.3c.1,0,.1-53.8.1-53.8h-.9c4.7-2.5,16.6-6.9,18.4-4.9,1.6,1.9-3.9,8.3-5,10,2.4,1.8,4.4,4.1,5.7,6.8-2.1,1.9-5.2,5.5-7.3,7.3,2.3,1.9,8.3,7.9,8.3,7.9,0,.3-4.2,5.2-7.3,7.6,2,2.1,5.3,5.7,7.4,7.7-2.2,2.2-4.4,4.3-6.6,6.4,2.9,2,6,6.8,5.7,8.8Z"/><path class="cls-2" d="M231.6,322.3v.2H81c0,0,.2,0,.2-.1v-.5s0-53.8,0-53.8h150.4v54.1s0,0,0,.1Z"/><path class="cls-1" d="M81.2,268v54.4s0,0-.2.1c-4.6,2.9-17.4,4.6-18.6,2.8.6-1.9,4.2-6.2,5.9-8.7-2.1-2.1-4.1-4.2-6.1-6.3,1.9-2.1,4.6-6.7,6.5-8.7-2.9-2.4-5.7-7.9-5.7-8.2,0,0,3.2-3.8,5.4-5.7-2-1.9-5-6.1-7-7.9,1.2-2.7,3-5,5.2-6.8-1-1.7-6.2-8.1-4.6-10,1.6-2,13.2,2.2,17.8,4.8l1.4.4Z"/><line class="cls-3" x1="232.2" y1="267.6" x2="232.2" y2="323.7"/><line class="cls-3" x1="81.6" y1="267.6" x2="81.6" y2="323.7"/><g class="cls-6"><path class="cls-7" d="M232.4,322.4H84.5c-4.8,3-19.5,4.7-20.8,2.8l.2-3.1c.5,0,.6-2.4,5.3-6.6,6.5-5.9,13.1-19.5,12.4-36.3,1,0,1.1,6.6,2.1,6.7,0,3.8-.7,15.2.4,18.9,1.1,3.6,2,5.6,5.6,7.6,3.7,2,8.4,2.1,12.8,2.1,37.9.2,75.8.5,113.7.7,3,0,6.2,0,8.6-1.6,2.7-1.8,3.2-4.5,3.4-7.5.1-2.1,2.2-11.3,3-17.2.6,7.1,2.7,19.4,7.3,23.7,4.1,3.9,7.8,5.4,12.2,11.3l.4.6c-1.8,2-6.3,2.8-18.5-2Z"/></g><path class="cls-1" d="M258,346.4c-1.3,1.8-13-.5-18.2-3.4,0,0-.1,0-.2-.1v-.3c.1,0,.1-53.8.1-53.8h-.9c4.7-2.5,16.6-6.9,18.4-4.9,1.6,1.9-3.9,8.3-5,10,2.4,1.8,4.4,4.1,5.7,6.8-2.1,1.9-5.2,5.5-7.3,7.3,2.3,1.9,8.3,7.9,8.3,7.9,0,.3-4.2,5.2-7.3,7.6,2,2.1,5.3,5.7,7.4,7.7-2.2,2.2-4.4,4.3-6.6,6.4,2.9,2,6,6.8,5.7,8.8Z"/><path class="cls-2" d="M239.5,343.2v.2H88.9c0,0,.2,0,.2-.1v-.5s0-53.8,0-53.8h150.4v54.1s0,0,0,.1Z"/><path class="cls-1" d="M89.1,288.9v54.4s0,0-.2.1c-4.6,2.9-17.4,4.6-18.6,2.8.6-1.9,4.2-6.2,5.9-8.7-2.1-2.1-4.1-4.2-6.1-6.3,1.9-2.1,4.6-6.7,6.5-8.7-2.9-2.4-5.7-7.9-5.7-8.2,0,0,3.2-3.8,5.4-5.7-2-1.9-5-6.1-7-7.9,1.2-2.7,3-5,5.2-6.8-1-1.7-6.2-8.1-4.6-10,1.6-2,13.2,2.2,17.8,4.8l1.4.4Z"/><line class="cls-3" x1="240.1" y1="288.5" x2="240.1" y2="344.6"/><line class="cls-3" x1="89.5" y1="288.5" x2="89.5" y2="344.6"/><g class="cls-6"><path class="cls-7" d="M240.3,343.3H92.3c-4.8,3-19.5,4.7-20.8,2.8l.2-3.1c.5,0,.6-2.4,5.3-6.6,6.5-5.9,13.1-19.5,12.4-36.3,1,0,1.1,6.6,2.1,6.7,0,3.8-.7,15.2.4,18.9,1.1,3.6,2,5.6,5.6,7.6,3.7,2,8.4,2.1,12.8,2.1,37.9.2,75.8.5,113.7.7,3,0,6.2,0,8.6-1.6,2.7-1.8,3.2-4.5,3.4-7.5.1-2.1,2.2-11.3,3-17.2.6,7.1,2.7,19.4,7.3,23.7,4.1,3.9,7.8,5.4,12.2,11.3l.4.6c-1.8,2-6.3,2.8-18.5-2Z"/></g></svg>