<?xml version="1.0" encoding="UTF-8"?><svg id="Layer_1" xmlns="http://www.w3.org/2000/svg" width="548" height="373" viewBox="0 0 548 373"><defs><style>.cls-1{fill:#71af55;}.cls-1,.cls-2,.cls-3,.cls-4,.cls-5,.cls-6,.cls-7,.cls-8,.cls-9{stroke-linecap:round;stroke-linejoin:round;}.cls-1,.cls-2,.cls-8,.cls-10{stroke:#231f20;}.cls-2{fill:#7a5622;}.cls-3{fill:#576e1b;}.cls-3,.cls-4,.cls-5,.cls-6,.cls-7,.cls-9,.cls-11{stroke:#000;}.cls-4{fill:#cbcbcb;}.cls-5{fill:#81ac49;}.cls-6,.cls-10{fill:#fff;}.cls-7{fill:#f1f1f1;}.cls-8,.cls-9,.cls-11{fill:none;}.cls-10,.cls-11{stroke-miterlimit:10;}.cls-12{fill:#f3fddc;}.cls-12,.cls-13,.cls-14,.cls-15,.cls-16,.cls-17,.cls-18{stroke-width:0px;}.cls-13{fill:#f8e3e2;}.cls-14{fill:#609342;}.cls-15{fill:#86bc69;}.cls-16{fill:#ddefac;}.cls-17{fill:#ad581e;}.cls-18{fill:#6aa04d;}</style></defs><rect class="cls-13" x="-7.5" y="-5.4" width="565.4" height="384.5"/><rect class="cls-10" x="-9" y="224.6" width="566.3" height="158.3"/><path class="cls-7" d="M271,245.8c-137.2,0-248.4,19.9-248.4,44.5s111.2,44.5,248.4,44.5,248.4-19.9,248.4-44.5-111.2-44.5-248.4-44.5ZM442.2,296.5h0c-8.6,12.7-79.2,22.6-165,22.6s-153.3-9.5-164.4-21.8c-1-1.1-1.5-2.3-1.5-3.5,0-13.9,74.3-25.2,165.9-25.2s165.9,11.3,165.9,25.2-.3,1.8-.9,2.6Z"/><path class="cls-4" d="M519.4,290.2v8.5c0,15.2-42.2,28.3-106.7,36.1-39.9,4.8-88.4,7.6-140.8,7.6s-89.4-2.4-126.6-6.5c-73.3-8.1-122.7-22.9-122.7-39.2s-.2-5.9,0-6.6c0,24.6,111.2,44.5,248.4,44.5s248.4-19.9,248.4-44.5Z"/><path class="cls-7" d="M442.2,296.5h0c-8.6,12.7-79.2,22.6-165,22.6s-153.3-9.5-164.4-21.8h0c0-13.9,73.3-24.3,164.9-24.3s164.4,9.5,164.5,23.4Z"/><path class="cls-4" d="M443.1,293.8c0,.9-.3,1.8-.9,2.6,0-13.9-72.8-23.4-164.5-23.4s-164.9,10.3-164.9,24.3h0c-1-1.1-1.5-2.3-1.5-3.5,0-13.9,74.3-25.2,165.9-25.2s165.9,11.3,165.9,25.2Z"/><path class="cls-4" d="M412.7,335.1c-12.8,8.5-68.2,14.8-134.5,14.8s-117.6-5.9-132.9-13.9c37.1,4.1,80.4,6.5,126.6,6.5s100.9-2.8,140.8-7.6v.2Z"/><path class="cls-6" d="M145.2,336c-.2-.1-.4-.2-.6-.3"/><path class="cls-1" d="M372.5,189.1c-7.1,36.4-47.3,103.1-75,89.3-11.8-5.9-27.7-3.1-35.4-.9-31.2,9.3-71.5-94.2-62.3-128,12.7-46.7,51.2-43.1,90.6-33.3l11.4-1.3c2.5-.2,2.9-.6,5.1-.8,50.6-6.5,79.3,4.9,65.7,75Z"/><path class="cls-18" d="M357.7,228.3c-16,30.7-41.1,59.6-60.2,50-11.8-5.9-27.7-3.1-35.4-.8-26.6,7.9-60-66.5-63.4-109.4,2.7,6,6.9,11.4,11.4,16.2,6.9,7.5,14.7,14.2,20.5,22.5,11,15.9,14.8,38,31.5,47.9,9.2,5.5,21.1.6,31.8-.7,24-2.9,46.6-10.3,63.9-25.7Z"/><path class="cls-8" d="M301.8,114.9s0,0,0,0"/><path class="cls-8" d="M314.9,123.1c.2-.4-7.8,1.8-10.1,2.8-3.9,1.7-6.8,3.2-11.2,2.8-1.1,0-2.1-.3-3.1-.5"/><path class="cls-8" d="M290.5,128.2c-7.3-1.8-13.8-6.8-21.6-7.9"/><path class="cls-15" d="M361.7,155.7c-1.7,5-4.2,1.6-5.9-1-1.5-2.2-3.3-5.2-5.4-7.5-3.5-4.5-10.2-7.5-15-8.6-3.9-.7-6.5-3.3-4.7-7.4,2-4,7.8-5.9,12.1-5.1,9.1,1,15.6,8.1,17.9,17,1.1,3.9,2.1,8.6.9,12.5v.2Z"/><path class="cls-15" d="M256.3,155.8c-.7.8-1.8,1.2-2.9,1.4-10.4,2.1-22.4.9-29.9-7.3-2.2-2.5-3.9-5.4-4.5-8.8-1.1-5.4,2.2-12.3,8.6-10.7,3.9,1,6.1,4.7,8.9,7.3,2.2,2.1,5,3.4,7.8,4.5,4.4,1.8,9.2,3.9,11.6,8.3.8,1.5,1.5,3.7.4,5.1h0Z"/><path class="cls-8" d="M372.5,189.1c-7.1,36.4-47.3,103.1-75,89.3-11.8-5.9-27.7-3.1-35.4-.9-31.2,9.3-71.5-94.2-62.3-128,12.7-46.7,51.2-43.1,90.6-33.3l11.4-1.3c2.5-.2,2.9-.6,5.1-.8,50.6-6.5,79.3,4.9,65.7,75Z"/><path class="cls-2" d="M326.3,77.8c-9.6,10.9-18.1,23.6-24.5,37.1-2.1,4.4-3.9,8.8-5.5,13.4-1.5.6-3.5.3-5.2-.3-1.1-.4-2-.8-2.7-1.3.2-1.3.4-2.7.6-4,.4-2.1,1-4.3,1.6-6.4h0c.1-.3.2-.7.3-1,4.6-14.5,13.7-28.9,20.4-42.5,5.7,1.4,6.3,5.1,14.7,5Z"/><path class="cls-5" d="M293.9,125.1c2.3,7.6-37,.6-42.4-1.2-12.5-4.1-34.7-16.8-35.9-31.3,13.9,8.7,25.7,2.7,40,.7,20.8-2.9,34.3,14.5,39.2,31.5l-.9.2Z"/><path class="cls-9" d="M292.6,125c-6.1-3.7-15.5-12.2-23.5-14.9-8.4-2.8-18,.9-25.7-3.1"/><path class="cls-12" d="M447.2,214.2s0,0,0,0c0,0-.2,0-.2-.1-2-.8-4.2-1.4-6.5-1.6-.1,0-.3,0-.4,0-1.2,0-2.4-.1-3.7,0-10.9.5-24.6,6.1-34.1,9-5.3,1.6-10.6,3.4-15.8,5.3-7.1,2.6-14.1,5.4-21,8.4-3.2,1.4-6.3,2.9-9.4,4.5,0,0,0,0,0,0-4.6,2.5-9,5.4-12.8,9.1-6.2,6-10.5,14.5-9.7,23,0,.3,0,.6.1.9,1.2,8.6,7.4,16,15,20.5,7.9,4.7,17.1,6.7,26.2,8,18.6,2.7,38.1,2.6,55.6-4,17.5-6.7,32.6-20.9,36.5-38.8.1-.6.2-1.1.3-1.7,2.3-14.6-5.1-36-20-42.3Z"/><path class="cls-18" d="M467.2,256.5c0,.6-.2,1.2-.3,1.7-3.9,17.9-19.1,32.2-36.5,38.8-17.5,6.7-37,6.7-55.6,4-9.1-1.3-18.3-3.3-26.2-8-7.6-4.5-13.8-12-15-20.5,0-.3,0-.6-.1-.9-.8-8.6,3.5-17,9.7-23,3.8-3.6,8.1-6.6,12.8-9.1,0,0,0,0,0,0,3.1-1.6,6.2-3.1,9.4-4.5,6.9-3.1,13.9-5.9,21-8.4-11.9,3.5-44.6,18-53.9,24-9.6,6.1-14.9,16.6-15.3,27.5-.5,12.8,10.7,24.1,22.8,30.1,3.9,1.9,8.6,3.4,13.6,4.4,10.4,2.2,22.1,2.6,31.2,2.1,27.4-1.6,75.5-11.1,82.8-58.1h-.2Z"/><path class="cls-14" d="M467.4,256.5c-7.3,47-55.4,56.6-82.8,58.1-9.1.5-20.8,0-31.2-2.1-7.4-4.9-13.4-12-16.8-20.2-2.5-6.2-3.6-13.1-3.1-19.8,1.2,8.6,7.4,16,15,20.5,7.9,4.7,17.1,6.7,26.2,8,18.6,2.7,38.1,2.6,55.6-4,17.5-6.7,32.6-20.9,36.5-38.8.1-.6.2-1.1.3-1.7h.2Z"/><path class="cls-16" d="M436.2,212.3c-10.9.5-24.6,6.1-34.1,9-5.3,1.6-10.6,3.4-15.8,5.3-7.1,2.6-14.1,5.4-21,8.4-3.2,1.4-6.3,2.9-9.4,4.5,5.5-1.9,11.8-1.7,17.7-.7,7.1,1.2,14.1,3.3,21.3,3.8,7.2.5,15-1,19.8-6.1,3.4-3.5,4.8-8.3,6.6-12.8,1.8-4.5,8.4-9.4,18.5-11.4h0c-1.2-.1-2.4-.1-3.7,0Z"/><path class="cls-17" d="M410.8,228.1c-1.6,3.5-5.2,6-9,6.8-7.1,1.4-3.8-4.1-.9-7.4,1.9-2.1,4.6-3.6,7.5-3.4,1.1,0,2.3.5,2.7,1.5.4.8,0,1.7-.3,2.5Z"/><path class="cls-3" d="M448.5,213.1c-.2.4-.7.7-1.1.6l-.2.5s0,0,0,0c0,0-.2,0-.2-.1-2-.8-4.2-1.4-6.5-1.6-.1,0-.3,0-.4,0-1.2,0-2.4-.1-3.7,0v-.4c2.2-2.1,3.4-4.2,5.7-6.3-.5,1.9,1.8,3.9,3.8,3.4-.2,1.8,1.1,3.5,2.8,4.1Z"/><path class="cls-11" d="M467.2,256.5c0,.6-.2,1.2-.3,1.7-3.9,17.9-19.1,32.2-36.5,38.8-17.5,6.7-37,6.7-55.6,4-9.1-1.3-18.3-3.3-26.2-8-7.6-4.5-13.8-12-15-20.5,0-.3,0-.6-.1-.9-.8-8.6,3.5-17,9.7-23,3.8-3.6,8.1-6.6,12.8-9.1,0,0,0,0,0,0,3.1-1.6,6.2-3.1,9.4-4.5,6.9-3.1,13.9-5.9,21-8.4-11.9,3.5-44.6,18-53.9,24-9.6,6.1-14.9,16.6-15.3,27.5-.5,12.8,10.7,24.1,22.8,30.1,3.9,1.9,8.6,3.4,13.6,4.4,10.4,2.2,22.1,2.6,31.2,2.1,27.4-1.6,75.5-11.1,82.8-58.1h-.2Z"/><path class="cls-11" d="M447.2,214.2s0,0,0,0c0,0-.2,0-.2-.1-2-.8-4.2-1.4-6.5-1.6-.1,0-.3,0-.4,0-1.2,0-2.4-.1-3.7,0-10.9.5-24.6,6.1-34.1,9-5.3,1.6-10.6,3.4-15.8,5.3-7.1,2.6-14.1,5.4-21,8.4-3.2,1.4-6.3,2.9-9.4,4.5,0,0,0,0,0,0-4.6,2.5-9,5.4-12.8,9.1-6.2,6-10.5,14.5-9.7,23,0,.3,0,.6.1.9,1.2,8.6,7.4,16,15,20.5,7.9,4.7,17.1,6.7,26.2,8,18.6,2.7,38.1,2.6,55.6-4,17.5-6.7,32.6-20.9,36.5-38.8.1-.6.2-1.1.3-1.7,2.3-14.6-5.1-36-20-42.3Z"/><path class="cls-12" d="M147.7,173.8s0,0,.1,0c0,0,.2,0,.2,0,2.2-.3,4.4-.3,6.7,0,.1,0,.3,0,.4,0,1.2.2,2.4.5,3.6.9,10.4,3.2,22.3,11.9,30.9,17.1,4.8,2.9,9.5,5.9,14.1,9,6.3,4.2,12.3,8.7,18.2,13.3,2.7,2.1,5.4,4.4,8,6.7,0,0,0,0,0,0,3.9,3.6,7.4,7.5,10.2,11.9,4.5,7.4,6.7,16.6,3.7,24.7-.1.3-.2.6-.3.8-3.3,8-11.1,13.7-19.6,16.2-8.8,2.6-18.2,2.3-27.3,1.3-18.7-2-37.6-6.8-52.9-17.6-15.3-10.7-26.5-28.3-25.9-46.6,0-.6,0-1.2.1-1.7,1.4-14.7,13.8-33.7,29.8-36.1Z"/><path class="cls-18" d="M117.9,210c0,.6,0,1.2-.1,1.7-.6,18.3,10.6,35.9,25.9,46.6,15.3,10.8,34.2,15.6,52.9,17.6,9.1,1,18.6,1.3,27.3-1.3,8.5-2.5,16.4-8.2,19.6-16.2.1-.3.2-.5.3-.8,2.9-8.1.8-17.3-3.7-24.7-2.7-4.5-6.3-8.3-10.2-11.9,0,0,0,0,0,0-2.6-2.3-5.3-4.6-8-6.7-5.9-4.7-12-9.1-18.2-13.3,10.6,6.3,38.8,28.4,46.4,36.5,7.8,8.3,10.4,19.7,8.1,30.5-2.6,12.5-16.3,20.7-29.5,23.6-4.3.9-9.2,1.2-14.3.9-10.6-.4-22.1-2.9-30.8-5.7-26.2-8.2-70.4-29.3-66-76.7h.2Z"/><path class="cls-14" d="M117.7,209.9c-4.4,47.4,39.8,68.5,66,76.7,8.7,2.7,20.2,5.2,30.8,5.7,8.4-2.9,15.9-8.3,21.2-15.5,4-5.4,6.7-11.8,7.9-18.5-3.3,8-11.1,13.7-19.6,16.2-8.8,2.6-18.2,2.3-27.3,1.3-18.7-2-37.6-6.8-52.9-17.6-15.3-10.7-26.5-28.3-25.9-46.6,0-.6,0-1.2.1-1.7h-.2Z"/><path class="cls-16" d="M158.8,174.8c10.4,3.2,22.3,11.9,30.9,17.1,4.8,2.9,9.5,5.9,14.1,9,6.3,4.2,12.3,8.7,18.2,13.3,2.7,2.1,5.4,4.4,8,6.7-4.9-3.2-11-4.6-17-5.1-7.2-.6-14.5-.2-21.6-1.5-7.1-1.3-14.3-4.7-17.7-10.7-2.4-4.3-2.6-9.2-3.3-14-.7-4.8-5.8-11.2-15.1-15.6h0c1.2.2,2.4.5,3.6.8Z"/><path class="cls-17" d="M179.5,196.3c.7,3.8,3.5,7.1,7.1,8.8,6.5,3.1,4.7-3.1,2.7-6.9-1.3-2.5-3.6-4.6-6.4-5.1-1.1-.2-2.3,0-3,.8-.5.7-.5,1.6-.3,2.5Z"/><path class="cls-3" d="M146.7,172.5c0,.4.5.8,1,.9v.5c.1,0,.2,0,.2,0,0,0,.2,0,.2,0,2.2-.3,4.4-.3,6.7,0,.1,0,.3,0,.4,0,1.2.2,2.4.5,3.6.9v-.4c-1.5-2.6-2.2-4.9-3.8-7.5,0,2-2.7,3.4-4.5,2.3-.3,1.7-1.9,3.2-3.8,3.3Z"/><path class="cls-11" d="M117.9,210c0,.6,0,1.2-.1,1.7-.6,18.3,10.6,35.9,25.9,46.6,15.3,10.8,34.2,15.6,52.9,17.6,9.1,1,18.6,1.3,27.3-1.3,8.5-2.5,16.4-8.2,19.6-16.2.1-.3.2-.5.3-.8,2.9-8.1.8-17.3-3.7-24.7-2.7-4.5-6.3-8.3-10.2-11.9,0,0,0,0,0,0-2.6-2.3-5.3-4.6-8-6.7-5.9-4.7-12-9.1-18.2-13.3,10.6,6.3,38.8,28.4,46.4,36.5,7.8,8.3,10.4,19.7,8.1,30.5-2.6,12.5-16.3,20.7-29.5,23.6-4.3.9-9.2,1.2-14.3.9-10.6-.4-22.1-2.9-30.8-5.7-26.2-8.2-70.4-29.3-66-76.7h.2Z"/><path class="cls-11" d="M147.7,173.8s0,0,.1,0c0,0,.2,0,.2,0,2.2-.3,4.4-.3,6.7,0,.1,0,.3,0,.4,0,1.2.2,2.4.5,3.6.9,10.4,3.2,22.3,11.9,30.9,17.1,4.8,2.9,9.5,5.9,14.1,9,6.3,4.2,12.3,8.7,18.2,13.3,2.7,2.1,5.4,4.4,8,6.7,0,0,0,0,0,0,3.9,3.6,7.4,7.5,10.2,11.9,4.5,7.4,6.7,16.6,3.7,24.7-.1.3-.2.6-.3.8-3.3,8-11.1,13.7-19.6,16.2-8.8,2.6-18.2,2.3-27.3,1.3-18.7-2-37.6-6.8-52.9-17.6-15.3-10.7-26.5-28.3-25.9-46.6,0-.6,0-1.2.1-1.7,1.4-14.7,13.8-33.7,29.8-36.1Z"/><path class="cls-12" d="M89.8,212.7s0,0,0,0c0,0,.2,0,.2-.1,2-.8,4.2-1.4,6.5-1.6.1,0,.3,0,.4,0,1.2,0,2.4-.1,3.7,0,10.9.5,24.6,6.1,34.1,9,5.3,1.6,10.6,3.4,15.8,5.3,7.1,2.6,14.1,5.4,21,8.4,3.2,1.4,6.3,2.9,9.4,4.5,0,0,0,0,0,0,4.6,2.5,9,5.4,12.8,9.1,6.2,6,10.5,14.5,9.7,23,0,.3,0,.6-.1.9-1.2,8.6-7.4,16-15,20.5-7.9,4.7-17.1,6.7-26.2,8-18.6,2.7-38.1,2.6-55.6-4-17.5-6.7-32.6-20.9-36.5-38.8-.1-.6-.2-1.1-.3-1.7-2.3-14.6,5.1-36,20-42.3Z"/><path class="cls-18" d="M69.7,255.1c0,.6.2,1.2.3,1.7,3.9,17.9,19.1,32.2,36.5,38.8,17.5,6.7,37,6.7,55.6,4,9.1-1.3,18.3-3.3,26.2-8,7.6-4.5,13.8-12,15-20.5,0-.3,0-.6.1-.9.8-8.6-3.5-17-9.7-23-3.7-3.6-8.1-6.6-12.8-9.1,0,0,0,0,0,0-3.1-1.6-6.2-3.1-9.4-4.5-6.9-3.1-13.9-5.9-21-8.4,11.9,3.5,44.6,18,53.9,24,9.6,6.1,14.9,16.6,15.3,27.5.5,12.8-10.7,24.1-22.8,30.1-3.9,1.9-8.6,3.4-13.6,4.4-10.4,2.2-22.1,2.6-31.2,2.1-27.4-1.6-75.5-11.1-82.8-58.1h.2Z"/><path class="cls-14" d="M69.5,255.1c7.3,47,55.4,56.6,82.8,58.1,9.1.5,20.8,0,31.2-2.1,7.4-4.9,13.4-12,16.8-20.2,2.5-6.2,3.6-13.1,3.1-19.8-1.2,8.6-7.4,16-15,20.5-7.9,4.7-17.1,6.7-26.2,8-18.6,2.7-38.1,2.6-55.6-4-17.5-6.7-32.6-20.9-36.5-38.8-.1-.6-.2-1.1-.3-1.7h-.2Z"/><path class="cls-16" d="M100.7,210.9c10.9.5,24.6,6.1,34.1,9,5.3,1.6,10.6,3.4,15.8,5.3,7.1,2.6,14.1,5.4,21,8.4,3.2,1.4,6.3,2.9,9.4,4.5-5.5-1.9-11.8-1.7-17.7-.7-7.1,1.2-14.1,3.3-21.3,3.8-7.2.5-15-1-19.8-6.1-3.4-3.5-4.8-8.3-6.6-12.8-1.8-4.5-8.4-9.4-18.5-11.4h0c1.2-.1,2.4-.1,3.7,0Z"/><path class="cls-17" d="M126.1,226.7c1.6,3.5,5.2,6,9,6.8,7.1,1.4,3.8-4.1.9-7.4-1.9-2.1-4.6-3.6-7.5-3.4-1.1,0-2.3.5-2.7,1.5-.4.8,0,1.7.3,2.5Z"/><path class="cls-3" d="M88.4,211.7c.2.4.7.7,1.1.6l.2.5s0,0,0,0c0,0,.2,0,.2-.1,2-.8,4.2-1.4,6.5-1.6.1,0,.3,0,.4,0,1.2,0,2.4-.1,3.7,0v-.4c-2.2-2.1-3.4-4.2-5.7-6.3.5,1.9-1.8,3.9-3.8,3.4.2,1.8-1.1,3.5-2.8,4.1Z"/><path class="cls-11" d="M69.7,255.1c0,.6.2,1.2.3,1.7,3.9,17.9,19.1,32.2,36.5,38.8,17.5,6.7,37,6.7,55.6,4,9.1-1.3,18.3-3.3,26.2-8,7.6-4.5,13.8-12,15-20.5,0-.3,0-.6.1-.9.8-8.6-3.5-17-9.7-23-3.7-3.6-8.1-6.6-12.8-9.1,0,0,0,0,0,0-3.1-1.6-6.2-3.1-9.4-4.5-6.9-3.1-13.9-5.9-21-8.4,11.9,3.5,44.6,18,53.9,24,9.6,6.1,14.9,16.6,15.3,27.5.5,12.8-10.7,24.1-22.8,30.1-3.9,1.9-8.6,3.4-13.6,4.4-10.4,2.2-22.1,2.6-31.2,2.1-27.4-1.6-75.5-11.1-82.8-58.1h.2Z"/><path class="cls-11" d="M89.8,212.7s0,0,0,0c0,0,.2,0,.2-.1,2-.8,4.2-1.4,6.5-1.6.1,0,.3,0,.4,0,1.2,0,2.4-.1,3.7,0,10.9.5,24.6,6.1,34.1,9,5.3,1.6,10.6,3.4,15.8,5.3,7.1,2.6,14.1,5.4,21,8.4,3.2,1.4,6.3,2.9,9.4,4.5,0,0,0,0,0,0,4.6,2.5,9,5.4,12.8,9.1,6.2,6,10.5,14.5,9.7,23,0,.3,0,.6-.1.9-1.2,8.6-7.4,16-15,20.5-7.9,4.7-17.1,6.7-26.2,8-18.6,2.7-38.1,2.6-55.6-4-17.5-6.7-32.6-20.9-36.5-38.8-.1-.6-.2-1.1-.3-1.7-2.3-14.6,5.1-36,20-42.3Z"/></svg>