<?xml version="1.0" encoding="UTF-8"?><svg id="Layer_1" xmlns="http://www.w3.org/2000/svg" width="147" height="100" viewBox="0 0 147 100"><defs><style>.cls-1,.cls-2,.cls-3{fill:none;}.cls-1,.cls-2,.cls-3,.cls-4,.cls-5,.cls-6,.cls-7{stroke-width:.3px;}.cls-1,.cls-2,.cls-4,.cls-5,.cls-6,.cls-7{stroke-linecap:round;stroke-linejoin:round;}.cls-1,.cls-5,.cls-6{stroke:#231f20;}.cls-2,.cls-3,.cls-4,.cls-7{stroke:#000;}.cls-3{stroke-miterlimit:10;}.cls-4{fill:#576e1b;}.cls-5{fill:#71af55;}.cls-6{fill:#7a5622;}.cls-7{fill:#81ac49;}.cls-8{fill:#f3fddc;}.cls-8,.cls-9,.cls-10,.cls-11,.cls-12,.cls-13,.cls-14{stroke-width:0px;}.cls-9{fill:#f8e3e2;}.cls-10{fill:#609342;}.cls-11{fill:#86bc69;}.cls-12{fill:#ddefac;}.cls-13{fill:#ad581e;}.cls-14{fill:#6aa04d;}</style></defs><rect class="cls-9" x="0" y="0" width="147" height="100"/><path class="cls-5" d="M107.7,48.4c-2.3,11.9-15.6,33.9-24.6,29.3-3.9-1.9-9.1-1-11.6-.3-10.2,3-23.5-30.9-20.5-42.1,4.2-15.3,16.8-14.2,29.7-10.9l3.7-.4c.8,0,.9-.2,1.7-.3,16.6-2.1,26.1,1.6,21.6,24.6Z"/><path class="cls-14" d="M102.8,61.3c-5.3,10.1-13.5,19.6-19.8,16.4-3.9-1.9-9.1-1-11.6-.3-8.7,2.6-19.7-21.8-20.8-35.9.9,2,2.3,3.7,3.7,5.3,2.3,2.5,4.8,4.7,6.7,7.4,3.6,5.2,4.9,12.5,10.3,15.7,3,1.8,6.9.2,10.4-.2,7.9-.9,15.3-3.4,21-8.4Z"/><path class="cls-1" d="M84.5,24.1s0,0,0,0"/><path class="cls-1" d="M88.8,26.8c0-.1-2.5.6-3.3.9-1.3.6-2.2,1.1-3.7.9-.3,0-.7,0-1-.2"/><path class="cls-1" d="M80.7,28.4c-2.4-.6-4.5-2.2-7.1-2.6"/><path class="cls-11" d="M104.1,37.5c-.6,1.6-1.4.5-1.9-.3-.5-.7-1.1-1.7-1.8-2.5-1.1-1.5-3.3-2.5-4.9-2.8-1.3-.2-2.1-1.1-1.5-2.4.7-1.3,2.6-2,4-1.7,3,.3,5.1,2.7,5.9,5.6.4,1.3.7,2.8.3,4.1h0Z"/><path class="cls-11" d="M69.5,37.5c-.2.3-.6.4-.9.5-3.4.7-7.4.3-9.8-2.4-.7-.8-1.3-1.8-1.5-2.9-.4-1.8.7-4.1,2.8-3.5,1.3.3,2,1.6,2.9,2.4.7.7,1.6,1.1,2.6,1.5,1.5.6,3,1.3,3.8,2.7.3.5.5,1.2.1,1.7h0Z"/><path class="cls-1" d="M107.7,48.4c-2.3,11.9-15.6,33.9-24.6,29.3-3.9-1.9-9.1-1-11.6-.3-10.2,3-23.5-30.9-20.5-42.1,4.2-15.3,16.8-14.2,29.7-10.9l3.7-.4c.8,0,.9-.2,1.7-.3,16.6-2.1,26.1,1.6,21.6,24.6Z"/><path class="cls-6" d="M92.5,11.9c-3.1,3.6-5.9,7.7-8,12.2-.7,1.4-1.3,2.9-1.8,4.4-.5.2-1.1,0-1.7,0-.4-.1-.7-.3-.9-.4,0-.4.1-.9.2-1.3.1-.7.3-1.4.5-2.1h0c0-.1,0-.2.1-.3,1.5-4.8,4.5-9.5,6.7-14,1.9.5,2.1,1.7,4.8,1.7Z"/><path class="cls-7" d="M81.9,27.4c.8,2.5-12.2.2-13.9-.4-4.1-1.3-11.4-5.5-11.8-10.3,4.6,2.9,8.4.9,13.1.2,6.8-1,11.3,4.8,12.9,10.4h-.3Z"/><path class="cls-2" d="M81.4,27.4c-2-1.2-5.1-4-7.7-4.9-2.7-.9-5.9.3-8.5-1"/><path class="cls-8" d="M132.2,56.7s0,0,0,0c0,0,0,0,0,0-.7-.3-1.4-.5-2.1-.5,0,0,0,0-.1,0-.4,0-.8,0-1.2,0-3.6.2-8.1,2-11.2,2.9-1.8.5-3.5,1.1-5.2,1.7-2.3.8-4.6,1.8-6.9,2.8-1,.5-2.1,1-3.1,1.5,0,0,0,0,0,0-1.5.8-3,1.8-4.2,3-2,2-3.5,4.8-3.2,7.6,0,0,0,.2,0,.3.4,2.8,2.4,5.3,4.9,6.7,2.6,1.5,5.6,2.2,8.6,2.6,6.1.9,12.5.9,18.3-1.3,5.7-2.2,10.7-6.9,12-12.8,0-.2,0-.4.1-.6.7-4.8-1.7-11.8-6.6-13.9Z"/><path class="cls-14" d="M138.8,70.6c0,.2,0,.4-.1.6-1.3,5.9-6.3,10.6-12,12.8-5.7,2.2-12.1,2.2-18.3,1.3-3-.4-6-1.1-8.6-2.6-2.5-1.5-4.5-3.9-4.9-6.7,0,0,0-.2,0-.3-.3-2.8,1.1-5.6,3.2-7.6,1.2-1.2,2.7-2.2,4.2-3,0,0,0,0,0,0,1-.5,2-1,3.1-1.5,2.3-1,4.6-1.9,6.9-2.8-3.9,1.2-14.6,5.9-17.7,7.9-3.1,2-4.9,5.4-5,9-.2,4.2,3.5,7.9,7.5,9.9,1.3.6,2.8,1.1,4.5,1.5,3.4.7,7.3.9,10.3.7,9-.5,24.8-3.7,27.2-19.1h0Z"/><path class="cls-10" d="M138.9,70.6c-2.4,15.4-18.2,18.6-27.2,19.1-3,.2-6.8,0-10.3-.7-2.4-1.6-4.4-3.9-5.5-6.6-.8-2.1-1.2-4.3-1-6.5.4,2.8,2.4,5.3,4.9,6.7,2.6,1.5,5.6,2.2,8.6,2.6,6.1.9,12.5.9,18.3-1.3,5.7-2.2,10.7-6.9,12-12.8,0-.2,0-.4.1-.6h0Z"/><path class="cls-12" d="M128.6,56.1c-3.6.2-8.1,2-11.2,2.9-1.8.5-3.5,1.1-5.2,1.7-2.3.8-4.6,1.8-6.9,2.8-1,.5-2.1,1-3.1,1.5,1.8-.6,3.9-.6,5.8-.2,2.3.4,4.6,1.1,7,1.3,2.4.2,4.9-.3,6.5-2,1.1-1.2,1.6-2.7,2.2-4.2.6-1.5,2.7-3.1,6.1-3.7h0c-.4,0-.8,0-1.2,0Z"/><path class="cls-13" d="M120.3,61.3c-.5,1.1-1.7,2-3,2.2-2.3.5-1.2-1.4-.3-2.4.6-.7,1.5-1.2,2.5-1.1.4,0,.8.2.9.5.1.3,0,.6,0,.8Z"/><path class="cls-4" d="M132.6,56.3c0,.1-.2.2-.4.2v.2c0,0,0,0-.1,0,0,0,0,0,0,0-.7-.3-1.4-.5-2.1-.5,0,0,0,0-.1,0-.4,0-.8,0-1.2,0h0c.7-.8,1.1-1.5,1.9-2.2-.2.6.6,1.3,1.3,1.1,0,.6.4,1.2.9,1.3Z"/><path class="cls-3" d="M138.8,70.6c0,.2,0,.4-.1.6-1.3,5.9-6.3,10.6-12,12.8-5.7,2.2-12.1,2.2-18.3,1.3-3-.4-6-1.1-8.6-2.6-2.5-1.5-4.5-3.9-4.9-6.7,0,0,0-.2,0-.3-.3-2.8,1.1-5.6,3.2-7.6,1.2-1.2,2.7-2.2,4.2-3,0,0,0,0,0,0,1-.5,2-1,3.1-1.5,2.3-1,4.6-1.9,6.9-2.8-3.9,1.2-14.6,5.9-17.7,7.9-3.1,2-4.9,5.4-5,9-.2,4.2,3.5,7.9,7.5,9.9,1.3.6,2.8,1.1,4.5,1.5,3.4.7,7.3.9,10.3.7,9-.5,24.8-3.7,27.2-19.1h0Z"/><path class="cls-3" d="M132.2,56.7s0,0,0,0c0,0,0,0,0,0-.7-.3-1.4-.5-2.1-.5,0,0,0,0-.1,0-.4,0-.8,0-1.2,0-3.6.2-8.1,2-11.2,2.9-1.8.5-3.5,1.1-5.2,1.7-2.3.8-4.6,1.8-6.9,2.8-1,.5-2.1,1-3.1,1.5,0,0,0,0,0,0-1.5.8-3,1.8-4.2,3-2,2-3.5,4.8-3.2,7.6,0,0,0,.2,0,.3.4,2.8,2.4,5.3,4.9,6.7,2.6,1.5,5.6,2.2,8.6,2.6,6.1.9,12.5.9,18.3-1.3,5.7-2.2,10.7-6.9,12-12.8,0-.2,0-.4.1-.6.7-4.8-1.7-11.8-6.6-13.9Z"/><path class="cls-8" d="M33.8,43.4s0,0,0,0c0,0,0,0,0,0,.7-.1,1.4,0,2.2,0,0,0,0,0,.1,0,.4,0,.8.2,1.2.3,3.4,1,7.3,3.9,10.1,5.6,1.6.9,3.1,1.9,4.6,3,2.1,1.4,4.1,2.9,6,4.4.9.7,1.8,1.4,2.6,2.2,0,0,0,0,0,0,1.3,1.2,2.4,2.5,3.3,3.9,1.5,2.4,2.2,5.5,1.2,8.1,0,0,0,.2-.1.3-1.1,2.6-3.7,4.5-6.5,5.3-2.9.9-6,.7-9,.4-6.1-.7-12.4-2.2-17.4-5.8-5-3.5-8.7-9.3-8.5-15.3,0-.2,0-.4,0-.6.5-4.8,4.5-11.1,9.8-11.9Z"/><path class="cls-14" d="M24,55.3c0,.2,0,.4,0,.6-.2,6,3.5,11.8,8.5,15.3,5,3.5,11.2,5.1,17.4,5.8,3,.3,6.1.4,9-.4,2.8-.8,5.4-2.7,6.5-5.3,0,0,0-.2.1-.3,1-2.7.3-5.7-1.2-8.1-.9-1.5-2.1-2.7-3.3-3.9,0,0,0,0,0,0-.8-.8-1.7-1.5-2.6-2.2-1.9-1.5-3.9-3-6-4.4,3.5,2.1,12.7,9.3,15.2,12,2.5,2.7,3.4,6.5,2.7,10-.9,4.1-5.4,6.8-9.7,7.7-1.4.3-3,.4-4.7.3-3.5-.1-7.2-1-10.1-1.9-8.6-2.7-23.1-9.6-21.7-25.2h0Z"/><path class="cls-10" d="M24,55.3c-1.5,15.6,13.1,22.5,21.7,25.2,2.9.9,6.6,1.7,10.1,1.9,2.8-.9,5.2-2.7,7-5.1,1.3-1.8,2.2-3.9,2.6-6.1-1.1,2.6-3.7,4.5-6.5,5.3-2.9.9-6,.7-9,.4-6.1-.7-12.4-2.2-17.4-5.8-5-3.5-8.7-9.3-8.5-15.3,0-.2,0-.4,0-.6h0Z"/><path class="cls-12" d="M37.5,43.7c3.4,1,7.3,3.9,10.1,5.6,1.6.9,3.1,1.9,4.6,3,2.1,1.4,4.1,2.9,6,4.4.9.7,1.8,1.4,2.6,2.2-1.6-1-3.6-1.5-5.6-1.7-2.4-.2-4.8,0-7.1-.5-2.3-.4-4.7-1.5-5.8-3.5-.8-1.4-.9-3-1.1-4.6-.2-1.6-1.9-3.7-5-5.1h0c.4,0,.8.2,1.2.3Z"/><path class="cls-13" d="M44.3,50.8c.2,1.2,1.2,2.3,2.3,2.9,2.1,1,1.5-1,.9-2.3-.4-.8-1.2-1.5-2.1-1.7-.4,0-.8,0-1,.3-.2.2-.2.5-.1.8Z"/><path class="cls-4" d="M33.5,43c0,.1.2.3.3.3v.2s0,0,0,0c0,0,0,0,0,0,.7-.1,1.4,0,2.2,0,0,0,0,0,.1,0,.4,0,.8.2,1.2.3h0c-.5-1-.8-1.8-1.3-2.6,0,.7-.9,1.1-1.5.8,0,.6-.6,1-1.2,1.1Z"/><path class="cls-3" d="M24,55.3c0,.2,0,.4,0,.6-.2,6,3.5,11.8,8.5,15.3,5,3.5,11.2,5.1,17.4,5.8,3,.3,6.1.4,9-.4,2.8-.8,5.4-2.7,6.5-5.3,0,0,0-.2.1-.3,1-2.7.3-5.7-1.2-8.1-.9-1.5-2.1-2.7-3.3-3.9,0,0,0,0,0,0-.8-.8-1.7-1.5-2.6-2.2-1.9-1.5-3.9-3-6-4.4,3.5,2.1,12.7,9.3,15.2,12,2.5,2.7,3.4,6.5,2.7,10-.9,4.1-5.4,6.8-9.7,7.7-1.4.3-3,.4-4.7.3-3.5-.1-7.2-1-10.1-1.9-8.6-2.7-23.1-9.6-21.7-25.2h0Z"/><path class="cls-3" d="M33.8,43.4s0,0,0,0c0,0,0,0,0,0,.7-.1,1.4,0,2.2,0,0,0,0,0,.1,0,.4,0,.8.2,1.2.3,3.4,1,7.3,3.9,10.1,5.6,1.6.9,3.1,1.9,4.6,3,2.1,1.4,4.1,2.9,6,4.4.9.7,1.8,1.4,2.6,2.2,0,0,0,0,0,0,1.3,1.2,2.4,2.5,3.3,3.9,1.5,2.4,2.2,5.5,1.2,8.1,0,0,0,.2-.1.3-1.1,2.6-3.7,4.5-6.5,5.3-2.9.9-6,.7-9,.4-6.1-.7-12.4-2.2-17.4-5.8-5-3.5-8.7-9.3-8.5-15.3,0-.2,0-.4,0-.6.5-4.8,4.5-11.1,9.8-11.9Z"/><path class="cls-8" d="M14.8,56.2s0,0,0,0c0,0,0,0,0,0,.7-.3,1.4-.5,2.1-.5,0,0,0,0,.1,0,.4,0,.8,0,1.2,0,3.6.2,8.1,2,11.2,2.9,1.8.5,3.5,1.1,5.2,1.7,2.3.8,4.6,1.8,6.9,2.8,1,.5,2.1,1,3.1,1.5,0,0,0,0,0,0,1.5.8,3,1.8,4.2,3,2,2,3.5,4.8,3.2,7.6,0,0,0,.2,0,.3-.4,2.8-2.4,5.3-4.9,6.7-2.6,1.5-5.6,2.2-8.6,2.6-6.1.9-12.5.9-18.3-1.3-5.7-2.2-10.7-6.9-12-12.8,0-.2,0-.4-.1-.6-.7-4.8,1.7-11.8,6.6-13.9Z"/><path class="cls-14" d="M8.2,70.1c0,.2,0,.4.1.6,1.3,5.9,6.3,10.6,12,12.8,5.7,2.2,12.1,2.2,18.3,1.3,3-.4,6-1.1,8.6-2.6,2.5-1.5,4.5-3.9,4.9-6.7,0,0,0-.2,0-.3.3-2.8-1.1-5.6-3.2-7.6-1.2-1.2-2.7-2.2-4.2-3,0,0,0,0,0,0-1-.5-2-1-3.1-1.5-2.3-1-4.6-1.9-6.9-2.8,3.9,1.2,14.6,5.9,17.7,7.9,3.1,2,4.9,5.4,5,9,.2,4.2-3.5,7.9-7.5,9.9-1.3.6-2.8,1.1-4.5,1.5-3.4.7-7.3.9-10.3.7-9-.5-24.8-3.7-27.2-19.1h0Z"/><path class="cls-10" d="M8.1,70.1c2.4,15.4,18.2,18.6,27.2,19.1,3,.2,6.8,0,10.3-.7,2.4-1.6,4.4-3.9,5.5-6.6.8-2.1,1.2-4.3,1-6.5-.4,2.8-2.4,5.3-4.9,6.7-2.6,1.5-5.6,2.2-8.6,2.6-6.1.9-12.5.9-18.3-1.3-5.7-2.2-10.7-6.9-12-12.8,0-.2,0-.4-.1-.6h0Z"/><path class="cls-12" d="M18.4,55.6c3.6.2,8.1,2,11.2,2.9,1.8.5,3.5,1.1,5.2,1.7,2.3.8,4.6,1.8,6.9,2.8,1,.5,2.1,1,3.1,1.5-1.8-.6-3.9-.6-5.8-.2-2.3.4-4.6,1.1-7,1.3-2.4.2-4.9-.3-6.5-2-1.1-1.2-1.6-2.7-2.2-4.2-.6-1.5-2.7-3.1-6.1-3.7h0c.4,0,.8,0,1.2,0Z"/><path class="cls-13" d="M26.7,60.8c.5,1.1,1.7,2,3,2.2,2.3.5,1.2-1.4.3-2.4-.6-.7-1.5-1.2-2.5-1.1-.4,0-.8.2-.9.5-.1.3,0,.6,0,.8Z"/><path class="cls-4" d="M14.4,55.9c0,.1.2.2.4.2v.2c0,0,0,0,.1,0,0,0,0,0,0,0,.7-.3,1.4-.5,2.1-.5,0,0,0,0,.1,0,.4,0,.8,0,1.2,0h0c-.7-.8-1.1-1.5-1.9-2.2.2.6-.6,1.3-1.3,1.1,0,.6-.4,1.2-.9,1.3Z"/><path class="cls-3" d="M8.2,70.1c0,.2,0,.4.1.6,1.3,5.9,6.3,10.6,12,12.8,5.7,2.2,12.1,2.2,18.3,1.3,3-.4,6-1.1,8.6-2.6,2.5-1.5,4.5-3.9,4.9-6.7,0,0,0-.2,0-.3.3-2.8-1.1-5.6-3.2-7.6-1.2-1.2-2.7-2.2-4.2-3,0,0,0,0,0,0-1-.5-2-1-3.1-1.5-2.3-1-4.6-1.9-6.9-2.8,3.9,1.2,14.6,5.9,17.7,7.9,3.1,2,4.9,5.4,5,9,.2,4.2-3.5,7.9-7.5,9.9-1.3.6-2.8,1.1-4.5,1.5-3.4.7-7.3.9-10.3.7-9-.5-24.8-3.7-27.2-19.1h0Z"/><path class="cls-3" d="M14.8,56.2s0,0,0,0c0,0,0,0,0,0,.7-.3,1.4-.5,2.1-.5,0,0,0,0,.1,0,.4,0,.8,0,1.2,0,3.6.2,8.1,2,11.2,2.9,1.8.5,3.5,1.1,5.2,1.7,2.3.8,4.6,1.8,6.9,2.8,1,.5,2.1,1,3.1,1.5,0,0,0,0,0,0,1.5.8,3,1.8,4.2,3,2,2,3.5,4.8,3.2,7.6,0,0,0,.2,0,.3-.4,2.8-2.4,5.3-4.9,6.7-2.6,1.5-5.6,2.2-8.6,2.6-6.1.9-12.5.9-18.3-1.3-5.7-2.2-10.7-6.9-12-12.8,0-.2,0-.4-.1-.6-.7-4.8,1.7-11.8,6.6-13.9Z"/></svg>