<?xml version="1.0" encoding="UTF-8"?><svg id="Layer_1" xmlns="http://www.w3.org/2000/svg" width="86.5" height="96.6" viewBox="0 0 86.5 96.6"><defs><style>.cls-1{fill:#fff;opacity:.7;}.cls-1,.cls-2,.cls-3,.cls-4{stroke-width:0px;}.cls-2{opacity:.1;}.cls-5{fill:none;stroke:#231f20;stroke-miterlimit:10;stroke-width:1.6px;}.cls-3{fill:#7a5622;}.cls-4{fill:#00a048;}</style></defs><path class="cls-4" d="M85.1,33.2c-6.1-22.3-24.5-20.6-43.3-15.9h0c.4,1.6.7,3.2.9,5-.8.5-2.5,1.2-3.7.7-.8-2.5-1.6-4.5-2.5-6.4h0c-1.2,0-1.4-.2-2.4-.4C9.7,13.2-4.1,18.7,2.4,52.2c3.4,17.4,22.7,49.4,35.9,42.7,5.6-2.8,13.3-1.5,16.9-.4,14.9,4.4,34.2-45.1,29.8-61.3Z"/><path class="cls-1" d="M10.1,26c-1.7,2-3.2,7.8-2.5,10,1.5,4.9,2.8-1.9,6.5-5,3.7-3.2,7.8-2.4,8.4-3.8,1.5-3.3-2.2-5.1-4.9-5-2.1.1-5.1,1.2-7.4,3.8Z"/><path class="cls-3" d="M34.4.8c-2.7.7-3,2.5-7.1,2.4,4.4,5,6.8,8.5,9,13.5h0c.8,1.9,1.6,4,2.5,6.4,1.2.5,2.9-.2,3.7-.7-.2-1.8-.5-3.5-.9-5-1.5-5.8-4-10-7.2-16.5Z"/><path class="cls-2" d="M72.2,70.6c-3.4,8.6-9.5,16.8-12.1,20.3,6.8-1.7,11.9-13,14.2-18.8,3.5-8.6,6.8-16.6,8.2-25.8h0c-.3-.4.4-1.2-.3-.9-3.3,7.2-7.1,18-9.9,25.2Z"/><path class="cls-5" d="M41.7,17.3c18.8-4.7,37.3-6.4,43.3,15.9,4.4,16.2-14.9,65.7-29.8,61.3-3.7-1.1-11.3-2.4-16.9.4-13.2,6.6-32.5-25.3-35.9-42.7C-4.1,18.7,9.7,13.2,33.9,16.3c1,.1,1.2.3,2.4.4"/><path class="cls-5" d="M34.4.8c3.2,6.5,5.8,10.7,7.2,16.5.4,1.5.7,3.2.9,5-.8.5-2.5,1.2-3.7.7-.8-2.5-1.6-4.5-2.5-6.4h0c-2.2-4.9-4.6-8.5-9-13.5,4,0,4.3-1.7,7.1-2.4"/><path class="cls-5" d="M52,19.3c-4.2.6-7.7,3.7-11.8,4-2.1.2-3.5-.5-5.4-1.3-1.1-.5-4.9-1.5-4.8-1.3"/></svg>