<?xml version="1.0" encoding="UTF-8"?><svg id="Layer_4" xmlns="http://www.w3.org/2000/svg" width="16in" height="2.5in" viewBox="0 0 1150.2 183.1"><defs><style>.cls-1{fill:#b59373;}.cls-1,.cls-2{stroke-linecap:round;stroke-linejoin:round;}.cls-1,.cls-2,.cls-3,.cls-4{stroke:#241f20;stroke-width:3px;}.cls-2{fill:#c9ae85;}.cls-3{fill:#282827;}.cls-3,.cls-4{stroke-miterlimit:10;}.cls-4{fill:#4a4543;}</style></defs><polygon class="cls-3" points="1148.5 70.6 1148.4 91.6 1110.5 91.5 675.1 90.4 675.1 90.3 672.5 90.3 672.5 90.4 493 89.9 493 89.9 491.6 89.9 41.9 88.7 41.9 88.8 1.8 88.7 1.9 67.2 1148 70.1 1148.5 70.6"/><polygon class="cls-4" points="1148 70.1 1.9 67.2 1.3 66.6 74.2 1.4 1078.2 1.4 1148 70.1"/><polygon class="cls-1" points="1110.5 91.7 1110.3 180.8 674.8 179.6 491.3 179.8 41.6 178.6 41.9 89 491.6 90.1 493 90.2 672.5 90.6 675.1 90.6 1110.5 91.7"/><path class="cls-2" d="M252.5,167.3c0,.8-1.4,1.4-3.1,1.4H50.2c-1.7,0-3.1-.6-3.1-1.4v-69.9c0-.8,1.4-1.4,3.1-1.4h199.2c1.7,0,3.1.6,3.1,1.4v69.9Z"/><path class="cls-2" d="M483,99.5v66.7c0,1.9-1.4,3.4-3.1,3.4h-218.9c-1.7,0-3.1-1.5-3.1-3.4v-66.7c0-1.9,1.4-3.4,3.2-3.4h218.9c1.7,0,3.2,1.5,3.2,3.4Z"/><path class="cls-2" d="M886.9,99.6v69.7c0,1-1.4,1.9-3.1,1.9h-196.7c-1.7,0-3.1-.8-3.1-1.9v-69.7c0-1,1.4-1.9,3.1-1.9h196.7c1.7,0,3.1.8,3.1,1.9Z"/><path class="cls-2" d="M1101,98.4v72.1c0,.4-1.4.7-3.1.7h-199.8c-1.7,0-3.1-.3-3.1-.7v-72.1c0-.4,1.4-.7,3.1-.7h199.8c1.7,0,3.1.3,3.1.7Z"/><rect class="cls-1" x="537.9" y="43.8" width="91.8" height="183.5" transform="translate(446.8 719) rotate(-89.9)"/></svg>