<?xml version="1.0" encoding="UTF-8"?><svg id="Layer_1" xmlns="http://www.w3.org/2000/svg" width="147" height="100" viewBox="0 0 147 100"><defs><style>.cls-1{fill:#fff;opacity:.4;}.cls-1,.cls-2,.cls-3,.cls-4,.cls-5,.cls-6,.cls-7,.cls-8{stroke-width:0px;}.cls-9{fill:none;stroke:#000;stroke-linecap:round;stroke-linejoin:round;stroke-width:.3px;}.cls-2{fill:#f2f6f7;}.cls-3{fill:#9acee3;}.cls-4{fill:#a3d7f0;}.cls-5{fill:#b2e3f7;}.cls-6{fill:#8cc4db;}.cls-7{fill:#fff9f0;}.cls-8{fill:#ebf0f2;}</style></defs><rect class="cls-7" x="0" y="0" width="147" height="100"/><path class="cls-2" d="M117.6,40.8c0,3.9-7.3,7.1-16.4,7.1s-16.4-3.2-16.4-7.1,7.3-7.1,16.4-7.1,16.4,3.2,16.4,7.1Z"/><path class="cls-8" d="M117.6,40.8v49.5c0,3.9-7.3,7.1-16.4,7.1s-16.4-3.2-16.4-7.1v-49.5c0,3.9,7.3,7.1,16.4,7.1s16.4-3.2,16.4-7.1Z"/><path class="cls-4" d="M84.9,73.4v17.1s0,0,0,0c0,3.9,7.3,7.1,16.3,7.1s16.3-3.2,16.3-7.1v-16.4s0-1.5,0-1.5c0-.2-.1-.4-.2-.6,0-.2,0-.3,0-.5,0-3.9-7.3-7.1-16.3-7.1s-16.3,3.2-16.3,7.1,0,0,0,0"/><path class="cls-4" d="M86.2,87.8c.2-.2.4-.4.6-.6-.2.2-.4.4-.6.6Z"/><path class="cls-3" d="M86.2,87.8c.2-.2.4-.4.6-.6-.2.2-.4.4-.6.6Z"/><path class="cls-3" d="M117.5,90.5c-17.6-11.7-32.6,0-32.6,0h0c0-3.9,7.3-7.1,16.3-7.1s16.3,3.2,16.3,7.1Z"/><path class="cls-6" d="M101,79.6c-12.2,0-15.3-4.5-16.1-6.8,1.4,3.3,8,5.8,16,5.8s16.3-3.2,16.3-7.1c0,0,1.5,8-16.3,8Z"/><path class="cls-5" d="M115.5,71.6c0,1.4-1.7,3-6.1,4.8-.7.3,3.2-1.9,3.4-4.8,0-1.5-.8-3.2-3.9-4.9.2,0,6.8,1.9,6.6,4.9Z"/><path class="cls-9" d="M117.5,40.9c0,3.9-7.3,7.1-16.4,7.1s-16.4-3.2-16.4-7.1,7.3-7.1,16.4-7.1,16.4,3.2,16.4,7.1Z"/><path class="cls-9" d="M117.5,40.9v49.5c0,3.9-7.3,7.1-16.4,7.1s-16.4-3.2-16.4-7.1v-49.5c0,3.9,7.3,7.1,16.4,7.1s16.4-3.2,16.4-7.1Z"/><path class="cls-1" d="M92.7,93.6l-1.9-.7c-.7-.3-1.2-1.1-1.2-2v-40.4c0-1,.8-1.7,1.5-1.5l2.2.8c.7.3,1.1,1.1,1.1,2v40.1c0,1.1-.9,2-1.7,1.7Z"/><path class="cls-2" d="M87.5,35.2c-3.9.4-7.7-6.7-8.6-15.7-.8-9,1.6-16.6,5.5-17,3.9-.4,7.7,6.7,8.6,15.7.8,9-1.6,16.6-5.5,17Z"/><path class="cls-8" d="M87.5,35.2l-49.3,4.6c-3.9.4-7.7-6.7-8.6-15.7-.8-9,1.6-16.6,5.5-17l49.3-4.6c-3.9.4-6.4,8-5.5,17,.8,9,4.7,16,8.6,15.7Z"/><path class="cls-5" d="M82.6,30.3c-10.4-3.4-11.4-4.9-21.7-12.6-3.4-2.6-11.1-10-15.5-11.4-.4-.1-2.1,0-4.1.2-2.2.2-4.6.5-5.7.6,3.7.3,7.2,7,8,15.6.8,8.7-1.5,16-5.2,16.8.2,0,.3,0,.4,0,8.5-.8,16.9-1.6,25.4-2.4,4.9-.5,9.8-1,14.6-1.4,4.4-.4,6.3-.5,7.2-.5,1.4,0,0,0,1.9-.6,1.9-.6.6-2.4-5.5-4.4Z"/><path class="cls-4" d="M86.1,35.2h0c-.9,0-2.8.2-7.2.5-4.9.4-9.8.9-14.6,1.4-8.5.8-16.9,1.6-25.4,2.4,0,0-.2,0-.4,0,3.7-.8,6-8.1,5.2-16.8-.8-8.6-4.3-15.3-8-15.6,1.1,0,3.5-.3,5.7-.6.6,3.2,3.4,6,5.4,8.7,3.3,4.7,9.5,9.8,14.7,12.3,7,3.4,19.9,7,24.8,7.7Z"/><path class="cls-3" d="M38.5,39.5h0c-.2,0-.3,0-.4,0-3.9.4-7.7-6.6-8.5-15.6-.8-9,1.6-16.5,5.5-16.9.1,0,.3,0,.5,0h0c3.7.3,7.2,7,8,15.6.8,8.7-1.5,16-5.2,16.8Z"/><path class="cls-1" d="M32.8,15.3l.5-2c.2-.7,1-1.3,1.9-1.4l40.2-3.7c1,0,1.8.6,1.6,1.4l-.6,2.2c-.2.7-.9,1.2-1.8,1.3l-39.9,3.7c-1.1.1-2.1-.7-1.8-1.6Z"/><ellipse class="cls-9" cx="86" cy="18.7" rx="7.1" ry="16.4" transform="translate(-1.4 8.1) rotate(-5.3)"/><path class="cls-9" d="M38.2,39.6c-3.9.4-7.7-6.7-8.6-15.7s1.6-16.6,5.5-17"/><path class="cls-9" d="M35.2,7c3.9-.4,7.7,6.7,8.6,15.7s-1.6,16.6-5.5,17"/><line class="cls-9" x1="84.5" y1="2.4" x2="35.2" y2="7"/><line class="cls-9" x1="38.2" y1="39.6" x2="87.5" y2="35.1"/><path class="cls-5" d="M88.8,33.8c1.3,1.3,1.2,4.3,1.1,6.4s-2.8-.2-3-1.9-.1-2.4-.6-3.1-.4-.5-1.3-1.2c-1.7-1.4-2.8-3.1-.5-2.8s2.9,1.3,4.3,2.7Z"/></svg>