<?xml version="1.0" encoding="UTF-8"?><svg id="Layer_1" xmlns="http://www.w3.org/2000/svg" width="548" height="373" viewBox="0 0 548 373"><defs><style>.cls-1{fill:none;stroke:#000;stroke-linecap:round;stroke-linejoin:round;}.cls-2{fill:#fff;opacity:.4;}.cls-2,.cls-3,.cls-4,.cls-5,.cls-6,.cls-7,.cls-8,.cls-9{stroke-width:0px;}.cls-10{fill:#4b4543;stroke:#231f20;stroke-miterlimit:10;}.cls-3{fill:#f2f6f7;}.cls-4{fill:#9acee3;}.cls-5{fill:#a3d7f0;}.cls-6{fill:#b2e3f7;}.cls-7{fill:#8cc4db;}.cls-8{fill:#fff9f0;}.cls-9{fill:#ebf0f2;}</style></defs><rect class="cls-8" x="-9.9" y="-5.4" width="565.4" height="384.5"/><rect class="cls-10" x="-10.3" y="224.6" width="566.3" height="158.3"/><path class="cls-3" d="M333.7,161c0,13.3-24.9,24-55.7,24s-55.7-10.8-55.7-24,24.9-24,55.7-24,55.7,10.8,55.7,24Z"/><path class="cls-9" d="M333.7,161v168.4c0,13.3-24.9,24-55.7,24s-55.7-10.8-55.7-24v-168.4c0,13.3,24.9,24,55.7,24s55.7-10.8,55.7-24Z"/><path class="cls-5" d="M222.5,271.9v58.2s0,0,0,0c0,13.3,24.8,24,55.4,24s55.4-10.8,55.4-24v-55.7s0-5.1,0-5.1c-.2-.7-.4-1.3-.7-2,.1-.6.2-1.2.2-1.8,0-13.3-24.8-24-55.4-24s-55.4,10.8-55.4,24,0,.2,0,.3"/><path class="cls-5" d="M226.9,320.8c.6-.7,1.4-1.3,2.2-2-.8.7-1.5,1.3-2.2,2Z"/><path class="cls-4" d="M226.9,320.8c.6-.7,1.4-1.3,2.2-2-.8.7-1.5,1.3-2.2,2Z"/><path class="cls-4" d="M333.3,330.1c-59.7-39.8-110.8,0-110.8,0h0c0-13.3,24.8-24,55.4-24s55.4,10.8,55.4,24Z"/><path class="cls-7" d="M277.4,292.8c-41.6,0-52-15.3-54.6-23,4.6,11.2,27.3,19.8,54.5,19.8s55.4-10.8,55.4-24c0,0,5,27.3-55.3,27.2Z"/><path class="cls-6" d="M326.6,265.6c-.3,4.7-5.7,10.3-20.7,16.4-2.2.9,11-6.5,11.6-16.4.3-5.1-2.8-10.9-13.2-16.5.7.2,23.1,6.4,22.4,16.5Z"/><path class="cls-1" d="M333.4,161.6c0,13.3-24.9,24-55.7,24s-55.7-10.8-55.7-24,24.9-24,55.7-24,55.7,10.8,55.7,24Z"/><path class="cls-1" d="M333.4,161.6v168.4c0,13.3-24.9,24-55.7,24s-55.7-10.8-55.7-24v-168.4c0,13.3,24.9,24,55.7,24s55.7-10.8,55.7-24Z"/><path class="cls-2" d="M249.1,340.5l-6.5-2.4c-2.4-.9-4-3.6-4-6.8v-137.2c0-3.4,2.6-5.9,5.2-4.9l7.4,2.8c2.3.9,3.9,3.6,3.9,6.6v136.1c0,3.9-2.9,6.7-5.9,5.7Z"/><path class="cls-3" d="M484.7,161c0,13.3-24.9,24-55.7,24s-55.7-10.8-55.7-24,24.9-24,55.7-24,55.7,10.8,55.7,24Z"/><path class="cls-9" d="M484.7,161v168.4c0,13.3-24.9,24-55.7,24s-55.7-10.8-55.7-24v-168.4c0,13.3,24.9,24,55.7,24s55.7-10.8,55.7-24Z"/><path class="cls-5" d="M373.5,231.9v98.2s0,0,0,0c0,13.3,24.8,24,55.4,24s55.4-10.8,55.4-24v-95.7s0-5.1,0-5.1c-.2-.7-.4-1.3-.7-2,.1-.6.2-1.2.2-1.8,0-13.3-24.8-24-55.4-24s-55.4,10.8-55.4,24,0,.2,0,.3"/><path class="cls-5" d="M377.9,320.8c.6-.7,1.4-1.3,2.2-2-.8.7-1.5,1.3-2.2,2Z"/><path class="cls-4" d="M377.9,320.8c.6-.7,1.4-1.3,2.2-2-.8.7-1.5,1.3-2.2,2Z"/><path class="cls-4" d="M484.3,330.1c-59.7-39.8-110.8,0-110.8,0h0c0-13.3,24.8-24,55.4-24s55.4,10.8,55.4,24Z"/><path class="cls-7" d="M428.4,252.8c-41.6,0-52-15.3-54.6-23,4.6,11.2,27.3,19.8,54.5,19.8s55.4-10.8,55.4-24c0,0,5,27.3-55.3,27.2Z"/><path class="cls-6" d="M477.6,225.6c-.3,4.7-5.7,10.3-20.7,16.4-2.2.9,11-6.5,11.6-16.4.3-5.1-2.8-10.9-13.2-16.5.7.2,23.1,6.4,22.4,16.5Z"/><path class="cls-1" d="M484.4,161.6c0,13.3-24.9,24-55.7,24s-55.7-10.8-55.7-24,24.9-24,55.7-24,55.7,10.8,55.7,24Z"/><path class="cls-1" d="M484.4,161.6v168.4c0,13.3-24.9,24-55.7,24s-55.7-10.8-55.7-24v-168.4c0,13.3,24.9,24,55.7,24s55.7-10.8,55.7-24Z"/><path class="cls-2" d="M400.2,340.5l-6.5-2.4c-2.4-.9-4-3.6-4-6.8v-137.2c0-3.4,2.6-5.9,5.2-4.9l7.4,2.8c2.3.9,3.9,3.6,3.9,6.6v136.1c0,3.9-2.9,6.7-5.9,5.7Z"/><path class="cls-3" d="M231.6,142.1c-13.2,1.2-26.2-22.6-29.1-53.2-2.8-30.6,5.5-56.5,18.8-57.7,13.2-1.2,26.2,22.6,29.1,53.2,2.9,30.6-5.5,56.5-18.8,57.7Z"/><path class="cls-9" d="M231.6,142.1l-167.7,15.6c-13.2,1.2-26.2-22.6-29.1-53.2-2.9-30.6,5.5-56.5,18.8-57.7l167.7-15.6c-13.2,1.2-21.6,27.1-18.8,57.7,2.8,30.6,15.9,54.5,29.1,53.2Z"/><path class="cls-6" d="M214.7,125.3c-35.5-11.7-38.7-16.8-73.8-43-11.7-8.7-37.9-33.9-52.6-38.6-1.2-.4-7.2.1-13.8.8-7.3.8-15.6,1.7-19.4,1.9,12.6.9,24.6,23.8,27.3,53,2.8,29.5-5,54.5-17.5,57.2.6,0,1.1,0,1.2,0,28.8-2.7,57.6-5.4,86.4-8.1,16.6-1.5,33.2-3.3,49.8-4.7,14.9-1.2,21.5-1.5,24.4-1.6,4.8-.2.2.2,6.5-2,6.3-2.2,2-8.1-18.5-14.9Z"/><path class="cls-5" d="M226.7,142h0c-2.9.2-9.5.5-24.4,1.8-16.6,1.4-33.2,3.1-49.8,4.7-28.8,2.7-57.6,5.4-86.4,8.1-.1,0-.7,0-1.2,0,12.5-2.7,20.3-27.7,17.5-57.2-2.7-29.1-14.7-52.1-27.3-53,3.8-.2,12-1.2,19.4-1.9,1.9,11,11.7,20.5,18.2,29.7,11.3,15.9,32.2,33.2,49.9,41.7,23.8,11.4,67.5,23.9,84.2,26.2Z"/><path class="cls-4" d="M64.9,156.5h0c-.6,0-1.2,0-1.2.2-13.2,1.2-26.2-22.5-29-52.9-2.8-30.5,5.6-56.2,18.8-57.4.4,0,.9,0,1.7,0h0c12.6.9,24.6,23.8,27.3,53,2.8,29.5-5,54.5-17.5,57.2Z"/><path class="cls-2" d="M45.6,74.3l1.7-6.7c.6-2.5,3.2-4.4,6.4-4.6l136.6-12.7c3.4-.3,6.1,2.1,5.4,4.7l-2.1,7.6c-.7,2.4-3.2,4.2-6.2,4.5l-135.6,12.6c-3.9.4-7-2.3-6.2-5.4Z"/><ellipse class="cls-1" cx="226.4" cy="86.1" rx="24" ry="55.7" transform="translate(-7 21.4) rotate(-5.3)"/><path class="cls-1" d="M63.9,157.2c-13.2,1.2-26.2-22.6-29.1-53.2-2.9-30.6,5.5-56.5,18.8-57.7"/><path class="cls-1" d="M53.6,46.2c13.2-1.2,26.2,22.6,29.1,53.2,2.9,30.6-5.5,56.5-18.8,57.7"/><line class="cls-1" x1="221.3" y1="30.6" x2="53.6" y2="46.2"/><line class="cls-1" x1="63.9" y1="157.2" x2="231.6" y2="141.5"/><path class="cls-6" d="M235.8,137.3c4.4,4.4,4.1,14.6,3.6,21.8s-9.6-.8-10.2-6.5-.4-8-2-10.5-1.4-1.7-4.4-4.2c-5.7-4.8-9.4-10.4-1.8-9.6s9.9,4.3,14.7,9.1Z"/></svg>