<?xml version="1.0" encoding="UTF-8"?><svg id="Layer_1" xmlns="http://www.w3.org/2000/svg" width="45.3" height="5" viewBox="0 0 45.3 5"><defs><style>.cls-1{fill:#646464;stroke-width:0px;}</style></defs><path class="cls-1" d="M.1,2.4c-.2,0,0,.3-.1.1,0-.1,0-.2.1-.1Z"/><path class="cls-1" d="M44.7,1.7c-.5.8-1.2,0-1.8.5,0,0,0-.4-.1-.3-.6.6-1.5.3-2.2-.2h0c-.1-.2-.3.2-.4.1,0,0,0-.1,0-.2,0,.2-.3.1-.3.3,0,0,0-.3-.1-.4v.3c-.3.6-.6,0-.9.3,0,0,0-.1,0-.2-.5.4-1.1.3-1.6.5,0,0,0-.3,0-.4,0,.3-.2.4-.3.4,0-.3-.2.3-.4.1h0c-.1.2-.2-.2-.3.1v-.2c-.1.4-.3-.2-.4,0h0c0,.2-.2,0-.2,0h0c-.2,0-.3-.2-.3.2,0-.3.2-.1,0-.5-.7.3-1.4.3-2.1.3,0-.1-.1-.2-.2-.3,0,0-.3,0-.3.2,0,0,0-.2,0-.2-.1-.1-.1.4-.3.2,0,0,0-.2,0-.3-.1.3-.3.2-.4.3,0,0,0,0,0-.2-.2.3-.3,0-.4.1v-.2c-.2-.2,0,.4-.2.3,0,0,0-.1,0-.2-.2.3-.5.2-.6.4,0,0,0,0,0,0-.2,0-.4,0-.6,0,0,0,0-.5-.2-.4,0,.4-.3.2-.2.6-.2,0-.5-.2-.6,0,0-.1,0-.5,0-.5v-.2c-.1-.2,0,0,0-.1,0,0-.3.2-.3.1-.1.2-.2.7-.5.7,0-.1,0-.4,0-.5l-.3.7c0,0,0-.3-.1-.2,0,0,0,.2,0,.2,0,0-.3,0-.3-.3,0-.1.1,0,0-.2-.1,0-.1.1-.3.1h0c0-.1-.3.1-.2.3,0,0,0-.2,0-.1,0,.2-.2.3-.3.3,0,0,0-.2,0-.3-.2.3-.4.4-.6.5,0,.2,0-.3.1-.2-.3-.2-.5.4-.7,0,0,0,0,.2,0,.2-.1,0-.1-.3-.2-.2,0-.1-.1,0-.2,0,0,.1,0,0,0,0-.1.1-.6.4-.8.2,0,0-.2.4-.2.4v-.2c0-.1-.2,0-.2-.2-.1.3.5-.2.3,0,0-.2-.2.4-.2,0-.1,0-.2.3-.4,0,0,0,0-.3,0-.3-.2,0,0,.1-.2.2h0c0,.3-.2,0,0,.3,0-.2-.3.1-.2-.3v-.3c0,0,0,.3-.2.4,0,0,0,0,0-.1,0,.4-.2,0-.3.3-.2-.2-.4,0-.5-.3-.1.1-.2.3-.4.2,0,0,0,0,0-.2,0-.1-.1,0-.2,0,0,0-.2-.3-.3-.4-.1.1,0,.4,0,.5-.1-.4-.3.3-.5-.1,0,0,.2-.2,0-.3-.1-.4-.2.3-.4.1v.4c0-.2-.2.2-.2-.2,0,.1-.2-.1-.2.2-.3-.3-.7.2-.9-.4,0,0-.1,0-.1.2,0,.2,0-.1.1,0,0,0,0,.1,0,.2,0,0-.2-.1,0-.4-.2-.2-.2.6-.5.5,0-.1,0-.2,0-.2v.3c-.3,0-.2-.3-.3-.6,0,0-.2,0-.2.2v-.3c0,.2-.2.2-.2.2h0c0-.2-.1,0-.2,0,0,.2.1.2.2.3,0,.1-.1,0-.2.2,0-.2-.1-.2-.2-.2,0,0,0,.2-.1.2,0-.1-.1,0,0-.2,0,0,0,.1.1,0,0,0,0-.3-.2-.2,0,.1,0,.5-.1.3,0,0,0-.2,0-.2h-.2c0-.1,0,0,0,0,0,0,0,0,0-.1,0,.2-.2,0-.3.3,0,0-.2-.2-.2-.2h0c0-.1-.2,0-.3,0h0c0,0-.2,0-.2.1-.1-.2,0-.8-.2-.6-.1,0-.2.4-.1.6-.2-.1-.5.2-.7-.1,0,0,0,.1,0,.2-.3,0-.7.3-1-.2,0,0,0-.2,0-.3,0,.2,0-.2-.1.1,0,.2,0,.3,0,.4-.2.1-.5.1-.6,0,0,0,0,.2,0,.2,0-.3-.1-.4-.2-.3v.2s0-.2,0-.2c0,0,0,.4-.1.2,0,0,0-.2,0-.2-.1.2-.3.4-.4.3v-.3c-.2,0-.2.2-.1.3-.2-.2-.3-.2-.4-.4-.3.6-.9.6-1.3.6h0c-.1-.3,0,.1-.1,0,0-.1,0-.3,0-.5-.2-.2-.2.3-.3.3,0,.2,0-.1,0,.1,0,0-.2-.1-.2.1,0-.1,0-.3,0-.4h0c-.1-.2.3-.5.1-.9h0c0-.3.2-.3,0-.4,0,.1-.2.6,0,.7-.2,0,0,.7-.3.7,0-.2.2,0,.1-.3-.1-.2-.2.1-.3,0,.1.1,0,.4,0,.5-.1-.1,0-.3,0-.3,0,.2-.2.3,0,.4,0,.4-.2-.1-.2.2,0-.3.2-.6,0-.8,0,.3-.2.4-.1.7,0,0,0-.3,0-.4-.1-.2-.2.5-.3,0v.3c0,0-.1-.1-.2-.3,0,0-.3.4-.3,0,0,0-.2,0-.1.3.1.2.1-.2.2.2,0-.3-.2,0-.2.1v-.2c0,0-.2,0-.2.2,0,0,0-.2,0-.2v.2c-.2.1,0-.4-.3-.3v-.2c0,0,0-.2,0-.1,0,.2,0,.5-.1.6,0,0,0-.2-.1,0v-.3c.1,0,0-.4,0-.3,0,0-.2.4,0,.5,0,0-.2-.1-.1-.3-.1,0,0,.2,0,.4,0-.1-.2-.3-.3-.5v-.4c.1,0,0,0,0,0,.1-.3,0-.2,0-.5,0,0-.1,0-.2.1.2.5-.2.7-.1,1.1-.2.1-.2-1.1-.4-.4,0,.1,0,.5,0,.3-.1,0,0,.4-.3.3.1-.2-.1-.4,0-.7,0,.1.1.1.1,0,0-.2,0-.4-.1-.4,0,0-.2,0-.2.3,0,.3.1,0,0,.2-.2,0-.2-.3-.3.2.1,0,.1.2.1.4h-.1c0,.1,0,0,0,0-.2-.1,0,.3-.3.3v-.3c0-.3.2.1.2-.3-.1,0-.2.2-.3.1,0,0,0,0,0,0,0,0-.1-.6-.3-.3,0,.1,0,.2,0,.3-.2,0-.3.2-.4.3,0-.3-.2,0,0-.4,0,.2.4.2.5-.2,0-.4.2,0,.2-.4-.2,0-.2-.4-.2-.7,0,0,0,0-.1.1,0,.2,0,.2,0,.5-.2,0-.4,0-.5.3,0-.1,0-.4,0-.4-.2,0-.5,0-.7,0,.1.4-.2,0-.1.4.1,0,.2.4.2.6,0,0,0-.2,0-.3,0,.2-.2-.3-.2,0,.2-.1,0-.5,0-.8-.1.2,0-.2-.1-.2-.1.2-.3.3-.5.4-.2-.3-.5,0-.7,0-.1-.2,0-.5-.1-.6-.1,0,0,.4,0,.2h0c0,0-.3-.3-.4.2v-.4s0,0,0,0c0-.1,0-.2,0-.3-.1-.3-.2,0-.4,0v.2c-.1.2-.3,0-.5,0v-.2s-.1.1-.1.1c0-.2,0-.4-.1-.2l.3-.5c0,.1,0,.3,0,.5,0,.2.2.1.3,0,0,0,0,0-.1.1,0-.3,0-.3.1-.5,0,0,0,0,0,0,0-.2.1-.2.3-.2,0,.1,0,.2,0,.3,0-.3.1-.4.3-.3.1.3.3-.2.5-.1,0,.3-.2.5-.3.6.1.1.1,0,.2.1,0-.2,0-.5.2-.6v.2c.1-.1.1-.4.3-.4.3,0,.6,0,.8.1v.2c.1-.4.4-.2.6-.4.3.2.6-.2.8.1.5-.2.9-.3,1.4-.3v.3c0-.2,0,.2,0,.1-.1-.2.1-.3.2-.5.2.2.5,0,.7-.2v.2c.2-.4.5,0,.7,0,0,0,0,.3.2.2.1-.3.2-.3.4-.5.1,0,.4,0,.5.2.5-.5,1.1-.2,1.7-.5v.2c.6-.5,1.3,0,1.8-.3v.4c.1.1.3-.1.3-.4.2.1.4-.2.5.1.2,0,.2-.2.3-.2.3.1.4.1.7,0h0c0,0,0,.2,0,.3.1-.1.4.1.3-.4.3.3.7-.2,1,.1,0-.1,0-.2,0-.2.3,0,.6.3.8,0,0,0,0,.2,0,.2,0,0,0-.2,0-.2.4-.3.9.2,1.3.2.7-.3,1.5-.2,2.1-.2h0c.2-.3.5.5.7,0,0,0,.2,0,.2.2.2-.3.5.2.8-.1,0,0,0,0,0,0,.3.2.5,0,.8.1,0,0,0,0,0,.2.1.2.2-.4.3,0,0,0,0-.2,0-.2.6.2,1.3-.1,1.9-.3.5.3,0,.8.4.4,0,0,0-.2,0,0,.1-.1.2.5.3.3,0-.3,0-.2,0-.3.3.2.3.4.6.2v.2c.2-.4.5-.2.8-.7,1.4-.1,2.8-.4,4.2-.5,1.4,0,2.7-.2,4.1,0,.3.4.4.4.7.2,0,0,0,0,0,.1,0-.3.3,0,.3-.3.5,0,1,0,1.5,0,0,0-.1.3,0,.3v-.2c.1,0,.1,0,.1,0,0,0,.1-.2,0-.3,1.3-.3,2.7.3,4,.2.3.1.8,0,1.1,0,1,.4,1.9.8,2.9.4,0,0-.1.8-.5,1.1Z"/><path class="cls-1" d="M.3,2.4c0,.2.2.3,0,.5,0-.2,0-.3,0-.5Z"/><path class="cls-1" d="M3.4,4s0,0,0,0c0,0,0,.2-.1,0,0,0,0,0,0-.2Z"/><path class="cls-1" d="M4.2,4.1c0,.1-.2.3-.3.3l.3-.3Z"/><path class="cls-1" d="M5,4.6c0,.1,0,.2,0,.2,0,0,0-.1,0-.2Z"/><path class="cls-1" d="M5,4.3c0,0,0,0,.1.2,0-.1-.1,0-.1-.2Z"/><path class="cls-1" d="M6.6,4.7s.1-.1.2,0c0-.1-.2.2-.2,0Z"/><path class="cls-1" d="M7.4,4.5s0,0,0,0c0,0,0,.2,0,.2v-.2Z"/><polygon class="cls-1" points="21 3.6 20.9 3.7 20.9 3.6 21 3.6"/><polygon class="cls-1" points="30.1 2.7 30.1 2.7 30.1 2.4 30.1 2.7"/></svg>