<?xml version="1.0" encoding="UTF-8"?><svg id="Layer_1" xmlns="http://www.w3.org/2000/svg" width=".7in" height=".9in" viewBox="0 0 52.4 67.1"><defs><style>.cls-1{fill:none;stroke:#000;stroke-linecap:round;stroke-linejoin:round;}.cls-2{fill:#d7d7d7;}.cls-2,.cls-3,.cls-4{stroke-width:0px;}.cls-3{fill:#b2b2b2;}.cls-4{fill:#e4e4e4;}</style></defs><path class="cls-3" d="M51.1,29.3c.5,3,.8,6.1.8,9.4s-.4,7.4-1.1,10.8c0,.1,0,.2,0,.3,0,0,0,.1,0,.2,0,.2,0,.5-.2.7s0,.1,0,.2,0,.1,0,.2c0,.2,0,.4-.2.6,0,.2-.1.5-.2.7-.8,3.1-1.9,6.1-3.3,8.7-.8,1.6-1.7,3.1-2.7,4.6-.1,0-.3.1-.4.2,0,0,0,0-.1,0-.2,0-.4.1-.6.2,0,0-.2,0-.3,0-.1,0-.2,0-.3,0-.3,0-.5.1-.8.2-.2,0-.4,0-.6,0-.2,0-.3,0-.5,0,0,0-.2,0-.3,0h0c-.4,0-.7,0-1.1,0-2.1-.3-4.5-1.3-6.1-2.7,1-.8,2.8-2.4,3.7-3.4s2.1-2.5,3.1-4.5c.9-1.8,1.7-3.8,2.3-6,.5-1.7.9-3.5,1.1-5.3,0,0,0-.1,0-.2,0-.2,0-.4,0-.6,0,0,0,0,0,0,0,0,0,0,0,0,.2-1.6.3-3.3.3-5.1,0-3.3-.4-6.4-1-9.4-2.5-10.8-9.1-18.5-16.9-18.5s-14.4,7.7-16.9,18.5H.5C3.4,12.7,13.6.5,25.8.5s22.5,12.2,25.3,28.8Z"/><path class="cls-4" d="M40.7,43.3c.8,0,1.6.1,2.4.4-.5-.1-1.6-.3-2.4-.4Z"/><path class="cls-4" d="M39.7,55.6c1-1.8,1.8-3.7,2.4-5.8-.7,2.1-1.2,3.5-2.2,5.3,0,.1-.2.3-.2.4Z"/><path class="cls-2" d="M51.3,51c-.1-.4-.4-1.2-.5-1.5,0,.1,0,.2,0,.3,0,0,0,.1,0,.2,0,.2,0,.5-.2.7,0,0,0,.2,0,.2,0,0,0,.1,0,.2,0,.2,0,.4-.2.6,0,.2-.1.5-.2.7-.7,2.6-1.3,5.4-2.3,7.7-.2.4-.3.7-.5,1-.9,1.6-1.9,3.1-3,4.6,0,0,0,0,0,0,0,0,0,.1-.1.2.6-.2,2.1-1,2.3-1.1,0,0,.1,0,.1,0,3.2-2.1,5.3-5.7,5.3-9.8s-.3-2.7-.6-3.9Z"/><path class="cls-2" d="M43.2,43.6s0,0-.1,0c-.5-.1-1.6-.3-2.4-.4-.2,0-.3,0-.5,0s-.1,0-.2,0c0,0-.1,0-.2,0-4.6,0-8.6,2.7-10.5,6.5-.5,1-.9,2.1-1,3.3-.1.6-.2,1.2-.2,1.9s0,1.6.3,2.4c.5,2.6,2,4.9,3.9,6.5,0,0,0,0,0,0,0,0,0,0,.1,0,1.2-.8,2.3-1.7,3.3-2.8.2-.2.4-.4.6-.7,1.1-1.2,2.2-2.9,3.1-4.4,0,0,0,0,0-.1,0,0,0-.1,0-.2,1-1.8,1.8-3.7,2.4-5.8,0-.1,0-.2.1-.4.5-1.8,1-4.8,1.1-5.6,0,0,0,0,0,0,0,0,0,0,0,0,0,0,0,0,0,0,0,0,0,0,0,0,0,0-.1,0-.2,0Z"/><path class="cls-1" d="M38.8,66.5s0,0,0,0c0,0,0,0,0,0"/><path class="cls-1" d="M28.4,53.1c.1,0,.2,0,.4,0,.9-.2,1.9-.4,2.8-.4,3.1,0,5.9,1.2,8,3.2"/><path class="cls-1" d="M29.4,49.8c.2-.1.3-.2.5-.3,1.7-1,3.7-1.6,5.8-1.6s4.6.7,6.4,1.9"/><path class="cls-1" d="M43.7,65.9c-.2,0-.4.1-.6.2-.3,0-.6.2-.9.2-.2,0-.4,0-.5,0"/><path class="cls-1" d="M50.7,50c0,0,0-.1,0-.2"/><path class="cls-1" d="M50.5,50.9c0,0,0-.1,0-.2"/><path class="cls-1" d="M44.3,65.7c1.1-1.4,2.1-2.9,3-4.6.2-.3.4-.7.5-1,1.1-2.3,1.7-5.1,2.3-7.7"/><path class="cls-1" d="M40.8,66.6c0,0-.2,0-.3,0,0,0-.2,0-.3,0s-.1,0-.2,0"/><path class="cls-1" d="M50.8,49.5c.1.3.4,1.1.5,1.5.3,1.3.6,2.9.6,3.9,0,4.1-2.1,7.7-5.3,9.8h-.1c-.1.2-1.6,1-2.3,1.2"/><path class="cls-1" d="M43.3,44.4c0-.2,0-.4,0-.6"/><path class="cls-1" d="M40.2,66.6c-.4,0-.7,0-1.1,0-2.1-.3-4.5-1.3-6.1-2.7,1-.8,2.8-2.4,3.7-3.4s2.1-2.5,3.1-4.5c.9-1.8,1.7-3.8,2.3-6,.5-1.7.9-3.5,1.1-5.3"/><path class="cls-1" d="M40.8,66.6h-.2s0,0,0,0h-.2"/><path class="cls-1" d="M42.2,66.3c-.1,0-.3,0-.4,0-.2,0-.4,0-.5,0-.1,0-.3,0-.4,0"/><path class="cls-1" d="M43.4,43.7c.2-1.6.3-3.3.3-5.1,0-3.3-.4-6.4-1-9.4-2.5-10.8-9.1-18.5-16.9-18.5s-14.4,7.7-16.9,18.5H.5C3.4,12.7,13.6.5,25.8.5s22.5,12.2,25.3,28.8c.5,3,.8,6.1.8,9.4s-.4,7.4-1.1,10.8c0,.1,0,.2,0,.3,0,0,0,.1,0,.2,0,.2,0,.5-.2.7s0,.1,0,.2,0,.1,0,.2c0,.2,0,.4-.2.6,0,.2-.1.5-.2.7-.8,3.1-1.9,6.1-3.3,8.7-.8,1.6-1.7,3.1-2.7,4.6-.1,0-.3.1-.4.2,0,0,0,0-.1,0-.2,0-.4.1-.6.2,0,0-.2,0-.3,0"/><path class="cls-1" d="M43.7,65.9h0s0,0,.1,0c.2,0,.3-.1.4-.2,0,0,0,0,0,0,0,0,0,.1-.1.2-.4.1-.7.2-1.1.3-.7.2-1.5.3-2.2.3h0c-.6,0-1.3,0-1.9,0-1.9-.1-3.9-.7-5.7-2.2-.2-.2-.5-.3-.7-.5"/><path class="cls-1" d="M32.6,63.7c1.7,1.5,3.8,2.5,6.2,2.7.4,0,.8,0,1.3,0h.2c0,0,.2,0,.3,0,.2,0,.3,0,.5,0,.2,0,.4,0,.6,0,.3,0,.5-.1.8-.2"/><path class="cls-1" d="M39.5,55.9c-.9,1.6-1.9,3.1-3.1,4.4"/><path class="cls-1" d="M42.1,49.8c-.6,2.1-1.5,4-2.4,5.8"/><path class="cls-1" d="M43.4,43.9c0,.2,0,.3,0,.5,0,0,0,.1,0,.2-.2,1.7-.6,3.4-1,4.9"/><path class="cls-1" d="M43.4,43.8s0,0,0,0h0"/><path class="cls-1" d="M43.2,43.6c0,0,.1,0,.2,0"/><path class="cls-1" d="M40.7,43.3c.8,0,1.9.2,2.4.4"/><path class="cls-1" d="M43.4,43.7s0,0,0,0c0,0,0,0,0,0,0,0,0,0,0,0-.1.8-.6,3.8-1.1,5.6,0,.1,0,.3-.1.4-.7,2.1-1.2,3.5-2.2,5.3,0,.1-.2.3-.2.4,0,0,0,.1,0,.2s0,0,0,.1c-.9,1.5-2,3.1-3.1,4.4-.2.2-.4.4-.6.7-1,1.1-2.1,2-3.3,2.8,0,0,0,0-.1,0h0c-2-1.6-3.4-3.9-3.9-6.5-.2-.8-.3-1.6-.3-2.4s0-1.2.2-1.9c.2-1.2.5-2.3,1-3.3,1.9-3.9,5.9-6.5,10.5-6.5s.1,0,.2,0c0,0,.1,0,.2,0,.1,0,.3,0,.5,0,.8,0,1.6.1,2.4.4,0,0,.1,0,.1,0,0,0,.1,0,.2,0,0,0,0,0,0,0Z"/><path class="cls-1" d="M28.8,57.4c0,0,.2,0,.2,0,2.6-.3,5.3,1,6.7,3.1"/><path class="cls-1" d="M47.8,59.6c0,.2,0,.3,0,.5,0,1.7-.4,3.1-1.2,4.6"/></svg>