<?xml version="1.0" encoding="UTF-8"?><svg id="Layer_1" xmlns="http://www.w3.org/2000/svg" width="14.27" height="14.27" viewBox="0 0 14.27 14.27"><defs><style>.cls-1{fill:#4d4d4d;stroke-width:0px;}</style></defs><path class="cls-1" d="M13.63,6.59c-1.08.9-2.16,1.79-3.23,2.69.84-.87,1.67-1.73,2.51-2.6.34-.35-.16-.83-.53-.53-.67.55-1.34,1.09-2.02,1.64.94-.95,1.87-1.9,2.81-2.85.34-.35-.17-.84-.53-.53-1.45,1.23-2.91,2.47-4.36,3.7,1.18-1.27,2.35-2.54,3.53-3.8.38-.41.76-.81,1.13-1.22.33-.36-.17-.85-.53-.53-1.47,1.3-2.95,2.61-4.42,3.91.94-1.02,1.88-2.03,2.82-3.05.38-.41.76-.83,1.14-1.24.33-.36-.18-.86-.53-.53-1.28,1.18-2.55,2.36-3.83,3.54.66-.72,1.31-1.45,1.97-2.17.36-.4.73-.8,1.09-1.21.32-.36-.17-.86-.53-.53-1.54,1.4-3.09,2.81-4.63,4.21.92-1.05,1.83-2.09,2.75-3.14.34-.39.68-.78,1.03-1.17.32-.36-.17-.86-.53-.53-1.01.92-2.02,1.84-3.03,2.77.76-.85,1.53-1.7,2.29-2.55.32-.36-.17-.85-.53-.53-1.28,1.13-2.56,2.26-3.84,3.38.82-1.02,1.65-2.05,2.47-3.07.3-.37-.16-.85-.53-.53-.75.65-1.5,1.3-2.24,1.95-.77.67-1.71,1.32-2.36,2.11-.31.37.22.9.53.53.43-.51.98-.97,1.52-1.41-.89,1.1-1.77,2.21-2.66,3.31-.3.37.16.85.53.53.78-.68,1.55-1.37,2.33-2.05-1.04,1.15-2.07,2.31-3.11,3.46-.32.36.17.86.53.53,1.22-1.12,2.44-2.23,3.66-3.35-.88,1.01-1.76,2.01-2.64,3.02-.34.39-.68.78-1.03,1.17-.32.36.17.86.53.53,1.24-1.13,2.48-2.26,3.72-3.38-.81.9-1.63,1.79-2.44,2.69l-1.09,1.21c-.32.36.17.86.53.53,1.05-.97,2.1-1.94,3.16-2.92-.49.53-.98,1.06-1.47,1.6-.38.41-.76.83-1.14,1.24-.33.36.17.85.53.53l4.25-3.76c-.87.94-1.74,1.88-2.61,2.81-.38.41-.76.81-1.13,1.22-.33.36.17.84.53.53.92-.78,1.84-1.56,2.76-2.34-.57.58-1.13,1.15-1.7,1.73-.35.35.16.83.53.53.83-.67,1.65-1.35,2.48-2.02-.97,1-1.94,2.01-2.9,3.01-.34.35.16.83.53.53.74-.61,1.48-1.23,2.22-1.84-.3.3-.6.6-.9.9s.1.84.45.59c.82-.58,1.65-1.16,2.47-1.74.09.22.39.36.61.14.77-.74,1.55-1.48,2.32-2.22.3-.29-.1-.84-.45-.59-.6.42-1.2.84-1.79,1.27,1.19-1.19,2.37-2.37,3.56-3.56.35-.35-.17-.83-.53-.53Z"/></svg>