<?xml version="1.0" encoding="UTF-8"?><svg id="Layer_1" xmlns="http://www.w3.org/2000/svg" width="14.3" height="14.3" viewBox="0 0 14.3 14.3"><defs><style>.cls-1{fill:#00a048;stroke-width:0px;}</style></defs><path class="cls-1" d="M13.6,6.6c-1.1.9-2.2,1.8-3.2,2.7.8-.9,1.7-1.7,2.5-2.6.3-.4-.2-.8-.5-.5-.7.5-1.3,1.1-2,1.6.9-1,1.9-1.9,2.8-2.9.3-.3-.2-.8-.5-.5-1.5,1.2-2.9,2.5-4.4,3.7,1.2-1.3,2.4-2.5,3.5-3.8.4-.4.8-.8,1.1-1.2.3-.4-.2-.8-.5-.5-1.5,1.3-2.9,2.6-4.4,3.9.9-1,1.9-2,2.8-3.1.4-.4.8-.8,1.1-1.2.3-.4-.2-.9-.5-.5-1.3,1.2-2.6,2.4-3.8,3.5.7-.7,1.3-1.4,2-2.2.4-.4.7-.8,1.1-1.2.3-.4-.2-.9-.5-.5-1.5,1.4-3.1,2.8-4.6,4.2.9-1,1.8-2.1,2.7-3.1.3-.4.7-.8,1-1.2.3-.4-.2-.9-.5-.5-1,.9-2,1.8-3,2.8.8-.8,1.5-1.7,2.3-2.5.3-.4-.2-.8-.5-.5-1.3,1.1-2.6,2.3-3.8,3.4.8-1,1.6-2,2.5-3.1.3-.4-.2-.9-.5-.5-.7.6-1.5,1.3-2.2,1.9-.8.7-1.7,1.3-2.4,2.1-.3.4.2.9.5.5.4-.5,1-1,1.5-1.4-.9,1.1-1.8,2.2-2.7,3.3-.3.4.2.9.5.5.8-.7,1.6-1.4,2.3-2.1-1,1.2-2.1,2.3-3.1,3.5-.3.4.2.9.5.5,1.2-1.1,2.4-2.2,3.7-3.3-.9,1-1.8,2-2.6,3-.3.4-.7.8-1,1.2-.3.4.2.9.5.5,1.2-1.1,2.5-2.3,3.7-3.4-.8.9-1.6,1.8-2.4,2.7l-1.1,1.2c-.3.4.2.9.5.5,1.1-1,2.1-1.9,3.2-2.9-.5.5-1,1.1-1.5,1.6-.4.4-.8.8-1.1,1.2-.3.4.2.8.5.5l4.2-3.8c-.9.9-1.7,1.9-2.6,2.8-.4.4-.8.8-1.1,1.2-.3.4.2.8.5.5.9-.8,1.8-1.6,2.8-2.3-.6.6-1.1,1.2-1.7,1.7-.3.4.2.8.5.5.8-.7,1.7-1.3,2.5-2-1,1-1.9,2-2.9,3-.3.4.2.8.5.5.7-.6,1.5-1.2,2.2-1.8-.3.3-.6.6-.9.9s0,.8.5.6c.8-.6,1.6-1.2,2.5-1.7,0,.2.4.4.6.1.8-.7,1.5-1.5,2.3-2.2.3-.3-.1-.8-.5-.6-.6.4-1.2.8-1.8,1.3,1.2-1.2,2.4-2.4,3.6-3.6.3-.3-.2-.8-.5-.5Z"/></svg>