<?xml version="1.0" encoding="UTF-8"?><svg id="Layer_1" xmlns="http://www.w3.org/2000/svg" width="45.71" height="12.33" viewBox="0 0 45.71 12.33"><defs><style>.cls-1{fill:#6b3d18;stroke-width:0px;}</style></defs><path class="cls-1" d="M44.99,8.3c-.17.23-.35.47-.53.7.4-1.17.81-2.34,1.21-3.51.14-.4-.49-.66-.69-.29l-1.01,1.89c.56-1.71,1.13-3.41,1.69-5.12.13-.4-.49-.67-.69-.29-.65,1.31-1.31,2.61-1.96,3.92.55-1.56,1.11-3.13,1.66-4.69.14-.4-.5-.67-.69-.29-.7,1.41-1.39,2.83-2.09,4.24.41-1.13.82-2.26,1.23-3.39.14-.4-.49-.67-.69-.29-.75,1.49-1.51,2.97-2.26,4.46l1.54-4.31c.14-.4-.5-.67-.69-.29-.42.89-.83,1.77-1.25,2.66l1.16-3.24c.14-.4-.5-.67-.69-.29-.26.54-.51,1.08-.77,1.62.13-.34.27-.69.4-1.03.15-.39-.5-.67-.69-.29-.65,1.29-1.29,2.58-1.94,3.87.47-1.23.93-2.46,1.4-3.69.15-.4-.49-.66-.69-.29-.76,1.48-1.52,2.95-2.28,4.43.47-1.22.95-2.45,1.42-3.67.15-.4-.49-.66-.69-.29-.87,1.65-1.74,3.3-2.6,4.95.54-1.42,1.08-2.83,1.62-4.25.15-.4-.48-.66-.69-.29-.47.87-.95,1.73-1.42,2.6.48-1.1.96-2.2,1.44-3.3.19-.43-.4-.81-.65-.38-.7,1.21-1.39,2.41-2.09,3.62.44-.96.89-1.91,1.33-2.87.2-.43-.4-.8-.65-.38-1.07,1.85-2.15,3.71-3.22,5.56.69-1.64,1.38-3.28,2.08-4.92.17-.4-.48-.65-.69-.29-.85,1.51-1.69,3.01-2.54,4.52.68-1.65,1.35-3.31,2.03-4.96.16-.39-.49-.66-.69-.29-.98,1.91-1.96,3.82-2.93,5.73.62-1.71,1.24-3.43,1.86-5.14.14-.4-.5-.67-.69-.29-.19.38-.37.76-.56,1.14,0-.32-.53-.48-.71-.16-.18.33-.36.66-.54.99.24-.52.48-1.04.71-1.56.2-.43-.4-.8-.65-.38-.49.82-.98,1.65-1.47,2.47.16-.33.32-.67.48-1,.21-.43-.39-.79-.65-.38-.6.97-1.2,1.93-1.8,2.9.53-1.07,1.07-2.15,1.6-3.22.21-.43-.39-.79-.65-.38-1.04,1.62-2.07,3.23-3.11,4.85.76-1.51,1.52-3.03,2.28-4.54.22-.43-.38-.78-.65-.38-.78,1.18-1.56,2.37-2.34,3.55.48-.89.96-1.79,1.44-2.68.23-.43-.38-.78-.65-.38-.77,1.18-1.54,2.37-2.32,3.55.64-1.25,1.27-2.49,1.91-3.74.22-.43-.39-.79-.65-.38-.85,1.33-1.7,2.67-2.55,4,.62-1.23,1.24-2.46,1.86-3.69.22-.43-.39-.79-.65-.38-.9,1.41-1.8,2.82-2.69,4.24.6-1.17,1.2-2.34,1.8-3.51.22-.43-.39-.79-.65-.38-.21.34-.43.68-.64,1.01.08-.37-.43-.63-.68-.27-.75,1.09-1.51,2.18-2.26,3.27.74-1.35,1.48-2.69,2.23-4.04.23-.43-.38-.78-.65-.38-.23.35-.46.69-.7,1.04-.1-.24-.48-.35-.68-.07-.18.26-.36.51-.54.77.13-.21.25-.42.38-.64.21-.35-.18-.64-.48-.51.05-.09.11-.18.16-.27.26-.42-.37-.76-.65-.38-.88,1.22-1.77,2.44-2.65,3.66.69-1.16,1.39-2.32,2.08-3.48.25-.43-.37-.76-.65-.38-1.32,1.76-2.64,3.53-3.96,5.29L9.99.77c.25-.43-.37-.76-.65-.38-1.16,1.55-2.33,3.11-3.49,4.66L8.39.88c.26-.42-.36-.75-.65-.38-1.17,1.52-2.33,3.05-3.5,4.57.83-1.4,1.67-2.81,2.5-4.21.25-.43-.37-.76-.65-.38-.97,1.31-1.94,2.61-2.92,3.92l1.8-3.35c.19-.36-.31-.8-.59-.45-.86,1.08-1.73,2.15-2.59,3.23.42-.98.84-1.96,1.26-2.94.19-.45-.35-.77-.65-.38C1.63,1.53.85,2.56.07,3.59c-.29.38.36.76.65.38.16-.21.32-.43.49-.64-.38.88-.76,1.77-1.13,2.65-.15.35.3.82.59.45.59-.74,1.18-1.47,1.77-2.21-.76,1.42-1.52,2.84-2.28,4.25-.23.44.37.76.65.38.54-.73,1.08-1.46,1.63-2.19-.68,1.15-1.37,2.31-2.05,3.46-.25.43.36.75.65.38,1.03-1.34,2.05-2.68,3.08-4.02-.99,1.62-1.97,3.24-2.96,4.86-.26.42.37.75.65.38,1.37-1.82,2.73-3.65,4.1-5.47l-2.91,4.94c-.25.43.37.76.65.38,1.24-1.66,2.48-3.31,3.72-4.97-.92,1.53-1.83,3.06-2.75,4.59-.25.42.37.76.65.38.77-1.07,1.54-2.13,2.31-3.2-.55.91-1.1,1.82-1.65,2.72-.25.42.38.77.65.38.17-.25.34-.5.51-.75.02.31.47.49.7.17.22-.31.44-.62.65-.93-.24.41-.48.81-.73,1.22-.25.42.38.78.65.38l2.29-3.42c-.56,1.01-1.12,2.03-1.68,3.04-.24.43.38.77.65.38.89-1.29,1.78-2.58,2.67-3.87-.47.88-.95,1.77-1.42,2.65-.23.43.39.79.65.38.53-.84,1.06-1.67,1.6-2.51-.61,1.18-1.21,2.37-1.82,3.55-.22.43.39.79.65.38,1.01-1.58,2.01-3.16,3.02-4.75-.61,1.22-1.22,2.43-1.84,3.65-.22.43.39.79.65.38.77-1.21,1.54-2.42,2.31-3.63-.52,1.01-1.03,2.03-1.55,3.04-.22.43.38.78.65.38.43-.66.87-1.33,1.3-1.99-.39.73-.78,1.45-1.17,2.18-.23.43.38.78.65.38,1.15-1.75,2.31-3.49,3.46-5.24-.88,1.74-1.75,3.49-2.63,5.23-.22.43.39.79.65.38,1.09-1.7,2.18-3.4,3.28-5.11-.7,1.41-1.4,2.81-2.09,4.22-.21.43.39.79.65.38.78-1.25,1.55-2.5,2.33-3.75-.38.8-.76,1.59-1.15,2.39-.21.43.4.8.65.38.74-1.24,1.47-2.48,2.21-3.72-.67,1.47-1.34,2.93-2.01,4.4-.2.43.41.81.65.38.78-1.42,1.56-2.84,2.34-4.26-.51,1.25-1.02,2.51-1.53,3.76-.16.39.5.67.69.29.71-1.46,1.42-2.91,2.13-4.37-.5,1.38-1,2.76-1.5,4.15-.14.4.49.67.69.29.55-1.07,1.1-2.15,1.65-3.22-.33.81-.66,1.63-1,2.44-.16.4.48.65.69.29.75-1.33,1.49-2.66,2.24-3.99-.6,1.42-1.2,2.84-1.8,4.27-.17.4.48.65.69.29.69-1.2,1.39-2.4,2.08-3.6-.46,1-.93,2-1.39,3.01-.2.43.4.8.65.38.97-1.69,1.95-3.38,2.92-5.06-.69,1.58-1.38,3.16-2.07,4.74-.19.43.41.81.65.38.93-1.69,1.85-3.38,2.78-5.07-.64,1.66-1.27,3.33-1.91,4.99-.15.4.49.66.69.29.83-1.58,1.66-3.15,2.49-4.73-.54,1.41-1.09,2.82-1.63,4.22-.15.4.49.66.69.29.82-1.6,1.64-3.2,2.47-4.8-.55,1.44-1.09,2.88-1.64,4.32-.15.4.5.67.69.29l1.63-3.24c-.41,1.06-.83,2.12-1.24,3.18-.15.39.5.67.69.29.68-1.43,1.36-2.85,2.04-4.28-.44,1.23-.88,2.46-1.32,3.69-.14.4.5.67.69.29.42-.89.83-1.77,1.24-2.66-.29.82-.59,1.64-.88,2.46-.14.4.49.67.69.29.72-1.42,1.44-2.84,2.16-4.26-.48,1.32-.96,2.65-1.44,3.97-.14.4.5.67.69.29.76-1.54,1.52-3.08,2.28-4.62-.52,1.48-1.05,2.95-1.57,4.43-.14.4.5.67.69.29.78-1.57,1.57-3.14,2.35-4.71l-1.44,4.37c-.13.4.49.66.69.29.28-.52.56-1.05.84-1.57-.15.43-.29.85-.44,1.28-.15.43.45.6.69.29.27-.37.55-.73.82-1.1-.05.21-.11.42-.16.63-.12.47.6.67.72.2.21-.82.42-1.64.63-2.46.11-.44-.44-.62-.69-.29Z"/></svg>